<?xml version="1.0" encoding="utf-8"?>
<!-- Generator: Adobe Illustrator 21.1.0, SVG Export Plug-In . SVG Version: 6.00 Build 0)  -->
<svg version="1.1" id="Layer_1" xmlns="http://www.w3.org/2000/svg" xmlns:xlink="http://www.w3.org/1999/xlink" x="0px" y="0px"
	 viewBox="0 0 254.2 306.2" style="enable-background:new 0 0 254.2 306.2;" xml:space="preserve">
<style type="text/css">
	.st0{fill:#5FC3E2;}
	.st1{fill:#F1ECEC;}
	.st2{fill:#2466CC;}
</style>
<g>
	<path class="st0" d="M253.5,36.6v1.4C253.6,37.5,253.6,37,253.5,36.6z"/>
	<path class="st0" d="M253.5,121.3c0.9-0.7,1.6-1.7,1.7-3c0.1-1.5-0.6-2.8-1.7-3.6v4.9V121.3z"/>
	<path class="st0" d="M127.9,1c-0.4-1.7-2-3-3.8-3c0,0,0,0,0,0c-1.9,0-3.4,1.3-3.9,3h7.5H127.9z"/>
	<path class="st0" d="M104.2,0.7C104.2,0.7,104.2,0.7,104.2,0.7c-0.6,0-1,0.1-1.5,0.3h3C105.2,0.8,104.7,0.7,104.2,0.7z"/>
	<path class="st0" d="M247.6,14c1.9-1.1,2.6-3.5,1.5-5.5c-0.7-1.3-2.1-2-3.5-2c-0.7,0-1.4,0.2-2,0.5c-1.9,1.1-2.6,3.5-1.5,5.5
		C243.3,14.4,245.7,15.1,247.6,14z"/>
	<path class="st0" d="M250.7,33.4c-0.4-0.1-0.8-0.2-1.1-0.2c-1.7,0-3.3,1.1-3.8,2.9c-0.6,2.1,0.6,4.4,2.7,5c2.1,0.6,4.3-0.6,5-2.7
		c0-0.2,0.1-0.3,0.1-0.5v-1.4C253.2,35.1,252.2,33.9,250.7,33.4z"/>
	<path class="st0" d="M237.7,31.4c1.5-1.6,1.5-4.1-0.1-5.7c-0.8-0.7-1.8-1.1-2.8-1.1c-1,0-2.1,0.4-2.9,1.2c-1.5,1.6-1.5,4.1,0.1,5.7
		C233.6,33,236.1,33,237.7,31.4z"/>
	<path class="st0" d="M225,1h-2c0.1,0,0.2,0.1,0.4,0.1C224,1.2,224.5,1.1,225,1z"/>
	<path class="st0" d="M226.9,18c2.1-0.7,3.2-3,2.5-5.1c-0.6-1.7-2.1-2.7-3.8-2.7c-0.4,0-0.9,0.1-1.3,0.2c-2.1,0.7-3.2,3-2.5,5.1
		C222.5,17.6,224.8,18.7,226.9,18z"/>
	<path class="st0" d="M253.5,60.6v-4.1c-0.3,0.5-0.5,1.1-0.6,1.8C252.9,59.2,253.1,60,253.5,60.6z"/>
	<path class="st0" d="M209.9,36c1.2,1.8,3.7,2.3,5.5,1.1s2.3-3.7,1.1-5.5c-0.8-1.1-2-1.8-3.3-1.8c-0.8,0-1.5,0.2-2.2,0.7
		C209.2,31.6,208.7,34.1,209.9,36z"/>
	<path class="st0" d="M222.5,49.6c1.7,1.4,4.2,1.1,5.6-0.6c1.4-1.7,1.1-4.2-0.6-5.6c-0.7-0.6-1.6-0.9-2.5-0.9
		c-1.2,0-2.3,0.5-3.1,1.5C220.5,45.7,220.7,48.2,222.5,49.6z"/>
	<path class="st0" d="M207,21.9c2.1-0.6,3.4-2.8,2.7-5c0,0,0,0,0,0c-0.5-1.8-2.1-2.9-3.8-2.9c-0.4,0-0.8,0.1-1.1,0.2
		c-2.1,0.6-3.3,2.8-2.7,5C202.7,21.2,204.9,22.5,207,21.9z"/>
	<path class="st0" d="M203.6,4.9c2.2,0.1,4-1.7,4.1-3.9h-8C199.8,3.1,201.5,4.8,203.6,4.9z"/>
	<path class="st0" d="M236.3,53.6c-0.8,2.1,0.2,4.4,2.3,5.2c2.1,0.8,4.4-0.2,5.2-2.3c0.8-2.1-0.2-4.4-2.3-5.2
		c-0.5-0.2-1-0.3-1.4-0.3C238.4,51,236.9,52,236.3,53.6z"/>
	<path class="st0" d="M251.1,78.2c-0.1,1.7,0.9,3.2,2.4,3.9v-7.3C252.2,75.4,251.2,76.7,251.1,78.2z"/>
	<path class="st0" d="M210.9,60.8c1.5-1.6,1.4-4.1-0.2-5.6c-0.8-0.7-1.8-1.1-2.7-1.1c-1.1,0-2.1,0.4-2.9,1.3
		c-1.5,1.6-1.4,4.1,0.2,5.6C206.8,62.5,209.4,62.4,210.9,60.8z"/>
	<path class="st0" d="M220,71.9c1.9,1.1,4.4,0.4,5.5-1.5c1.1-1.9,0.5-4.4-1.5-5.5c-0.6-0.4-1.3-0.5-2-0.5c-1.4,0-2.7,0.7-3.5,2
		C217.4,68.4,218,70.8,220,71.9z"/>
	<path class="st0" d="M185,16.4c2.2-0.3,3.7-2.3,3.4-4.5c-0.3-2-2-3.5-4-3.5c-0.2,0-0.4,0-0.5,0c-2.2,0.3-3.7,2.3-3.5,4.5
		C180.8,15.1,182.8,16.7,185,16.4z"/>
	<path class="st0" d="M236.8,79.2c2.1,0.6,4.3-0.6,5-2.7c0.6-2.1-0.6-4.3-2.7-5c-0.4-0.1-0.8-0.2-1.2-0.2c-1.7,0-3.3,1.1-3.8,2.8
		C233.5,76.3,234.7,78.6,236.8,79.2z"/>
	<path class="st0" d="M184.9,30.7c0.8,2.1,3.1,3.1,5.2,2.3c2.1-0.8,3.1-3.1,2.3-5.1c-0.6-1.6-2.1-2.6-3.8-2.6
		c-0.5,0-0.9,0.1-1.4,0.2C185.2,26.3,184.1,28.7,184.9,30.7z"/>
	<path class="st0" d="M193.3,47c1.2,1.8,3.7,2.3,5.6,1.1c1.8-1.2,2.3-3.7,1.1-5.5c-0.8-1.2-2-1.8-3.3-1.8c-0.8,0-1.5,0.2-2.2,0.7
		C192.6,42.7,192.1,45.2,193.3,47z"/>
	<path class="st0" d="M244.2,93.2c-1.9,0-3.6,1.4-3.9,3.3c-0.4,2.2,1.1,4.2,3.3,4.6c2.2,0.4,4.2-1.1,4.6-3.3
		c0.4-2.2-1.1-4.2-3.3-4.6C244.7,93.2,244.5,93.2,244.2,93.2z"/>
	<path class="st0" d="M214.9,87.4c1.1-1.9,0.5-4.4-1.4-5.5c-0.6-0.4-1.3-0.5-2-0.5c-1.4,0-2.7,0.7-3.5,2c-1.1,1.9-0.5,4.4,1.4,5.5
		C211.3,89.9,213.7,89.3,214.9,87.4z"/>
	<path class="st0" d="M187.5,65.6c1.7-1.4,2-3.9,0.6-5.6c0,0,0,0,0,0c-0.8-1-2-1.5-3.1-1.5c-0.9,0-1.8,0.3-2.5,0.9
		c-1.7,1.4-2,3.9-0.6,5.6C183.2,66.7,185.8,67,187.5,65.6z"/>
	<path class="st0" d="M227.3,88.8c-1.6,0-3.2,1-3.8,2.6c-0.8,2.1,0.3,4.4,2.4,5.1c2.1,0.8,4.4-0.3,5.1-2.4s-0.3-4.4-2.4-5.1
		C228.2,88.9,227.7,88.8,227.3,88.8z"/>
	<path class="st0" d="M165.1,1h-2.1c0.3,0.1,0.6,0.1,0.9,0.2C164.2,1.2,164.7,1.1,165.1,1z"/>
	<path class="st0" d="M171.8,49.8c1,1.9,3.5,2.7,5.4,1.6c1.9-1,2.7-3.5,1.6-5.4c-0.7-1.4-2.1-2.1-3.5-2.1c-0.6,0-1.3,0.2-1.9,0.5
		C171.5,45.4,170.7,47.9,171.8,49.8z"/>
	<path class="st0" d="M197.2,71.1c-1.1,0-2.2,0.5-3,1.4c-1.4,1.7-1.3,4.2,0.4,5.6c1.7,1.4,4.2,1.3,5.6-0.4c1.4-1.7,1.3-4.2-0.4-5.6
		C199,71.5,198.1,71.1,197.2,71.1z"/>
	<path class="st0" d="M167.2,28c-2.1,0.7-3.3,2.9-2.6,5c0.7,2.1,2.9,3.3,5,2.6c2.1-0.7,3.3-2.9,2.6-5c-0.5-1.7-2.1-2.8-3.8-2.8
		C168,27.8,167.6,27.8,167.2,28z"/>
	<path class="st0" d="M165.2,18.6c2.2-0.3,3.7-2.3,3.5-4.5c-0.3-2-2-3.5-4-3.5c-0.2,0-0.3,0-0.5,0c-2.2,0.3-3.7,2.3-3.5,4.5
		C161,17.4,163,18.9,165.2,18.6z"/>
	<path class="st0" d="M147.3,30.5c-2.1,0.6-3.4,2.8-2.8,4.9c0.6,2.1,2.8,3.4,4.9,2.8c2.1-0.6,3.4-2.8,2.8-4.9
		c-0.5-1.8-2.1-2.9-3.8-2.9C148.1,30.3,147.7,30.4,147.3,30.5z"/>
	<path class="st0" d="M234.7,111.5C234.7,111.5,234.7,111.5,234.7,111.5c-0.3-0.1-0.6-0.1-0.9-0.1c-1.8,0-3.5,1.3-3.9,3.1
		c-0.5,2.1,0.8,4.3,3,4.8c2.1,0.5,4.3-0.8,4.8-3C238.2,114.2,236.8,112,234.7,111.5z"/>
	<path class="st0" d="M145.4,21c2.2-0.3,3.8-2.3,3.5-4.5c-0.3-2-2-3.5-4-3.5c-0.2,0-0.3,0-0.5,0c-2.2,0.3-3.7,2.3-3.5,4.5
		C141.2,19.8,143.2,21.3,145.4,21z"/>
	<path class="st0" d="M189.8,94.9c1.4-1.7,1.2-4.2-0.6-5.6c-0.8-0.6-1.6-0.9-2.5-0.9c-1.2,0-2.3,0.5-3.1,1.5
		c-1.4,1.7-1.1,4.2,0.6,5.6h0C185.9,96.8,188.4,96.6,189.8,94.9z"/>
	<path class="st0" d="M176.6,83.2c1.6-1.5,1.8-4,0.3-5.7c0,0,0,0,0,0c-0.8-0.9-1.9-1.3-3-1.3c-1,0-1.9,0.3-2.7,1
		c-1.6,1.5-1.8,4-0.3,5.6C172.4,84.5,175,84.6,176.6,83.2z"/>
	<path class="st0" d="M218.5,106.4c-0.5-0.2-1-0.3-1.5-0.3c-1.6,0-3.1,1-3.7,2.5c-0.8,2,0.2,4.4,2.2,5.2c2.1,0.8,4.4-0.2,5.2-2.2
		C221.5,109.6,220.5,107.3,218.5,106.4z"/>
	<path class="st0" d="M150.9,52.5c0.9,2,3.3,2.9,5.3,2c2-0.9,2.9-3.3,2-5.3c-0.7-1.5-2.1-2.3-3.6-2.3c-0.6,0-1.1,0.1-1.7,0.4
		C150.9,48.2,150,50.5,150.9,52.5z"/>
	<path class="st0" d="M197.7,100.4c-1.1,1.9-0.5,4.4,1.4,5.5c1.9,1.1,4.4,0.5,5.5-1.4c1.1-1.9,0.5-4.4-1.4-5.5
		c-0.6-0.4-1.3-0.6-2-0.6C199.8,98.4,198.4,99.1,197.7,100.4z"/>
	<path class="st0" d="M143.9,3.5c1.7,0,3.2-1,3.8-2.5h-7.4C140.9,2.4,142.3,3.4,143.9,3.5z"/>
	<path class="st0" d="M165.3,69.6c1.8-1.2,2.3-3.7,1.1-5.5c-0.8-1.2-2-1.8-3.3-1.8c-0.8,0-1.5,0.2-2.2,0.7c-1.8,1.2-2.3,3.7-1.1,5.5
		C161,70.3,163.5,70.8,165.3,69.6z"/>
	<path class="st0" d="M251.2,114.1c-2.1,0-3.8,1.6-4,3.7c-0.1,0.9,0.2,1.8,0.7,2.5c1.8-0.2,3.7-0.4,5.6-0.6v-4.9
		c-0.6-0.4-1.2-0.7-2-0.7C251.4,114.1,251.3,114.1,251.2,114.1z"/>
	<path class="st0" d="M193.2,116.2c-0.6-0.4-1.3-0.5-2-0.5c-1.4,0-2.7,0.7-3.5,2c-1.1,1.9-0.5,4.4,1.4,5.5v0
		c1.9,1.1,4.4,0.5,5.5-1.4C195.8,119.8,195.1,117.3,193.2,116.2z"/>
	<path class="st0" d="M129.6,40.9c2.1-0.6,3.4-2.8,2.8-4.9c-0.5-1.8-2.1-3-3.9-3c-0.3,0-0.7,0-1,0.1c-2.1,0.6-3.4,2.8-2.8,4.9
		C125.2,40.2,127.4,41.5,129.6,40.9z"/>
	<path class="st0" d="M166.1,100.8c1.6-1.5,1.6-4.1,0-5.7c-0.8-0.8-1.8-1.2-2.8-1.2c-1,0-2,0.4-2.8,1.2c-1.6,1.6-1.6,4.1,0,5.7
		S164.5,102.3,166.1,100.8z"/>
	<path class="st0" d="M151.7,80.5c-0.8,0-1.7,0.3-2.4,0.8c-1.8,1.3-2.1,3.9-0.8,5.6c1.3,1.8,3.9,2.1,5.6,0.8
		c1.8-1.3,2.1-3.9,0.8-5.6C154.1,81.1,152.9,80.5,151.7,80.5z"/>
	<path class="st0" d="M138.4,71.8c1.1,1.9,3.5,2.6,5.5,1.5c1.9-1.1,2.6-3.5,1.5-5.5c-0.7-1.3-2.1-2-3.5-2c-0.7,0-1.3,0.2-2,0.5
		C138,67.4,137.3,69.8,138.4,71.8z"/>
	<path class="st0" d="M208.6,123.9c-0.5-0.2-1-0.3-1.5-0.3c-1.6,0-3,0.9-3.7,2.4c-0.9,2,0.1,4.4,2.1,5.2c2,0.9,4.4-0.1,5.2-2.1
		C211.6,127.1,210.6,124.8,208.6,123.9z"/>
	<path class="st0" d="M130.5,55.4c0.8,2,3.2,3,5.2,2.2c2-0.8,3-3.2,2.2-5.2c-0.6-1.6-2.1-2.5-3.7-2.5c-0.5,0-1,0.1-1.5,0.3
		C130.6,51,129.6,53.3,130.5,55.4z"/>
	<path class="st0" d="M176.5,105.7c-1.2,0-2.4,0.5-3.2,1.5c-1.4,1.7-1,4.3,0.7,5.6c1.7,1.4,4.3,1.1,5.6-0.7c1.4-1.7,1-4.3-0.7-5.6
		C178.3,106,177.4,105.7,176.5,105.7z"/>
	<path class="st0" d="M125.7,23.7c2.2-0.3,3.7-2.3,3.5-4.5c-0.2-1.5-1.1-2.6-2.4-3.2c-0.5,2.6-1.1,5.2-1.9,7.7
		C125.1,23.7,125.4,23.7,125.7,23.7z"/>
	<path class="st0" d="M127.8,3.5c0.2-0.5,0.3-1,0.3-1.5c0-0.4-0.1-0.7-0.1-1h-0.2C127.7,1.8,127.8,2.7,127.8,3.5z"/>
	<path class="st0" d="M169.9,129.6c1.3-1.8,1-4.3-0.8-5.6c-0.7-0.5-1.6-0.8-2.4-0.8c-1.2,0-2.4,0.5-3.2,1.6c-1.3,1.8-1,4.3,0.8,5.6
		C166,131.7,168.6,131.4,169.9,129.6z"/>
	<path class="st0" d="M115.4,60.7c2.1-0.8,3.1-3.1,2.3-5.1c-0.6-1.6-2.1-2.6-3.8-2.6c-0.5,0-0.9,0.1-1.4,0.2
		c-2.1,0.8-3.1,3.1-2.3,5.1C111,60.4,113.3,61.5,115.4,60.7z"/>
	<path class="st0" d="M117.6,75c1,2,3.4,2.8,5.4,1.8c2-1,2.8-3.4,1.8-5.4c-0.7-1.4-2.1-2.2-3.6-2.2c-0.6,0-1.2,0.1-1.8,0.4
		C117.4,70.7,116.6,73.1,117.6,75z"/>
	<path class="st0" d="M183.5,133.6c-0.6-0.4-1.3-0.5-2-0.5c-1.4,0-2.7,0.7-3.5,2c-1.1,1.9-0.5,4.4,1.4,5.5c1.9,1.1,4.4,0.5,5.5-1.4
		C186.1,137.2,185.4,134.7,183.5,133.6z"/>
	<path class="st0" d="M156,118.5c1.5-1.6,1.5-4.1-0.2-5.6c-0.8-0.7-1.8-1.1-2.7-1.1c-1.1,0-2.1,0.4-2.9,1.2
		c-1.5,1.6-1.5,4.1,0.2,5.7h0C151.9,120.2,154.5,120.1,156,118.5z"/>
	<path class="st0" d="M143.4,105.9c1.7-1.4,1.9-3.9,0.5-5.6c-0.8-0.9-1.9-1.4-3.1-1.4c-0.9,0-1.8,0.3-2.6,0.9
		c-1.7,1.4-1.9,3.9-0.5,5.6C139.2,107.1,141.7,107.3,143.4,105.9z"/>
	<path class="st0" d="M199.7,141.9c-0.2-0.2-0.5-0.3-0.7-0.4c-0.5-0.2-1.1-0.3-1.6-0.3c-1.5,0-3,0.9-3.7,2.4
		c-0.5,1.3-0.4,2.6,0.3,3.7C195.8,145.4,197.7,143.6,199.7,141.9z"/>
	<path class="st0" d="M132.4,91.9c1.8-1.2,2.3-3.7,1.1-5.5c-0.8-1.2-2-1.8-3.3-1.8c-0.8,0-1.5,0.2-2.2,0.7c-1.8,1.2-2.3,3.7-1.1,5.5
		C128,92.6,130.5,93.1,132.4,91.9z"/>
	<path class="st0" d="M174.1,151.1c-0.6-0.4-1.3-0.5-2-0.5c-1.4,0-2.7,0.7-3.5,2c-1.1,1.9-0.5,4.4,1.5,5.5c1.9,1.1,4.4,0.5,5.5-1.5
		C176.7,154.7,176,152.2,174.1,151.1z"/>
	<path class="st0" d="M111.1,95.9c1.9-1.1,2.5-3.6,1.4-5.5c-0.8-1.2-2.1-1.9-3.4-1.9c-0.7,0-1.4,0.2-2,0.6c-1.9,1.1-2.5,3.6-1.4,5.5
		C106.8,96.4,109.2,97,111.1,95.9z"/>
	<path class="st0" d="M102.4,80.3c2-0.9,2.9-3.3,1.9-5.3c-0.7-1.5-2.1-2.3-3.6-2.3c-0.6,0-1.1,0.1-1.7,0.4c-2,0.9-2.9,3.3-1.9,5.3
		C98,80.4,100.4,81.2,102.4,80.3z"/>
	<path class="st0" d="M133.1,124.1c1.6-1.5,1.7-4,0.2-5.6c-0.8-0.9-1.9-1.3-2.9-1.3c-1,0-1.9,0.4-2.7,1.1c-1.6,1.5-1.7,4-0.2,5.6
		C129,125.4,131.5,125.5,133.1,124.1z"/>
	<path class="st0" d="M160.4,147.2c1.3-1.8,0.9-4.3-0.9-5.6c-0.7-0.5-1.5-0.8-2.3-0.8c-1.2,0-2.5,0.6-3.2,1.7
		c-1.3,1.8-0.9,4.3,0.9,5.6C156.5,149.4,159,149,160.4,147.2z"/>
	<path class="st0" d="M121.4,110.5c1.8-1.3,2.1-3.8,0.8-5.6c-0.8-1-2-1.6-3.2-1.6c-0.8,0-1.7,0.3-2.4,0.8c-1.8,1.3-2.1,3.8-0.8,5.6
		C117.1,111.5,119.7,111.9,121.4,110.5z"/>
	<path class="st0" d="M95.3,63.9c2.1-0.7,3.2-3,2.5-5.1c0-0.1-0.1-0.2-0.1-0.3c-2.3,1.4-4.6,2.6-7,3.7
		C91.6,63.8,93.5,64.5,95.3,63.9z"/>
	<path class="st0" d="M145.8,130.7c-0.8-0.7-1.7-1-2.7-1c-1.1,0-2.2,0.5-3,1.3c-1.5,1.6-1.3,4.2,0.3,5.6c1.7,1.5,4.2,1.3,5.7-0.3
		C147.6,134.7,147.5,132.1,145.8,130.7z"/>
	<path class="st0" d="M75.4,67.2c0.4-0.1,0.7-0.3,1-0.5c-1.1,0.2-2.2,0.4-3.3,0.5C73.7,67.5,74.6,67.5,75.4,67.2z"/>
	<path class="st0" d="M84.9,98.3c1.1,1.9,3.5,2.6,5.4,1.6c1.9-1.1,2.6-3.5,1.6-5.4c-0.7-1.3-2.1-2.1-3.5-2.1c-0.7,0-1.3,0.1-1.9,0.5
		C84.5,93.9,83.8,96.4,84.9,98.3z"/>
	<path class="st0" d="M100,115c1.8-1.2,2.3-3.7,1.1-5.6c0,0,0,0,0,0c-0.8-1.1-2-1.8-3.3-1.8c-0.8,0-1.5,0.2-2.2,0.7
		c-1.8,1.2-2.3,3.7-1.1,5.5C95.7,115.8,98.1,116.3,100,115z"/>
	<path class="st0" d="M120.5,135.5c-1,0-2,0.4-2.8,1.1c-1.6,1.5-1.6,4.1,0,5.6c1.5,1.6,4.1,1.6,5.7,0.1c1.6-1.6,1.6-4.1,0-5.7
		C122.5,135.9,121.5,135.5,120.5,135.5z"/>
	<path class="st0" d="M82.1,83.9c2-0.9,3-3.2,2.1-5.3c-0.7-1.5-2.1-2.4-3.7-2.4c-0.5,0-1.1,0.1-1.6,0.3c-2,0.9-3,3.2-2.1,5.3
		C77.7,83.9,80,84.8,82.1,83.9z"/>
	<path class="st0" d="M150.2,159.4c-0.7-0.5-1.5-0.7-2.3-0.7c-1.3,0-2.5,0.6-3.3,1.7c-1.3,1.8-0.8,4.3,1,5.6c1.8,1.3,4.3,0.8,5.6-1
		C152.4,163.2,152,160.7,150.2,159.4z"/>
	<path class="st0" d="M108.5,122.1c-0.9,0-1.8,0.3-2.5,0.9c-1.7,1.4-2,3.9-0.6,5.6c1.4,1.7,3.9,2,5.6,0.6c1.7-1.4,2-3.9,0.6-5.6
		C110.8,122.6,109.6,122.1,108.5,122.1z"/>
	<path class="st0" d="M133.6,147.7c-1.1,0-2.3,0.5-3.1,1.4c-1.4,1.7-1.2,4.2,0.5,5.6c1.7,1.4,4.2,1.2,5.6-0.5
		c1.4-1.7,1.2-4.2-0.5-5.6C135.5,148,134.5,147.7,133.6,147.7z"/>
	<path class="st0" d="M165,168.9c-0.6-0.4-1.3-0.5-2-0.5c-1.4,0-2.7,0.7-3.5,2c-1.1,1.9-0.4,4.4,1.5,5.5c1.9,1.1,4.4,0.4,5.5-1.5
		C167.6,172.4,166.9,170,165,168.9z"/>
	<path class="st1" d="M64.4,67.9c2.9,0,5.8-0.2,8.6-0.6c-1.2-0.4-2.3-1.3-2.7-2.6c-0.7-2.1,0.5-4.4,2.6-5c0.4-0.1,0.8-0.2,1.2-0.2
		c1.7,0,3.2,1.1,3.8,2.8c0.6,1.7-0.1,3.6-1.6,4.5c5-0.9,9.8-2.5,14.3-4.5c-0.2-0.2-0.3-0.5-0.4-0.8c-0.7-2.1,0.4-4.4,2.5-5.1
		c0.4-0.1,0.9-0.2,1.3-0.2c1.6,0,3,0.9,3.6,2.4c12.8-7.9,22.6-20.2,27.2-34.8c-1.8-0.2-3.4-1.6-3.6-3.5c-0.3-2.2,1.3-4.2,3.5-4.5
		c0.2,0,0.3,0,0.5,0c0.5,0,1.1,0.1,1.6,0.3c0.7-3.7,1.1-7.6,1.1-11.5c0-0.3,0-0.6,0-1c-0.6,1.5-2,2.5-3.7,2.5c-2.2,0-4-1.8-4-4
		c0-0.4,0.1-0.7,0.1-1h-14.5c1.4,0.6,2.5,2,2.5,3.7c0,2.2-1.7,4-3.9,4.1c-2.2,0-4-1.7-4.1-3.9c0-1.7,1-3.2,2.5-3.8H1.1
		C1,2.1,1,3.3,1,4.5C1,39.5,29.4,67.9,64.4,67.9z M112.6,39c0.5,2.1-0.8,4.3-2.9,4.8c-2.1,0.5-4.3-0.8-4.8-2.9
		c-0.5-2.1,0.8-4.3,2.9-4.9c0.3-0.1,0.6-0.1,1-0.1C110.5,35.9,112.2,37.2,112.6,39z M105,18.5c0.2,0,0.3,0,0.5,0c2,0,3.7,1.5,4,3.5
		c0.3,2.2-1.3,4.2-3.5,4.5c-2.2,0.3-4.2-1.3-4.5-3.5C101.2,20.8,102.8,18.8,105,18.5z M92.9,42c0.5,2.1-0.8,4.3-3,4.8
		c-2.2,0.5-4.3-0.8-4.8-3c-0.5-2.1,0.8-4.3,3-4.8c0.3-0.1,0.6-0.1,0.9-0.1C90.8,38.9,92.5,40.2,92.9,42z M89.7,24.8
		c0.3,2.2-1.3,4.2-3.5,4.5c-2.2,0.3-4.2-1.3-4.5-3.4h0c-0.3-2.2,1.2-4.2,3.4-4.5c0.2,0,0.4,0,0.5,0C87.8,21.3,89.5,22.8,89.7,24.8z
		 M84.2,3.5c0,0,0.1,0,0.1,0c2.2,0,3.9,1.7,4,3.9c0.1,2.2-1.7,4-3.9,4.1c-2.2,0.1-4-1.7-4.1-3.9C80.3,5.4,82,3.6,84.2,3.5z
		 M73.2,45.2c0.5,2.1-0.8,4.3-3,4.8c-2.2,0.5-4.3-0.9-4.8-3c-0.5-2.2,0.9-4.3,3-4.8c0.3-0.1,0.6-0.1,0.9-0.1
		C71.1,42.1,72.8,43.4,73.2,45.2z M70.1,27.9c0.3,2.2-1.2,4.2-3.4,4.5c-2.2,0.3-4.2-1.2-4.5-3.4c-0.3-2.2,1.2-4.2,3.4-4.5
		c0.2,0,0.4,0,0.5,0C68.1,24.4,69.8,25.9,70.1,27.9z M64.4,6.5c0.1,0,0.1,0,0.2,0c2.1,0,3.9,1.7,4,3.8c0.1,2.2-1.6,4.1-3.8,4.2
		c-2.2,0.1-4.1-1.6-4.2-3.8C60.5,8.5,62.2,6.6,64.4,6.5z"/>
	<path class="st0" d="M124.1,6c1.7,0,3.1-1,3.7-2.5c0-0.8,0-1.7-0.1-2.5h-7.5c-0.1,0.3-0.1,0.7-0.1,1C120.1,4.2,121.9,6,124.1,6z"/>
	<path class="st0" d="M124.7,15.7c-2.2,0.3-3.7,2.3-3.5,4.5c0.2,1.9,1.8,3.3,3.6,3.5c0.8-2.5,1.4-5,1.9-7.7c-0.5-0.2-1-0.3-1.6-0.3
		C125,15.7,124.8,15.7,124.7,15.7z"/>
	<path class="st0" d="M107.8,36c-2.2,0.5-3.5,2.7-2.9,4.9c0.5,2.1,2.7,3.5,4.8,2.9c2.1-0.5,3.5-2.7,2.9-4.8c-0.5-1.8-2.1-3-3.9-3
		C108.4,35.9,108.1,36,107.8,36z"/>
	<path class="st0" d="M100.2,4.7c0,2.2,1.8,4,4.1,3.9c2.2,0,4-1.8,3.9-4.1c0-1.7-1.1-3.1-2.5-3.7h-3C101.2,1.6,100.2,3,100.2,4.7z"
		/>
	<path class="st0" d="M106,26.4c2.2-0.3,3.7-2.3,3.5-4.5c-0.3-2-2-3.5-4-3.5c-0.2,0-0.3,0-0.5,0c-2.2,0.3-3.7,2.3-3.5,4.5
		C101.8,25.1,103.8,26.7,106,26.4z"/>
	<path class="st0" d="M88.1,39c-2.2,0.5-3.5,2.7-3,4.8c0.5,2.1,2.7,3.5,4.8,3c2.2-0.5,3.5-2.7,3-4.8c-0.4-1.8-2.1-3.1-3.9-3.1
		C88.7,38.9,88.4,39,88.1,39z"/>
	<path class="st0" d="M84.5,11.5c2.2-0.1,4-1.9,3.9-4.1c-0.1-2.2-1.8-3.9-4-3.9c0,0-0.1,0-0.1,0c-2.2,0.1-3.9,1.9-3.9,4.1
		C80.4,9.8,82.3,11.6,84.5,11.5z"/>
	<path class="st0" d="M94,56.1c-0.4,0-0.9,0.1-1.3,0.2c-2.1,0.7-3.2,3-2.5,5.1c0.1,0.3,0.2,0.5,0.4,0.8c2.4-1.1,4.8-2.3,7-3.7
		C97,57,95.5,56.1,94,56.1z"/>
	<path class="st0" d="M85.2,21.4c-2.2,0.3-3.7,2.3-3.4,4.5h0c0.3,2.2,2.3,3.7,4.5,3.4c2.2-0.3,3.7-2.3,3.5-4.5c-0.3-2-2-3.5-4-3.5
		C85.6,21.3,85.4,21.4,85.2,21.4z"/>
	<path class="st0" d="M65.6,24.5c-2.2,0.3-3.7,2.3-3.4,4.5c0.3,2.2,2.3,3.7,4.5,3.4c2.2-0.3,3.7-2.3,3.4-4.5c-0.3-2-2-3.5-4-3.5
		C65.9,24.4,65.8,24.5,65.6,24.5z"/>
	<path class="st0" d="M68.4,42.2c-2.2,0.5-3.5,2.6-3,4.8c0.5,2.1,2.6,3.5,4.8,3c2.2-0.5,3.5-2.6,3-4.8c-0.4-1.9-2.1-3.1-3.9-3.1
		C69,42.1,68.7,42.2,68.4,42.2z"/>
	<path class="st0" d="M77.9,62.2c-0.5-1.7-2.1-2.8-3.8-2.8c-0.4,0-0.8,0.1-1.2,0.2c-2.1,0.7-3.2,3-2.6,5c0.4,1.3,1.5,2.2,2.7,2.6
		c1.1-0.2,2.2-0.3,3.3-0.5C77.8,65.8,78.5,63.9,77.9,62.2z"/>
	<path class="st0" d="M64.7,14.5c2.2-0.1,3.9-2,3.8-4.2c-0.1-2.2-1.9-3.8-4-3.8c-0.1,0-0.1,0-0.2,0c-2.2,0.1-3.9,2-3.8,4.2
		C60.6,12.9,62.5,14.6,64.7,14.5z"/>
	<path class="st2" d="M247.9,120.3c-18.3,2.4-34.9,10.1-48.2,21.6c1.5,1.1,2.1,3.1,1.3,4.9c-0.9,2-3.2,2.9-5.3,2
		c-0.8-0.3-1.4-0.9-1.8-1.5c-16.4,16.7-26.5,39.5-26.5,64.8c0,48.9,37.9,88.9,86,92.3V178.7c0-0.2-0.1-0.5-0.1-0.7
		c0-0.2,0-0.4,0.1-0.5v-56.2c-0.7,0.5-1.6,0.8-2.6,0.7C249.6,122,248.6,121.3,247.9,120.3z M182.7,182.2c-0.9,2-3.3,2.9-5.3,2
		c-2-0.9-2.9-3.3-2-5.3c0.7-1.5,2.1-2.3,3.6-2.3c0.5,0,1.1,0.1,1.7,0.4c0,0,0,0,0,0C182.7,177.8,183.6,180.2,182.7,182.2z
		 M186.4,166.4c-2-0.9-2.9-3.3-2-5.3c0.7-1.5,2.1-2.4,3.7-2.4c0.5,0,1.1,0.1,1.6,0.4c2,0.9,2.9,3.3,2,5.3
		C190.8,166.4,188.4,167.3,186.4,166.4z M199.5,188.5c-0.7,2.1-3,3.2-5.1,2.5c-2.1-0.7-3.2-3-2.5-5.1c0.6-1.6,2.1-2.7,3.8-2.7
		c0.4,0,0.9,0.1,1.3,0.2C199.1,184.1,200.2,186.4,199.5,188.5z M208.5,170.5c-0.7,2.1-3,3.2-5,2.5c-2.1-0.7-3.2-3-2.5-5.1
		c0.5-1.7,2.1-2.8,3.8-2.8c0.4,0,0.8,0.1,1.2,0.2C208.1,166.1,209.2,168.4,208.5,170.5z M216.8,193.2c-0.5,2.1-2.7,3.5-4.8,2.9
		c-2.2-0.5-3.5-2.7-2.9-4.8c0.4-1.8,2.1-3,3.9-3c0.3,0,0.6,0,1,0.1C216,188.9,217.4,191.1,216.8,193.2z M212.9,155.1
		c-2.1-0.7-3.3-2.9-2.7-5c0.5-1.7,2.1-2.8,3.8-2.8c0.4,0,0.8,0.1,1.2,0.2c2.1,0.6,3.3,2.9,2.7,5C217.2,154.6,215,155.8,212.9,155.1z
		 M225.9,174.8c-0.5,2.2-2.6,3.5-4.8,3.1c-2.2-0.5-3.5-2.6-3-4.8c0.4-1.9,2.1-3.1,3.9-3.1c0.3,0,0.6,0,0.9,0.1
		C225,170.5,226.3,172.7,225.9,174.8z M222.7,137.3c-2.1-0.6-3.4-2.8-2.8-4.9c0.5-1.8,2.1-2.9,3.8-2.9c0.4,0,0.7,0,1.1,0.1
		c2.1,0.6,3.4,2.8,2.8,4.9C227,136.6,224.8,137.8,222.7,137.3z M234.5,196.4c-0.3,2.2-2.4,3.7-4.5,3.4h0c-2.2-0.3-3.7-2.4-3.3-4.6
		c0.3-2,2-3.4,4-3.4c0.2,0,0.4,0,0.6,0C233.4,192.2,234.9,194.2,234.5,196.4z M235.3,156.3c-0.4,2.2-2.5,3.6-4.7,3.2
		c-2.2-0.4-3.6-2.5-3.2-4.7c0.4-1.9,2-3.3,3.9-3.3c0.2,0,0.5,0,0.7,0.1C234.2,152,235.7,154.1,235.3,156.3z M243.6,177.4
		c-0.2,2.2-2.2,3.8-4.4,3.5c-2.2-0.3-3.8-2.2-3.5-4.4c0.2-2,2-3.5,4-3.5c0.2,0,0.3,0,0.5,0C242.2,173.2,243.8,175.2,243.6,177.4z
		 M240.5,141c-2.2-0.3-3.7-2.3-3.4-4.5c0.3-2,2-3.5,4-3.5c0.2,0,0.4,0,0.6,0c2.2,0.3,3.7,2.3,3.4,4.5
		C244.8,139.7,242.7,141.2,240.5,141z M248.2,201.7c-2.2-0.1-3.9-2-3.8-4.2c0.1-2.1,1.9-3.8,4-3.8c0.1,0,0.2,0,0.2,0
		c2.2,0.1,3.9,2,3.8,4.2S250.4,201.8,248.2,201.7z M253,158.1c-0.2,2.2-2.1,3.9-4.3,3.7c-2.2-0.2-3.9-2.1-3.7-4.3
		c0.2-2.1,1.9-3.7,4-3.7c0.1,0,0.2,0,0.3,0C251.5,154,253.2,155.9,253,158.1z"/>
	<path class="st0" d="M247.9,120.3c0.7,1,1.7,1.7,3,1.8c1,0.1,1.9-0.2,2.6-0.7v-1.6C251.6,119.8,249.8,120,247.9,120.3z"/>
	<path class="st0" d="M241.6,133c-0.2,0-0.4,0-0.6,0c-2,0-3.7,1.5-4,3.5c-0.3,2.2,1.2,4.2,3.4,4.5c2.2,0.3,4.2-1.2,4.5-3.4
		C245.4,135.4,243.8,133.3,241.6,133z"/>
	<path class="st0" d="M224.8,129.5c-0.4-0.1-0.7-0.1-1.1-0.1c-1.8,0-3.4,1.2-3.8,2.9c-0.6,2.1,0.7,4.3,2.8,4.9
		c2.1,0.6,4.3-0.7,4.9-2.8C228.2,132.3,226.9,130.1,224.8,129.5z"/>
	<path class="st0" d="M195.8,148.8c2,0.9,4.4,0,5.3-2c0.8-1.8,0.2-3.8-1.3-4.9c-2,1.7-3.9,3.5-5.7,5.4
		C194.4,147.9,195,148.4,195.8,148.8z"/>
	<path class="st0" d="M232.1,151.6c-0.2,0-0.5-0.1-0.7-0.1c-1.9,0-3.6,1.3-3.9,3.3c-0.4,2.2,1,4.2,3.2,4.7c2.2,0.4,4.3-1,4.7-3.2
		C235.7,154.1,234.2,152,232.1,151.6z"/>
	<path class="st0" d="M249,153.8c-2.1,0-3.8,1.6-4,3.7c-0.1,2.2,1.5,4.1,3.7,4.3c2.2,0.1,4.1-1.5,4.3-3.7c0.2-2.2-1.5-4.1-3.7-4.3
		C249.2,153.8,249.1,153.8,249,153.8z"/>
	<path class="st0" d="M215.2,147.5c-0.4-0.1-0.8-0.2-1.2-0.2c-1.7,0-3.3,1.1-3.8,2.8c-0.7,2.1,0.5,4.3,2.7,5c2.1,0.6,4.3-0.5,5-2.7
		C218.5,150.4,217.4,148.1,215.2,147.5z"/>
	<path class="st0" d="M222.8,170.1c-0.3-0.1-0.6-0.1-0.9-0.1c-1.8,0-3.5,1.3-3.9,3.1c-0.5,2.2,0.9,4.3,3,4.8
		c2.2,0.5,4.3-0.9,4.8-3.1C226.3,172.7,225,170.5,222.8,170.1z"/>
	<path class="st0" d="M189.7,159.1c-0.5-0.2-1.1-0.4-1.6-0.4c-1.5,0-3,0.9-3.7,2.4c-0.9,2,0,4.4,2,5.3c2,0.9,4.4,0,5.3-2
		C192.6,162.4,191.7,160,189.7,159.1z"/>
	<path class="st0" d="M240,172.9c-0.2,0-0.3,0-0.5,0c-2,0-3.7,1.5-4,3.5c-0.3,2.2,1.3,4.2,3.5,4.4c2.2,0.2,4.2-1.3,4.4-3.5
		C243.8,175.2,242.2,173.2,240,172.9z"/>
	<path class="st0" d="M206,165.4c-0.4-0.1-0.8-0.2-1.2-0.2c-1.7,0-3.2,1.1-3.8,2.8c-0.7,2.1,0.4,4.4,2.5,5.1c2.1,0.7,4.4-0.4,5-2.5
		C209.2,168.4,208.1,166.1,206,165.4z"/>
	<path class="st0" d="M253.5,178.7v-1.2c0,0.2-0.1,0.3-0.1,0.5C253.4,178.3,253.5,178.5,253.5,178.7z"/>
	<path class="st0" d="M248.7,193.7c-0.1,0-0.2,0-0.2,0c-2.1,0-3.9,1.6-4,3.8c-0.1,2.2,1.6,4.1,3.8,4.2c2.2,0.1,4.1-1.6,4.2-3.8
		S250.9,193.8,248.7,193.7z"/>
	<path class="st0" d="M180.7,176.9C180.7,176.9,180.7,176.9,180.7,176.9c-0.5-0.2-1.1-0.4-1.7-0.4c-1.5,0-3,0.9-3.6,2.3
		c-0.9,2,0,4.4,2,5.3c2,0.9,4.4,0,5.3-2C183.6,180.2,182.7,177.8,180.7,176.9z"/>
	<path class="st0" d="M213.9,188.4c-0.3-0.1-0.6-0.1-1-0.1c-1.8,0-3.4,1.2-3.9,3c-0.5,2.1,0.8,4.3,2.9,4.8c2.1,0.5,4.3-0.8,4.8-2.9
		C217.4,191.1,216,188.9,213.9,188.4z"/>
	<path class="st0" d="M197,183.4c-0.4-0.2-0.9-0.2-1.3-0.2c-1.7,0-3.2,1-3.8,2.7c-0.7,2.1,0.4,4.4,2.5,5.1c2.1,0.7,4.4-0.4,5.1-2.5
		C200.2,186.4,199.1,184.1,197,183.4z"/>
	<path class="st0" d="M231.2,191.8c-0.2,0-0.4,0-0.6,0c-2,0-3.7,1.4-4,3.4c-0.3,2.2,1.2,4.2,3.3,4.6h0c2.2,0.3,4.2-1.2,4.5-3.4
		C234.9,194.2,233.4,192.2,231.2,191.8z"/>
</g>
</svg>
