<?xml version="1.0" encoding="utf-8"?>
<!-- Generator: Adobe Illustrator 21.1.0, SVG Export Plug-In . SVG Version: 6.00 Build 0)  -->
<svg version="1.1" id="Layer_1" xmlns="http://www.w3.org/2000/svg" xmlns:xlink="http://www.w3.org/1999/xlink" x="0px" y="0px"
	 viewBox="0 0 254.2 306.2" style="enable-background:new 0 0 254.2 306.2;" xml:space="preserve">
<style type="text/css">
	.st0{fill:#5FC3E2;}
	.st1{fill:#F1ECEC;}
	.st2{fill:#2466CC;}
</style>
<g>
	<path class="st0" d="M-0.3,270.7v-1.4C-0.4,269.8-0.4,270.2-0.3,270.7z"/>
	<path class="st0" d="M-0.3,185.9c-0.9,0.7-1.6,1.7-1.7,3c-0.1,1.5,0.6,2.8,1.7,3.6v-4.9V185.9z"/>
	<path class="st0" d="M125.3,306.3c0.4,1.7,2,3,3.8,3c0,0,0,0,0,0c1.9,0,3.4-1.3,3.9-3h-7.5H125.3z"/>
	<path class="st0" d="M149,306.6C149,306.6,149.1,306.6,149,306.6c0.6,0,1-0.1,1.5-0.3h-3C148,306.5,148.5,306.6,149,306.6z"/>
	<path class="st0" d="M5.6,293.3c-1.9,1.1-2.6,3.5-1.5,5.5c0.7,1.3,2.1,2,3.5,2c0.7,0,1.4-0.2,2-0.5c1.9-1.1,2.6-3.5,1.5-5.5
		C10,292.8,7.5,292.2,5.6,293.3z"/>
	<path class="st0" d="M2.5,273.8c0.4,0.1,0.8,0.2,1.1,0.2c1.7,0,3.3-1.1,3.8-2.9c0.6-2.1-0.6-4.4-2.7-5c-2.1-0.6-4.3,0.6-5,2.7
		c0,0.2-0.1,0.3-0.1,0.5v1.4C0,272.1,1,273.4,2.5,273.8z"/>
	<path class="st0" d="M15.6,275.8c-1.5,1.6-1.5,4.1,0.1,5.7c0.8,0.7,1.8,1.1,2.8,1.1c1,0,2.1-0.4,2.9-1.2c1.5-1.6,1.5-4.1-0.1-5.7
		C19.6,274.2,17.1,274.3,15.6,275.8z"/>
	<path class="st0" d="M28.2,306.3h2c-0.1,0-0.2-0.1-0.4-0.1C29.3,306.1,28.7,306.1,28.2,306.3z"/>
	<path class="st0" d="M26.4,289.3c-2.1,0.7-3.2,3-2.5,5.1c0.6,1.7,2.1,2.7,3.8,2.7c0.4,0,0.9-0.1,1.3-0.2c2.1-0.7,3.2-3,2.5-5.1
		C30.7,289.7,28.5,288.6,26.4,289.3z"/>
	<path class="st0" d="M-0.3,246.6v4.1c0.3-0.5,0.5-1.1,0.6-1.8C0.3,248,0.1,247.3-0.3,246.6z"/>
	<path class="st0" d="M43.3,271.3c-1.2-1.8-3.7-2.3-5.5-1.1s-2.3,3.7-1.1,5.5c0.8,1.1,2,1.8,3.3,1.8c0.8,0,1.5-0.2,2.2-0.7
		C44.1,275.6,44.5,273.1,43.3,271.3z"/>
	<path class="st0" d="M30.7,257.7c-1.7-1.4-4.2-1.1-5.6,0.6c-1.4,1.7-1.1,4.2,0.6,5.6c0.7,0.6,1.6,0.9,2.5,0.9
		c1.2,0,2.3-0.5,3.1-1.5C32.8,261.6,32.5,259,30.7,257.7z"/>
	<path class="st0" d="M46.2,285.4c-2.1,0.6-3.4,2.8-2.7,5c0,0,0,0,0,0c0.5,1.8,2.1,2.9,3.8,2.9c0.4,0,0.8-0.1,1.1-0.2
		c2.1-0.6,3.3-2.8,2.7-5C50.5,286,48.3,284.8,46.2,285.4z"/>
	<path class="st0" d="M49.6,302.4c-2.2-0.1-4,1.7-4.1,3.9h8C53.4,304.2,51.7,302.5,49.6,302.4z"/>
	<path class="st0" d="M17,253.6c0.8-2.1-0.2-4.4-2.3-5.2c-2.1-0.8-4.4,0.2-5.2,2.3c-0.8,2.1,0.2,4.4,2.3,5.2c0.5,0.2,1,0.3,1.4,0.3
		C14.8,256.2,16.3,255.2,17,253.6z"/>
	<path class="st0" d="M2.1,229.1c0.1-1.7-0.9-3.2-2.4-3.9v7.3C1,231.9,2,230.6,2.1,229.1z"/>
	<path class="st0" d="M42.3,246.4c-1.5,1.6-1.4,4.1,0.2,5.6c0.8,0.7,1.8,1.1,2.7,1.1c1.1,0,2.1-0.4,2.9-1.3c1.5-1.6,1.4-4.1-0.2-5.6
		C46.4,244.7,43.9,244.8,42.3,246.4z"/>
	<path class="st0" d="M33.3,235.3c-1.9-1.1-4.4-0.4-5.5,1.5c-1.1,1.9-0.5,4.4,1.5,5.5c0.6,0.4,1.3,0.5,2,0.5c1.4,0,2.7-0.7,3.5-2
		C35.8,238.9,35.2,236.4,33.3,235.3z"/>
	<path class="st0" d="M68.3,290.9c-2.2,0.3-3.7,2.3-3.4,4.5c0.3,2,2,3.5,4,3.5c0.2,0,0.4,0,0.5,0c2.2-0.3,3.7-2.3,3.5-4.5
		C72.5,292.1,70.5,290.6,68.3,290.9z"/>
	<path class="st0" d="M16.4,228.1c-2.1-0.6-4.3,0.6-5,2.7c-0.6,2.1,0.6,4.3,2.7,5c0.4,0.1,0.8,0.2,1.2,0.2c1.7,0,3.3-1.1,3.8-2.8
		C19.7,230.9,18.5,228.7,16.4,228.1z"/>
	<path class="st0" d="M68.3,276.5c-0.8-2.1-3.1-3.1-5.2-2.3c-2.1,0.8-3.1,3.1-2.3,5.1c0.6,1.6,2.1,2.6,3.8,2.6
		c0.5,0,0.9-0.1,1.4-0.2C68,280.9,69.1,278.6,68.3,276.5z"/>
	<path class="st0" d="M59.9,260.2c-1.2-1.8-3.7-2.3-5.6-1.1c-1.8,1.2-2.3,3.7-1.1,5.5c0.8,1.2,2,1.8,3.3,1.8c0.8,0,1.5-0.2,2.2-0.7
		C60.6,264.5,61.1,262,59.9,260.2z"/>
	<path class="st0" d="M9,214c1.9,0,3.6-1.4,3.9-3.3c0.4-2.2-1.1-4.2-3.3-4.6c-2.2-0.4-4.2,1.1-4.6,3.3c-0.4,2.2,1.1,4.2,3.3,4.6
		C8.5,214,8.8,214,9,214z"/>
	<path class="st0" d="M38.4,219.9c-1.1,1.9-0.5,4.4,1.4,5.5c0.6,0.4,1.3,0.5,2,0.5c1.4,0,2.7-0.7,3.5-2c1.1-1.9,0.5-4.4-1.4-5.5
		C41.9,217.3,39.5,218,38.4,219.9z"/>
	<path class="st0" d="M65.7,241.6c-1.7,1.4-2,3.9-0.6,5.6c0,0,0,0,0,0c0.8,1,2,1.5,3.1,1.5c0.9,0,1.8-0.3,2.5-0.9
		c1.7-1.4,2-3.9,0.6-5.6C70,240.5,67.4,240.2,65.7,241.6z"/>
	<path class="st0" d="M25.9,218.5c1.6,0,3.2-1,3.8-2.6c0.8-2.1-0.3-4.4-2.4-5.1c-2.1-0.8-4.4,0.3-5.1,2.4s0.3,4.4,2.4,5.1
		C25,218.4,25.5,218.5,25.9,218.5z"/>
	<path class="st0" d="M88.2,306.3h2.1c-0.3-0.1-0.6-0.1-0.9-0.2C89,306.1,88.6,306.2,88.2,306.3z"/>
	<path class="st0" d="M81.4,257.4c-1-1.9-3.5-2.7-5.4-1.6c-1.9,1-2.7,3.5-1.6,5.4c0.7,1.4,2.1,2.1,3.5,2.1c0.6,0,1.3-0.2,1.9-0.5
		C81.8,261.8,82.5,259.4,81.4,257.4z"/>
	<path class="st0" d="M56.1,236.1c1.1,0,2.2-0.5,3-1.4c1.4-1.7,1.3-4.2-0.4-5.6c-1.7-1.4-4.2-1.3-5.6,0.4c-1.4,1.7-1.3,4.2,0.4,5.6
		C54.2,235.8,55.1,236.1,56.1,236.1z"/>
	<path class="st0" d="M86,279.3c2.1-0.7,3.3-2.9,2.6-5c-0.7-2.1-2.9-3.3-5-2.6c-2.1,0.7-3.3,2.9-2.6,5c0.5,1.7,2.1,2.8,3.8,2.8
		C85.2,279.5,85.6,279.4,86,279.3z"/>
	<path class="st0" d="M88.1,288.6c-2.2,0.3-3.7,2.3-3.5,4.5c0.3,2,2,3.5,4,3.5c0.2,0,0.3,0,0.5,0c2.2-0.3,3.7-2.3,3.5-4.5
		C92.2,289.9,90.2,288.3,88.1,288.6z"/>
	<path class="st0" d="M105.9,276.8c2.1-0.6,3.4-2.8,2.8-4.9c-0.6-2.1-2.8-3.4-4.9-2.8c-2.1,0.6-3.4,2.8-2.8,4.9
		c0.5,1.8,2.1,2.9,3.8,2.9C105.1,276.9,105.5,276.9,105.9,276.8z"/>
	<path class="st0" d="M18.5,195.7C18.5,195.7,18.5,195.7,18.5,195.7c0.3,0.1,0.6,0.1,0.9,0.1c1.8,0,3.5-1.3,3.9-3.1
		c0.5-2.1-0.8-4.3-3-4.8c-2.1-0.5-4.3,0.8-4.8,3C15,193.1,16.4,195.2,18.5,195.7z"/>
	<path class="st0" d="M107.8,286.2c-2.2,0.3-3.8,2.3-3.5,4.5c0.3,2,2,3.5,4,3.5c0.2,0,0.3,0,0.5,0c2.2-0.3,3.7-2.3,3.5-4.5
		C112,287.5,110,285.9,107.8,286.2z"/>
	<path class="st0" d="M63.4,212.4c-1.4,1.7-1.2,4.2,0.6,5.6c0.8,0.6,1.6,0.9,2.5,0.9c1.2,0,2.3-0.5,3.1-1.5c1.4-1.7,1.1-4.2-0.6-5.6
		h0C67.3,210.4,64.8,210.7,63.4,212.4z"/>
	<path class="st0" d="M76.6,224.1c-1.6,1.5-1.8,4-0.3,5.7c0,0,0,0,0,0c0.8,0.9,1.9,1.3,3,1.3c1,0,1.9-0.3,2.7-1
		c1.6-1.5,1.8-4,0.3-5.6C80.8,222.7,78.3,222.6,76.6,224.1z"/>
	<path class="st0" d="M34.8,200.8c0.5,0.2,1,0.3,1.5,0.3c1.6,0,3.1-1,3.7-2.5c0.8-2-0.2-4.4-2.2-5.2c-2.1-0.8-4.4,0.2-5.2,2.2
		C31.7,197.7,32.7,200,34.8,200.8z"/>
	<path class="st0" d="M102.3,254.7c-0.9-2-3.3-2.9-5.3-2c-2,0.9-2.9,3.3-2,5.3c0.7,1.5,2.1,2.3,3.6,2.3c0.6,0,1.1-0.1,1.7-0.4
		C102.3,259.1,103.2,256.7,102.3,254.7z"/>
	<path class="st0" d="M55.5,206.9c1.1-1.9,0.5-4.4-1.4-5.5c-1.9-1.1-4.4-0.5-5.5,1.4c-1.1,1.9-0.5,4.4,1.4,5.5
		c0.6,0.4,1.3,0.6,2,0.6C53.4,208.8,54.8,208.1,55.5,206.9z"/>
	<path class="st0" d="M109.3,303.8c-1.7,0-3.2,1-3.8,2.5h7.4C112.3,304.8,110.9,303.8,109.3,303.8z"/>
	<path class="st0" d="M87.9,237.6c-1.8,1.2-2.3,3.7-1.1,5.5c0.8,1.2,2,1.8,3.3,1.8c0.8,0,1.5-0.2,2.2-0.7c1.8-1.2,2.3-3.7,1.1-5.5
		C92.2,236.9,89.7,236.4,87.9,237.6z"/>
	<path class="st0" d="M2,193.2c2.1,0,3.8-1.6,4-3.7c0.1-0.9-0.2-1.8-0.7-2.5c-1.8,0.2-3.7,0.4-5.6,0.6v4.9c0.6,0.4,1.2,0.7,2,0.7
		C1.8,193.2,1.9,193.2,2,193.2z"/>
	<path class="st0" d="M60,191.1c0.6,0.4,1.3,0.5,2,0.5c1.4,0,2.7-0.7,3.5-2c1.1-1.9,0.5-4.4-1.4-5.5v0c-1.9-1.1-4.4-0.5-5.5,1.4
		C57.5,187.5,58.1,189.9,60,191.1z"/>
	<path class="st0" d="M123.7,266.3c-2.1,0.6-3.4,2.8-2.8,4.9c0.5,1.8,2.1,3,3.9,3c0.3,0,0.7,0,1-0.1c2.1-0.6,3.4-2.8,2.8-4.9
		C128,267,125.8,265.8,123.7,266.3z"/>
	<path class="st0" d="M87.1,206.5c-1.6,1.5-1.6,4.1,0,5.7c0.8,0.8,1.8,1.2,2.8,1.2c1,0,2-0.4,2.8-1.2c1.6-1.6,1.6-4.1,0-5.7
		S88.7,204.9,87.1,206.5z"/>
	<path class="st0" d="M101.5,226.7c0.8,0,1.7-0.3,2.4-0.8c1.8-1.3,2.1-3.9,0.8-5.6c-1.3-1.8-3.9-2.1-5.6-0.8
		c-1.8,1.3-2.1,3.9-0.8,5.6C99.1,226.2,100.3,226.7,101.5,226.7z"/>
	<path class="st0" d="M114.8,235.5c-1.1-1.9-3.5-2.6-5.5-1.5c-1.9,1.1-2.6,3.5-1.5,5.5c0.7,1.3,2.1,2,3.5,2c0.7,0,1.3-0.2,2-0.5
		C115.2,239.8,115.9,237.4,114.8,235.5z"/>
	<path class="st0" d="M44.6,183.3c0.5,0.2,1,0.3,1.5,0.3c1.6,0,3-0.9,3.7-2.4c0.9-2-0.1-4.4-2.1-5.2c-2-0.9-4.4,0.1-5.2,2.1
		C41.7,180.1,42.6,182.5,44.6,183.3z"/>
	<path class="st0" d="M122.8,251.9c-0.8-2-3.2-3-5.2-2.2c-2,0.8-3,3.2-2.2,5.2c0.6,1.6,2.1,2.5,3.7,2.5c0.5,0,1-0.1,1.5-0.3
		C122.6,256.3,123.6,253.9,122.8,251.9z"/>
	<path class="st0" d="M76.7,201.6c1.2,0,2.4-0.5,3.2-1.5c1.4-1.7,1-4.3-0.7-5.6c-1.7-1.4-4.3-1.1-5.6,0.7c-1.4,1.7-1,4.3,0.7,5.6
		C75,201.3,75.8,201.6,76.7,201.6z"/>
	<path class="st0" d="M127.5,283.6c-2.2,0.3-3.7,2.3-3.5,4.5c0.2,1.5,1.1,2.6,2.4,3.2c0.5-2.6,1.1-5.2,1.9-7.7
		C128.1,283.6,127.8,283.6,127.5,283.6z"/>
	<path class="st0" d="M125.4,303.7c-0.2,0.5-0.3,1-0.3,1.5c0,0.4,0.1,0.7,0.1,1h0.2C125.5,305.4,125.5,304.6,125.4,303.7z"/>
	<path class="st0" d="M83.3,177.6c-1.3,1.8-1,4.3,0.8,5.6c0.7,0.5,1.6,0.8,2.4,0.8c1.2,0,2.4-0.5,3.2-1.6c1.3-1.8,1-4.3-0.8-5.6
		C87.2,175.5,84.7,175.9,83.3,177.6z"/>
	<path class="st0" d="M137.8,246.6c-2.1,0.8-3.1,3.1-2.3,5.1c0.6,1.6,2.1,2.6,3.8,2.6c0.5,0,0.9-0.1,1.4-0.2
		c2.1-0.8,3.1-3.1,2.3-5.1C142.2,246.8,139.9,245.8,137.8,246.6z"/>
	<path class="st0" d="M135.6,232.2c-1-2-3.4-2.8-5.4-1.8c-2,1-2.8,3.4-1.8,5.4c0.7,1.4,2.1,2.2,3.6,2.2c0.6,0,1.2-0.1,1.8-0.4
		C135.8,236.6,136.6,234.2,135.6,232.2z"/>
	<path class="st0" d="M69.7,173.7c0.6,0.4,1.3,0.5,2,0.5c1.4,0,2.7-0.7,3.5-2c1.1-1.9,0.5-4.4-1.4-5.5c-1.9-1.1-4.4-0.5-5.5,1.4
		C67.1,170.1,67.8,172.5,69.7,173.7z"/>
	<path class="st0" d="M97.2,188.8c-1.5,1.6-1.5,4.1,0.2,5.6c0.8,0.7,1.8,1.1,2.7,1.1c1.1,0,2.1-0.4,2.9-1.2c1.5-1.6,1.5-4.1-0.2-5.7
		h0C101.3,187.1,98.8,187.2,97.2,188.8z"/>
	<path class="st0" d="M109.8,201.4c-1.7,1.4-1.9,3.9-0.5,5.6c0.8,0.9,1.9,1.4,3.1,1.4c0.9,0,1.8-0.3,2.6-0.9
		c1.7-1.4,1.9-3.9,0.5-5.6C114,200.2,111.5,200,109.8,201.4z"/>
	<path class="st0" d="M53.5,165.4c0.2,0.2,0.5,0.3,0.7,0.4c0.5,0.2,1.1,0.3,1.6,0.3c1.5,0,3-0.9,3.7-2.4c0.5-1.3,0.4-2.6-0.3-3.7
		C57.4,161.9,55.5,163.7,53.5,165.4z"/>
	<path class="st0" d="M120.9,215.3c-1.8,1.2-2.3,3.7-1.1,5.5c0.8,1.2,2,1.8,3.3,1.8c0.8,0,1.5-0.2,2.2-0.7c1.8-1.2,2.3-3.7,1.1-5.5
		C125.2,214.6,122.7,214.1,120.9,215.3z"/>
	<path class="st0" d="M79.1,156.1c0.6,0.4,1.3,0.5,2,0.5c1.4,0,2.7-0.7,3.5-2c1.1-1.9,0.5-4.4-1.5-5.5c-1.9-1.1-4.4-0.5-5.5,1.5
		C76.5,152.6,77.2,155,79.1,156.1z"/>
	<path class="st0" d="M142.1,211.3c-1.9,1.1-2.5,3.6-1.4,5.5c0.8,1.2,2.1,1.9,3.4,1.9c0.7,0,1.4-0.2,2-0.6c1.9-1.1,2.5-3.6,1.4-5.5
		C146.4,210.8,144,210.2,142.1,211.3z"/>
	<path class="st0" d="M150.8,226.9c-2,0.9-2.9,3.3-1.9,5.3c0.7,1.5,2.1,2.3,3.6,2.3c0.6,0,1.1-0.1,1.7-0.4c2-0.9,2.9-3.3,1.9-5.3
		C155.2,226.9,152.8,226,150.8,226.9z"/>
	<path class="st0" d="M120.1,183.2c-1.6,1.5-1.7,4-0.2,5.6c0.8,0.9,1.9,1.3,2.9,1.3c1,0,1.9-0.4,2.7-1.1c1.6-1.5,1.7-4,0.2-5.6
		C124.2,181.8,121.7,181.7,120.1,183.2z"/>
	<path class="st0" d="M92.9,160c-1.3,1.8-0.9,4.3,0.9,5.6c0.7,0.5,1.5,0.8,2.3,0.8c1.2,0,2.5-0.6,3.2-1.7c1.3-1.8,0.9-4.3-0.9-5.6
		C96.7,157.8,94.2,158.2,92.9,160z"/>
	<path class="st0" d="M131.8,196.7c-1.8,1.3-2.1,3.8-0.8,5.6c0.8,1,2,1.6,3.2,1.6c0.8,0,1.7-0.3,2.4-0.8c1.8-1.3,2.1-3.8,0.8-5.6
		C136.1,195.7,133.6,195.4,131.8,196.7z"/>
	<path class="st0" d="M157.9,243.4c-2.1,0.7-3.2,3-2.5,5.1c0,0.1,0.1,0.2,0.1,0.3c2.3-1.4,4.6-2.6,7-3.7
		C161.7,243.5,159.7,242.7,157.9,243.4z"/>
	<path class="st0" d="M107.4,176.6c0.8,0.7,1.7,1,2.7,1c1.1,0,2.2-0.5,3-1.3c1.5-1.6,1.3-4.2-0.3-5.6c-1.7-1.5-4.2-1.3-5.7,0.3
		C105.6,172.6,105.7,175.1,107.4,176.6z"/>
	<path class="st0" d="M177.9,240c-0.4,0.1-0.7,0.3-1,0.5c1.1-0.2,2.2-0.4,3.3-0.5C179.5,239.8,178.7,239.7,177.9,240z"/>
	<path class="st0" d="M168.3,208.9c-1.1-1.9-3.5-2.6-5.4-1.6c-1.9,1.1-2.6,3.5-1.6,5.4c0.7,1.3,2.1,2.1,3.5,2.1
		c0.7,0,1.3-0.1,1.9-0.5C168.7,213.3,169.4,210.9,168.3,208.9z"/>
	<path class="st0" d="M153.2,192.2c-1.8,1.2-2.3,3.7-1.1,5.6c0,0,0,0,0,0c0.8,1.1,2,1.8,3.3,1.8c0.8,0,1.5-0.2,2.2-0.7
		c1.8-1.2,2.3-3.7,1.1-5.5C157.6,191.5,155.1,191,153.2,192.2z"/>
	<path class="st0" d="M132.8,171.8c1,0,2-0.4,2.8-1.1c1.6-1.5,1.6-4.1,0-5.6c-1.5-1.6-4.1-1.6-5.7-0.1c-1.6,1.6-1.6,4.1,0,5.7
		C130.7,171.4,131.7,171.8,132.8,171.8z"/>
	<path class="st0" d="M171.1,223.3c-2,0.9-3,3.2-2.1,5.3c0.7,1.5,2.1,2.4,3.7,2.4c0.5,0,1.1-0.1,1.6-0.3c2-0.9,3-3.2,2.1-5.3
		C175.5,223.4,173.2,222.5,171.1,223.3z"/>
	<path class="st0" d="M103.1,147.8c0.7,0.5,1.5,0.7,2.3,0.7c1.3,0,2.5-0.6,3.3-1.7c1.3-1.8,0.8-4.3-1-5.6c-1.8-1.3-4.3-0.8-5.6,1
		C100.8,144,101.3,146.5,103.1,147.8z"/>
	<path class="st0" d="M144.8,185.1c0.9,0,1.8-0.3,2.5-0.9c1.7-1.4,2-3.9,0.6-5.6c-1.4-1.7-3.9-2-5.6-0.6c-1.7,1.4-2,3.9-0.6,5.6
		C142.5,184.6,143.6,185.1,144.8,185.1z"/>
	<path class="st0" d="M119.6,159.5c1.1,0,2.3-0.5,3.1-1.4c1.4-1.7,1.2-4.2-0.5-5.6c-1.7-1.4-4.2-1.2-5.6,0.5
		c-1.4,1.7-1.2,4.2,0.5,5.6C117.8,159.2,118.7,159.5,119.6,159.5z"/>
	<path class="st0" d="M88.2,138.4c0.6,0.4,1.3,0.5,2,0.5c1.4,0,2.7-0.7,3.5-2c1.1-1.9,0.4-4.4-1.5-5.5c-1.9-1.1-4.4-0.4-5.5,1.5
		C85.6,134.8,86.3,137.3,88.2,138.4z"/>
	<path class="st1" d="M188.8,239.4c-2.9,0-5.8,0.2-8.6,0.6c1.2,0.4,2.3,1.3,2.7,2.6c0.7,2.1-0.5,4.4-2.6,5c-0.4,0.1-0.8,0.2-1.2,0.2
		c-1.7,0-3.2-1.1-3.8-2.8c-0.6-1.7,0.1-3.6,1.6-4.5c-5,0.9-9.8,2.5-14.3,4.5c0.2,0.2,0.3,0.5,0.4,0.8c0.7,2.1-0.4,4.4-2.5,5.1
		c-0.4,0.1-0.9,0.2-1.3,0.2c-1.6,0-3-0.9-3.6-2.4c-12.8,7.9-22.6,20.2-27.2,34.8c1.8,0.2,3.4,1.6,3.6,3.5c0.3,2.2-1.3,4.2-3.5,4.5
		c-0.2,0-0.3,0-0.5,0c-0.5,0-1.1-0.1-1.6-0.3c-0.7,3.7-1.1,7.6-1.1,11.5c0,0.3,0,0.6,0,1c0.6-1.5,2-2.5,3.7-2.5c2.2,0,4,1.8,4,4
		c0,0.4-0.1,0.7-0.1,1h14.5c-1.4-0.6-2.5-2-2.5-3.7c0-2.2,1.7-4,3.9-4.1c2.2,0,4,1.7,4.1,3.9c0,1.7-1,3.2-2.5,3.8h101.6
		c0.1-1.2,0.1-2.3,0.1-3.5C252.2,267.8,223.8,239.4,188.8,239.4z M140.6,268.3c-0.5-2.1,0.8-4.3,2.9-4.8c2.1-0.5,4.3,0.8,4.8,2.9
		c0.5,2.1-0.8,4.3-2.9,4.9c-0.3,0.1-0.6,0.1-1,0.1C142.7,271.3,141,270.1,140.6,268.3z M148.3,288.8c-0.2,0-0.3,0-0.5,0
		c-2,0-3.7-1.5-4-3.5c-0.3-2.2,1.3-4.2,3.5-4.5c2.2-0.3,4.2,1.3,4.5,3.5C152,286.5,150.5,288.5,148.3,288.8z M160.3,265.2
		c-0.5-2.1,0.8-4.3,3-4.8c2.2-0.5,4.3,0.8,4.8,3c0.5,2.1-0.8,4.3-3,4.8c-0.3,0.1-0.6,0.1-0.9,0.1
		C162.4,268.3,160.8,267.1,160.3,265.2z M163.5,282.4c-0.3-2.2,1.3-4.2,3.5-4.5c2.2-0.3,4.2,1.3,4.5,3.4h0c0.3,2.2-1.2,4.2-3.4,4.5
		c-0.2,0-0.4,0-0.5,0C165.5,285.9,163.7,284.4,163.5,282.4z M169,303.7c0,0-0.1,0-0.1,0c-2.2,0-3.9-1.7-4-3.9
		c-0.1-2.2,1.7-4,3.9-4.1c2.2-0.1,4,1.7,4.1,3.9C172.9,301.8,171.2,303.7,169,303.7z M180,262c-0.5-2.1,0.8-4.3,3-4.8
		c2.2-0.5,4.3,0.9,4.8,3c0.5,2.2-0.9,4.3-3,4.8c-0.3,0.1-0.6,0.1-0.9,0.1C182.1,265.1,180.4,263.9,180,262z M183.1,279.3
		c-0.3-2.2,1.2-4.2,3.4-4.5c2.2-0.3,4.2,1.2,4.5,3.4c0.3,2.2-1.2,4.2-3.4,4.5c-0.2,0-0.4,0-0.5,0
		C185.1,282.8,183.4,281.3,183.1,279.3z M188.8,300.7c-0.1,0-0.1,0-0.2,0c-2.1,0-3.9-1.7-4-3.8c-0.1-2.2,1.6-4.1,3.8-4.2
		c2.2-0.1,4.1,1.6,4.2,3.8C192.8,298.7,191,300.6,188.8,300.7z"/>
	<path class="st0" d="M129.2,301.2c-1.7,0-3.1,1-3.7,2.5c0,0.8,0,1.7,0.1,2.5h7.5c0.1-0.3,0.1-0.7,0.1-1
		C133.1,303,131.4,301.2,129.2,301.2z"/>
	<path class="st0" d="M128.6,291.5c2.2-0.3,3.7-2.3,3.5-4.5c-0.2-1.9-1.8-3.3-3.6-3.5c-0.8,2.5-1.4,5-1.9,7.7c0.5,0.2,1,0.3,1.6,0.3
		C128.2,291.6,128.4,291.6,128.6,291.5z"/>
	<path class="st0" d="M145.4,271.2c2.2-0.5,3.5-2.7,2.9-4.9c-0.5-2.1-2.7-3.5-4.8-2.9c-2.1,0.5-3.5,2.7-2.9,4.8c0.5,1.8,2.1,3,3.9,3
		C144.8,271.3,145.1,271.3,145.4,271.2z"/>
	<path class="st0" d="M153,302.5c0-2.2-1.8-4-4.1-3.9c-2.2,0-4,1.8-3.9,4.1c0,1.7,1.1,3.1,2.5,3.7h3C152,305.7,153,304.2,153,302.5z
		"/>
	<path class="st0" d="M147.2,280.8c-2.2,0.3-3.7,2.3-3.5,4.5c0.3,2,2,3.5,4,3.5c0.2,0,0.3,0,0.5,0c2.2-0.3,3.7-2.3,3.5-4.5
		C151.4,282.1,149.4,280.6,147.2,280.8z"/>
	<path class="st0" d="M165.1,268.2c2.2-0.5,3.5-2.7,3-4.8c-0.5-2.1-2.7-3.5-4.8-3c-2.2,0.5-3.5,2.7-3,4.8c0.4,1.8,2.1,3.1,3.9,3.1
		C164.5,268.3,164.8,268.3,165.1,268.2z"/>
	<path class="st0" d="M168.8,295.7c-2.2,0.1-4,1.9-3.9,4.1c0.1,2.2,1.8,3.9,4,3.9c0,0,0.1,0,0.1,0c2.2-0.1,3.9-1.9,3.9-4.1
		C172.8,297.4,171,295.7,168.8,295.7z"/>
	<path class="st0" d="M159.2,251.1c0.4,0,0.9-0.1,1.3-0.2c2.1-0.7,3.2-3,2.5-5.1c-0.1-0.3-0.2-0.5-0.4-0.8c-2.4,1.1-4.8,2.3-7,3.7
		C156.2,250.2,157.7,251.1,159.2,251.1z"/>
	<path class="st0" d="M168,285.9c2.2-0.3,3.7-2.3,3.4-4.5h0c-0.3-2.2-2.3-3.7-4.5-3.4c-2.2,0.3-3.7,2.3-3.5,4.5c0.3,2,2,3.5,4,3.5
		C167.6,285.9,167.8,285.9,168,285.9z"/>
	<path class="st0" d="M187.6,282.8c2.2-0.3,3.7-2.3,3.4-4.5c-0.3-2.2-2.3-3.7-4.5-3.4c-2.2,0.3-3.7,2.3-3.4,4.5c0.3,2,2,3.5,4,3.5
		C187.3,282.8,187.5,282.8,187.6,282.8z"/>
	<path class="st0" d="M184.8,265c2.2-0.5,3.5-2.6,3-4.8c-0.5-2.1-2.6-3.5-4.8-3c-2.2,0.5-3.5,2.6-3,4.8c0.4,1.9,2.1,3.1,3.9,3.1
		C184.2,265.1,184.5,265.1,184.8,265z"/>
	<path class="st0" d="M175.3,245c0.5,1.7,2.1,2.8,3.8,2.8c0.4,0,0.8-0.1,1.2-0.2c2.1-0.7,3.2-3,2.6-5c-0.4-1.3-1.5-2.2-2.7-2.6
		c-1.1,0.2-2.2,0.3-3.3,0.5C175.4,241.5,174.7,243.3,175.3,245z"/>
	<path class="st0" d="M188.5,292.7c-2.2,0.1-3.9,2-3.8,4.2c0.1,2.2,1.9,3.8,4,3.8c0.1,0,0.1,0,0.2,0c2.2-0.1,3.9-2,3.8-4.2
		C192.6,294.3,190.7,292.6,188.5,292.7z"/>
	<path class="st2" d="M5.3,187c18.3-2.4,34.9-10.1,48.2-21.6c-1.5-1.1-2.1-3.1-1.3-4.9c0.9-2,3.2-2.9,5.3-2c0.8,0.3,1.4,0.9,1.8,1.5
		c16.4-16.7,26.5-39.5,26.5-64.8c0-48.9-37.9-88.9-86-92.3v125.5c0,0.2,0.1,0.5,0.1,0.7c0,0.2,0,0.4-0.1,0.5v56.2
		c0.7-0.5,1.6-0.8,2.6-0.7C3.6,185.3,4.6,186,5.3,187z M70.5,125.1c0.9-2,3.3-2.9,5.3-2c2,0.9,2.9,3.3,2,5.3
		c-0.7,1.5-2.1,2.3-3.6,2.3c-0.5,0-1.1-0.1-1.7-0.4c0,0,0,0,0,0C70.5,129.5,69.6,127.1,70.5,125.1z M66.8,140.9c2,0.9,2.9,3.3,2,5.3
		c-0.7,1.5-2.1,2.4-3.7,2.4c-0.5,0-1.1-0.1-1.6-0.4c-2-0.9-2.9-3.3-2-5.3C62.4,140.9,64.8,139.9,66.8,140.9z M53.7,118.7
		c0.7-2.1,3-3.2,5.1-2.5c2.1,0.7,3.2,3,2.5,5.1c-0.6,1.6-2.1,2.7-3.8,2.7c-0.4,0-0.9-0.1-1.3-0.2C54.1,123.1,53,120.8,53.7,118.7z
		 M44.7,136.8c0.7-2.1,3-3.2,5-2.5c2.1,0.7,3.2,3,2.5,5.1c-0.5,1.7-2.1,2.8-3.8,2.8c-0.4,0-0.8-0.1-1.2-0.2
		C45.2,141.1,44,138.9,44.7,136.8z M36.4,114c0.5-2.1,2.7-3.5,4.8-2.9c2.2,0.5,3.5,2.7,2.9,4.8c-0.4,1.8-2.1,3-3.9,3
		c-0.3,0-0.6,0-1-0.1C37.2,118.3,35.9,116.1,36.4,114z M40.3,152.1c2.1,0.7,3.3,2.9,2.7,5c-0.5,1.7-2.1,2.8-3.8,2.8
		c-0.4,0-0.8-0.1-1.2-0.2c-2.1-0.6-3.3-2.9-2.7-5C36,152.7,38.2,151.5,40.3,152.1z M27.4,132.4c0.5-2.2,2.6-3.5,4.8-3.1
		c2.2,0.5,3.5,2.6,3,4.8c-0.4,1.9-2.1,3.1-3.9,3.1c-0.3,0-0.6,0-0.9-0.1C28.2,136.7,26.9,134.6,27.4,132.4z M30.5,170
		c2.1,0.6,3.4,2.8,2.8,4.9c-0.5,1.8-2.1,2.9-3.8,2.9c-0.4,0-0.7,0-1.1-0.1c-2.1-0.6-3.4-2.8-2.8-4.9C26.2,170.7,28.4,169.4,30.5,170
		z M18.7,110.9c0.3-2.2,2.4-3.7,4.5-3.4h0c2.2,0.3,3.7,2.4,3.3,4.6c-0.3,2-2,3.4-4,3.4c-0.2,0-0.4,0-0.6,0
		C19.9,115.1,18.4,113,18.7,110.9z M17.9,151c0.4-2.2,2.5-3.6,4.7-3.2c2.2,0.4,3.6,2.5,3.2,4.7c-0.4,1.9-2,3.3-3.9,3.3
		c-0.2,0-0.5,0-0.7-0.1C19,155.2,17.5,153.1,17.9,151z M9.7,129.9c0.2-2.2,2.2-3.8,4.4-3.5c2.2,0.3,3.8,2.2,3.5,4.4
		c-0.2,2-2,3.5-4,3.5c-0.2,0-0.3,0-0.5,0C11,134,9.4,132.1,9.7,129.9z M12.7,166.3c2.2,0.3,3.7,2.3,3.4,4.5c-0.3,2-2,3.5-4,3.5
		c-0.2,0-0.4,0-0.6,0c-2.2-0.3-3.7-2.3-3.4-4.5C8.5,167.5,10.5,166,12.7,166.3z M5,105.6c2.2,0.1,3.9,2,3.8,4.2
		c-0.1,2.1-1.9,3.8-4,3.8c-0.1,0-0.2,0-0.2,0c-2.2-0.1-3.9-2-3.8-4.2S2.8,105.5,5,105.6z M0.2,149.2c0.2-2.2,2.1-3.9,4.3-3.7
		c2.2,0.2,3.9,2.1,3.7,4.3c-0.2,2.1-1.9,3.7-4,3.7c-0.1,0-0.2,0-0.3,0C1.7,153.3,0.1,151.4,0.2,149.2z"/>
	<path class="st0" d="M5.3,187c-0.7-1-1.7-1.7-3-1.8c-1-0.1-1.9,0.2-2.6,0.7v1.6C1.6,187.4,3.5,187.2,5.3,187z"/>
	<path class="st0" d="M11.6,174.2c0.2,0,0.4,0,0.6,0c2,0,3.7-1.5,4-3.5c0.3-2.2-1.2-4.2-3.4-4.5c-2.2-0.3-4.2,1.2-4.5,3.4
		C7.9,171.9,9.4,173.9,11.6,174.2z"/>
	<path class="st0" d="M28.4,177.7c0.4,0.1,0.7,0.1,1.1,0.1c1.8,0,3.4-1.2,3.8-2.9c0.6-2.1-0.7-4.3-2.8-4.9c-2.1-0.6-4.3,0.7-4.9,2.8
		C25,174.9,26.3,177.1,28.4,177.7z"/>
	<path class="st0" d="M57.4,158.5c-2-0.9-4.4,0-5.3,2c-0.8,1.8-0.2,3.8,1.3,4.9c2-1.7,3.9-3.5,5.7-5.4
		C58.8,159.4,58.2,158.8,57.4,158.5z"/>
	<path class="st0" d="M21.1,155.6c0.2,0,0.5,0.1,0.7,0.1c1.9,0,3.6-1.3,3.9-3.3c0.4-2.2-1-4.2-3.2-4.7c-2.2-0.4-4.3,1-4.7,3.2
		C17.5,153.1,19,155.2,21.1,155.6z"/>
	<path class="st0" d="M4.2,153.4c2.1,0,3.8-1.6,4-3.7c0.1-2.2-1.5-4.1-3.7-4.3c-2.2-0.1-4.1,1.5-4.3,3.7c-0.2,2.2,1.5,4.1,3.7,4.3
		C4,153.4,4.1,153.4,4.2,153.4z"/>
	<path class="st0" d="M38,159.8c0.4,0.1,0.8,0.2,1.2,0.2c1.7,0,3.3-1.1,3.8-2.8c0.7-2.1-0.5-4.3-2.7-5c-2.1-0.6-4.3,0.5-5,2.7
		C34.7,156.9,35.9,159.1,38,159.8z"/>
	<path class="st0" d="M30.4,137.2c0.3,0.1,0.6,0.1,0.9,0.1c1.8,0,3.5-1.3,3.9-3.1c0.5-2.2-0.9-4.3-3-4.8c-2.2-0.5-4.3,0.9-4.8,3.1
		C26.9,134.6,28.2,136.7,30.4,137.2z"/>
	<path class="st0" d="M63.5,148.2c0.5,0.2,1.1,0.4,1.6,0.4c1.5,0,3-0.9,3.7-2.4c0.9-2,0-4.4-2-5.3c-2-0.9-4.4,0-5.3,2
		C60.6,144.9,61.5,147.2,63.5,148.2z"/>
	<path class="st0" d="M13.2,134.3c0.2,0,0.3,0,0.5,0c2,0,3.7-1.5,4-3.5c0.3-2.2-1.3-4.2-3.5-4.4c-2.2-0.2-4.2,1.3-4.4,3.5
		C9.4,132.1,11,134,13.2,134.3z"/>
	<path class="st0" d="M47.3,141.8c0.4,0.1,0.8,0.2,1.2,0.2c1.7,0,3.2-1.1,3.8-2.8c0.7-2.1-0.4-4.4-2.5-5.1c-2.1-0.7-4.4,0.4-5,2.5
		C44,138.9,45.2,141.1,47.3,141.8z"/>
	<path class="st0" d="M-0.3,128.5v1.2c0-0.2,0.1-0.3,0.1-0.5C-0.2,129-0.3,128.7-0.3,128.5z"/>
	<path class="st0" d="M4.5,113.6c0.1,0,0.2,0,0.2,0c2.1,0,3.9-1.6,4-3.8c0.1-2.2-1.6-4.1-3.8-4.2c-2.2-0.1-4.1,1.6-4.2,3.8
		S2.3,113.5,4.5,113.6z"/>
	<path class="st0" d="M72.5,130.4C72.5,130.4,72.5,130.4,72.5,130.4c0.5,0.2,1.1,0.4,1.7,0.4c1.5,0,3-0.9,3.6-2.3c0.9-2,0-4.4-2-5.3
		c-2-0.9-4.4,0-5.3,2C69.6,127.1,70.5,129.5,72.5,130.4z"/>
	<path class="st0" d="M39.3,118.8c0.3,0.1,0.6,0.1,1,0.1c1.8,0,3.4-1.2,3.9-3c0.5-2.1-0.8-4.3-2.9-4.8c-2.1-0.5-4.3,0.8-4.8,2.9
		C35.9,116.1,37.2,118.3,39.3,118.8z"/>
	<path class="st0" d="M56.2,123.8c0.4,0.2,0.9,0.2,1.3,0.2c1.7,0,3.2-1,3.8-2.7c0.7-2.1-0.4-4.4-2.5-5.1c-2.1-0.7-4.4,0.4-5.1,2.5
		C53,120.8,54.1,123.1,56.2,123.8z"/>
	<path class="st0" d="M22,115.4c0.2,0,0.4,0,0.6,0c2,0,3.7-1.4,4-3.4c0.3-2.2-1.2-4.2-3.3-4.6h0c-2.2-0.3-4.2,1.2-4.5,3.4
		C18.4,113,19.9,115.1,22,115.4z"/>
</g>
</svg>
