<?xml version="1.0" encoding="utf-8"?>
<!-- Generator: Adobe Illustrator 21.1.0, SVG Export Plug-In . SVG Version: 6.00 Build 0)  -->
<svg version="1.1" id="Layer_1" xmlns="http://www.w3.org/2000/svg" xmlns:xlink="http://www.w3.org/1999/xlink" x="0px" y="0px"
	 viewBox="0 0 120 120" style="enable-background:new 0 0 120 120;" xml:space="preserve">
<style type="text/css">
	.st0{fill:#FFFFFF;stroke:#10387A;stroke-width:3;stroke-linecap:round;stroke-linejoin:round;stroke-miterlimit:10;}
	.st1{fill:#5FC3E2;}
	.st2{fill:none;stroke:#10387A;stroke-width:3;stroke-linecap:round;stroke-linejoin:round;stroke-miterlimit:10;}
</style>
<path class="st0" d="M55.2,62.6c10.9,0,19.8-8.9,19.8-19.8v0C75,31.9,66.1,23,55.2,23h-32C12.2,23,3.4,31.9,3.4,42.8v0
	c0,10.8,8.6,19.5,19.3,19.8v13.7l13.7-13.7"/>
<path class="st0" d="M97.3,83v13.7L83.6,83.1H64.8C53.9,83.1,45,74.2,45,63.3v0c0-10.9,8.9-19.8,19.8-19.8h32
	c10.9,0,19.8,8.9,19.8,19.8v0c0,7.1-3.8,13.4-9.5,16.9"/>
<g>
	<g>
		<path class="st1" d="M64,56c-1.1,0-2-0.9-2-2s0.9-2,2-2h0c1.1,0,2,0.9,2,2S65.2,56,64,56z"/>
	</g>
	<g>
		<path class="st1" d="M89.6,56h-0.1c-1.1,0-2-0.9-2-2s0.9-2,2-2h0.1c1.1,0,2,0.9,2,2S90.7,56,89.6,56z M81.1,56h-0.1
			c-1.1,0-2-0.9-2-2s0.9-2,2-2h0.1c1.1,0,2,0.9,2,2S82.2,56,81.1,56z M72.6,56h-0.1c-1.1,0-2-0.9-2-2s0.9-2,2-2h0.1c1.1,0,2,0.9,2,2
			S73.7,56,72.6,56z"/>
	</g>
	<g>
		<path class="st1" d="M98,56c-1.1,0-2-0.9-2-2s0.9-2,2-2h0c1.1,0,2,0.9,2,2S99.1,56,98,56z"/>
	</g>
</g>
<g>
	<g>
		<path class="st1" d="M64,65c-1.1,0-2-0.9-2-2s0.9-2,2-2h0c1.1,0,2,0.9,2,2S65.2,65,64,65z"/>
	</g>
	<g>
		<path class="st1" d="M89.6,65h-0.1c-1.1,0-2-0.9-2-2s0.9-2,2-2h0.1c1.1,0,2,0.9,2,2S90.7,65,89.6,65z M81.1,65h-0.1
			c-1.1,0-2-0.9-2-2s0.9-2,2-2h0.1c1.1,0,2,0.9,2,2S82.2,65,81.1,65z M72.6,65h-0.1c-1.1,0-2-0.9-2-2s0.9-2,2-2h0.1c1.1,0,2,0.9,2,2
			S73.7,65,72.6,65z"/>
	</g>
	<g>
		<path class="st1" d="M98,65c-1.1,0-2-0.9-2-2s0.9-2,2-2h0c1.1,0,2,0.9,2,2S99.1,65,98,65z"/>
	</g>
</g>
<g>
	<g>
		<path class="st1" d="M64,74c-1.1,0-2-0.9-2-2s0.9-2,2-2h0c1.1,0,2,0.9,2,2S65.2,74,64,74z"/>
	</g>
	<g>
		<path class="st1" d="M89.6,74h-0.1c-1.1,0-2-0.9-2-2s0.9-2,2-2h0.1c1.1,0,2,0.9,2,2S90.7,74,89.6,74z M81.1,74h-0.1
			c-1.1,0-2-0.9-2-2s0.9-2,2-2h0.1c1.1,0,2,0.9,2,2S82.2,74,81.1,74z M72.6,74h-0.1c-1.1,0-2-0.9-2-2s0.9-2,2-2h0.1c1.1,0,2,0.9,2,2
			S73.7,74,72.6,74z"/>
	</g>
	<g>
		<path class="st1" d="M98,74c-1.1,0-2-0.9-2-2s0.9-2,2-2h0c1.1,0,2,0.9,2,2S99.1,74,98,74z"/>
	</g>
</g>
<g>
	<g>
		<g>
			<path class="st1" d="M22,36c-1.1,0-2-0.9-2-2s0.9-2,2-2h0c1.1,0,2,0.9,2,2S23.2,36,22,36z"/>
		</g>
		<g>
			<path class="st1" d="M47.6,36h-0.1c-1.1,0-2-0.9-2-2s0.9-2,2-2h0.1c1.1,0,2,0.9,2,2S48.7,36,47.6,36z M39.1,36h-0.1
				c-1.1,0-2-0.9-2-2s0.9-2,2-2h0.1c1.1,0,2,0.9,2,2S40.2,36,39.1,36z M30.6,36h-0.1c-1.1,0-2-0.9-2-2s0.9-2,2-2h0.1
				c1.1,0,2,0.9,2,2S31.7,36,30.6,36z"/>
		</g>
		<g>
			<path class="st1" d="M56,36c-1.1,0-2-0.9-2-2s0.9-2,2-2h0c1.1,0,2,0.9,2,2S57.1,36,56,36z"/>
		</g>
	</g>
	<g>
		<g>
			<path class="st1" d="M22,45c-1.1,0-2-0.9-2-2s0.9-2,2-2h0c1.1,0,2,0.9,2,2S23.2,45,22,45z"/>
		</g>
		<g>
			<path class="st1" d="M47.6,45h-0.1c-1.1,0-2-0.9-2-2s0.9-2,2-2h0.1c1.1,0,2,0.9,2,2S48.7,45,47.6,45z M39.1,45h-0.1
				c-1.1,0-2-0.9-2-2s0.9-2,2-2h0.1c1.1,0,2,0.9,2,2S40.2,45,39.1,45z M30.6,45h-0.1c-1.1,0-2-0.9-2-2s0.9-2,2-2h0.1
				c1.1,0,2,0.9,2,2S31.7,45,30.6,45z"/>
		</g>
	</g>
	<g>
		<g>
			<path class="st1" d="M22,54c-1.1,0-2-0.9-2-2s0.9-2,2-2h0c1.1,0,2,0.9,2,2S23.2,54,22,54z"/>
		</g>
		<g>
			<path class="st1" d="M39.1,54h-0.1c-1.1,0-2-0.9-2-2s0.9-2,2-2h0.1c1.1,0,2,0.9,2,2S40.2,54,39.1,54z M30.6,54h-0.1
				c-1.1,0-2-0.9-2-2s0.9-2,2-2h0.1c1.1,0,2,0.9,2,2S31.7,54,30.6,54z"/>
		</g>
	</g>
</g>
<line class="st2" x1="86.5" y1="35.5" x2="86.5" y2="27.5"/>
<line class="st2" x1="82.5" y1="31.5" x2="90.5" y2="31.5"/>
<line class="st2" x1="37.5" y1="83.5" x2="37.5" y2="75.5"/>
<line class="st2" x1="33.5" y1="79.5" x2="41.5" y2="79.5"/>
</svg>
