<svg id="Layer_1" data-name="Layer 1" xmlns="http://www.w3.org/2000/svg" viewBox="0 0 103.27 235.9"><defs><style>.cls-1{fill:#5fc3e2}</style></defs><circle class="cls-1" cx="25.8" cy="48.8" r="4.1"/><circle class="cls-1" cx="25.8" cy="120.2" r="4.1"/><circle class="cls-1" cx="25.8" cy="84.5" r="4.1"/><circle class="cls-1" cx="25.8" cy="155.9" r="4.1"/><circle class="cls-1" cx="14.9" cy="66.6" r="4.7"/><circle class="cls-1" cx="25.8" cy="227.3" r="4.1"/><circle class="cls-1" cx="25.8" cy="191.6" r="4.1"/><circle class="cls-1" cx="14.9" cy="30.9" r="4.7"/><circle class="cls-1" cx="36.6" cy="102.3" r="4.7"/><circle class="cls-1" cx="36.6" cy="66.6" r="4.7"/><circle class="cls-1" cx="36.6" cy="30.9" r="4.7"/><circle class="cls-1" cx="47.5" cy="227.3" r="4.1"/><circle class="cls-1" cx="36.6" cy="209.5" r="4.7"/><circle class="cls-1" cx="36.6" cy="138" r="4.7"/><circle class="cls-1" cx="25.8" cy="13.1" r="4.1"/><circle class="cls-1" cx="36.6" cy="173.7" r="4.7"/><circle class="cls-1" cx="4.1" cy="120.2" r="4.1"/><path class="cls-1" d="M101.7 178.4a4.66 4.66 0 0 0 1.57-.29v-8.82a4.69 4.69 0 1 0-1.57 9.11z"/><circle class="cls-1" cx="4.1" cy="227.3" r="4.1"/><path class="cls-1" d="M101.7 142.7a4.66 4.66 0 0 0 1.57-.29v-8.82a4.69 4.69 0 1 0-1.57 9.11z"/><circle class="cls-1" cx="14.9" cy="102.3" r="4.7"/><path class="cls-1" d="M101.7 35.6a4.66 4.66 0 0 0 1.57-.29v-8.82a4.69 4.69 0 1 0-1.57 9.11zM101.7 71.3a4.66 4.66 0 0 0 1.57-.29v-8.82a4.69 4.69 0 1 0-1.57 9.11zM101.7 107a4.66 4.66 0 0 0 1.57-.29v-8.82a4.69 4.69 0 1 0-1.57 9.11z"/><circle class="cls-1" cx="4.1" cy="191.6" r="4.1"/><circle class="cls-1" cx="14.9" cy="209.5" r="4.7"/><circle class="cls-1" cx="4.1" cy="155.9" r="4.1"/><circle class="cls-1" cx="4.1" cy="13.1" r="4.1"/><circle class="cls-1" cx="14.9" cy="173.7" r="4.7"/><circle class="cls-1" cx="4.1" cy="48.8" r="4.1"/><circle class="cls-1" cx="47.5" cy="191.6" r="4.1"/><circle class="cls-1" cx="4.1" cy="84.5" r="4.1"/><circle class="cls-1" cx="14.9" cy="138" r="4.7"/><circle class="cls-1" cx="80" cy="66.6" r="4.7"/><circle class="cls-1" cx="80" cy="102.3" r="4.7"/><circle class="cls-1" cx="69.2" cy="48.8" r="4.1"/><circle class="cls-1" cx="80" cy="30.9" r="4.7"/><circle class="cls-1" cx="80" cy="173.7" r="4.7"/><circle class="cls-1" cx="90.8" cy="227.3" r="4.1"/><circle class="cls-1" cx="69.2" cy="13.1" r="4.1"/><circle class="cls-1" cx="80" cy="209.5" r="4.7"/><circle class="cls-1" cx="80" cy="138" r="4.7"/><circle class="cls-1" cx="90.8" cy="13.1" r="4.1"/><path class="cls-1" d="M103.27 205.09a4.7 4.7 0 1 0 0 8.82z"/><circle class="cls-1" cx="90.8" cy="48.8" r="4.1"/><circle class="cls-1" cx="90.8" cy="191.6" r="4.1"/><circle class="cls-1" cx="90.8" cy="155.9" r="4.1"/><circle class="cls-1" cx="90.8" cy="84.5" r="4.1"/><circle class="cls-1" cx="90.8" cy="120.2" r="4.1"/><circle class="cls-1" cx="58.3" cy="66.6" r="4.7"/><circle class="cls-1" cx="58.3" cy="138" r="4.7"/><circle class="cls-1" cx="47.5" cy="13.1" r="4.1"/><circle class="cls-1" cx="58.3" cy="173.7" r="4.7"/><circle class="cls-1" cx="58.3" cy="209.5" r="4.7"/><circle class="cls-1" cx="69.2" cy="84.5" r="4.1"/><circle class="cls-1" cx="47.5" cy="120.2" r="4.1"/><circle class="cls-1" cx="47.5" cy="84.5" r="4.1"/><circle class="cls-1" cx="47.5" cy="48.8" r="4.1"/><circle class="cls-1" cx="69.2" cy="191.6" r="4.1"/><circle class="cls-1" cx="69.2" cy="155.9" r="4.1"/><circle class="cls-1" cx="69.2" cy="120.2" r="4.1"/><circle class="cls-1" cx="69.2" cy="227.3" r="4.1"/><circle class="cls-1" cx="58.3" cy="102.3" r="4.7"/><circle class="cls-1" cx="47.5" cy="155.9" r="4.1"/><circle class="cls-1" cx="58.3" cy="30.9" r="4.7"/></svg>