<?xml version="1.0" encoding="utf-8"?>
<!-- Generator: Adobe Illustrator 21.1.0, SVG Export Plug-In . SVG Version: 6.00 Build 0)  -->
<svg version="1.1" id="Layer_1" xmlns="http://www.w3.org/2000/svg" xmlns:xlink="http://www.w3.org/1999/xlink" x="0px" y="0px"
	 viewBox="0 0 342.5 65" style="enable-background:new 0 0 342.5 65;" xml:space="preserve">
<style type="text/css">
	.st0{fill:url(#SVGID_1_);}
	.st1{fill:url(#SVGID_2_);}
	.st2{fill:url(#SVGID_3_);}
	.st3{fill:url(#SVGID_4_);}
	.st4{fill:url(#SVGID_5_);}
	.st5{fill:url(#SVGID_6_);}
	.st6{fill:url(#SVGID_7_);}
	.st7{fill:url(#SVGID_8_);}
	.st8{fill:url(#SVGID_9_);}
	.st9{fill:url(#SVGID_10_);}
	.st10{fill:url(#SVGID_11_);}
	.st11{fill:url(#SVGID_12_);}
	.st12{fill:url(#SVGID_13_);}
	.st13{fill:url(#SVGID_14_);}
	.st14{fill:url(#SVGID_15_);}
	.st15{fill:url(#SVGID_16_);}
	.st16{fill:url(#SVGID_17_);}
	.st17{fill:url(#SVGID_18_);}
	.st18{fill:url(#SVGID_19_);}
	.st19{fill:url(#SVGID_20_);}
	.st20{fill:url(#SVGID_21_);}
	.st21{fill:url(#SVGID_22_);}
	.st22{fill:url(#SVGID_23_);}
	.st23{fill:url(#SVGID_24_);}
	.st24{fill:url(#SVGID_25_);}
	.st25{fill:url(#SVGID_26_);}
	.st26{fill:url(#SVGID_27_);}
	.st27{fill:url(#SVGID_28_);}
	.st28{fill:url(#SVGID_29_);}
	.st29{fill:url(#SVGID_30_);}
	.st30{fill:url(#SVGID_31_);}
	.st31{fill:url(#SVGID_32_);}
	.st32{fill:#5FC3E2;}
</style>
<g>
	<g>
		<linearGradient id="SVGID_1_" gradientUnits="userSpaceOnUse" x1="43.6534" y1="68.5" x2="43.6534" y2="-4.5">
			<stop  offset="0" style="stop-color:#2466CC"/>
			<stop  offset="1" style="stop-color:#5FC3E2"/>
		</linearGradient>
		<circle class="st0" cx="43.7" cy="59.7" r="5.3"/>
	</g>
	<g>
		<linearGradient id="SVGID_2_" gradientUnits="userSpaceOnUse" x1="76.3466" y1="68.5" x2="76.3466" y2="-4.5">
			<stop  offset="0" style="stop-color:#2466CC"/>
			<stop  offset="1" style="stop-color:#5FC3E2"/>
		</linearGradient>
		<circle class="st1" cx="76.3" cy="59.7" r="5.3"/>
	</g>
</g>
<g>
	<g>
		<linearGradient id="SVGID_3_" gradientUnits="userSpaceOnUse" x1="27.4126" y1="68.5" x2="27.4126" y2="-4.5">
			<stop  offset="0" style="stop-color:#2466CC"/>
			<stop  offset="1" style="stop-color:#5FC3E2"/>
		</linearGradient>
		<circle class="st2" cx="27.4" cy="36.9" r="4.4"/>
	</g>
	<g>
		<linearGradient id="SVGID_4_" gradientUnits="userSpaceOnUse" x1="43.7063" y1="68.5" x2="43.7063" y2="-4.5">
			<stop  offset="0" style="stop-color:#2466CC"/>
			<stop  offset="1" style="stop-color:#5FC3E2"/>
		</linearGradient>
		<circle class="st3" cx="43.7" cy="36.9" r="4.4"/>
	</g>
	<g>
		<linearGradient id="SVGID_5_" gradientUnits="userSpaceOnUse" x1="60" y1="68.5" x2="60" y2="-4.5">
			<stop  offset="0" style="stop-color:#2466CC"/>
			<stop  offset="1" style="stop-color:#5FC3E2"/>
		</linearGradient>
		<circle class="st4" cx="60" cy="36.9" r="4.4"/>
	</g>
	<g>
		<linearGradient id="SVGID_6_" gradientUnits="userSpaceOnUse" x1="92.5874" y1="68.5" x2="92.5874" y2="-4.5">
			<stop  offset="0" style="stop-color:#2466CC"/>
			<stop  offset="1" style="stop-color:#5FC3E2"/>
		</linearGradient>
		<circle class="st5" cx="92.6" cy="36.9" r="4.4"/>
	</g>
	<g>
		<linearGradient id="SVGID_7_" gradientUnits="userSpaceOnUse" x1="76.2937" y1="68.5" x2="76.2937" y2="-4.5">
			<stop  offset="0" style="stop-color:#2466CC"/>
			<stop  offset="1" style="stop-color:#5FC3E2"/>
		</linearGradient>
		<circle class="st6" cx="76.3" cy="36.9" r="4.4"/>
	</g>
</g>
<g>
	<g>
		<linearGradient id="SVGID_8_" gradientUnits="userSpaceOnUse" x1="35.533" y1="68.5" x2="35.533" y2="-4.5">
			<stop  offset="0" style="stop-color:#2466CC"/>
			<stop  offset="1" style="stop-color:#5FC3E2"/>
		</linearGradient>
		<circle class="st7" cx="35.5" cy="48.3" r="4.8"/>
	</g>
	<g>
		<linearGradient id="SVGID_9_" gradientUnits="userSpaceOnUse" x1="51.8443" y1="68.5" x2="51.8443" y2="-4.5">
			<stop  offset="0" style="stop-color:#2466CC"/>
			<stop  offset="1" style="stop-color:#5FC3E2"/>
		</linearGradient>
		<circle class="st8" cx="51.8" cy="48.3" r="4.8"/>
	</g>
	<g>
		<linearGradient id="SVGID_10_" gradientUnits="userSpaceOnUse" x1="84.467" y1="68.5" x2="84.467" y2="-4.5">
			<stop  offset="0" style="stop-color:#2466CC"/>
			<stop  offset="1" style="stop-color:#5FC3E2"/>
		</linearGradient>
		<circle class="st9" cx="84.5" cy="48.3" r="4.8"/>
	</g>
	<g>
		<linearGradient id="SVGID_11_" gradientUnits="userSpaceOnUse" x1="68.1557" y1="68.5" x2="68.1557" y2="-4.5">
			<stop  offset="0" style="stop-color:#2466CC"/>
			<stop  offset="1" style="stop-color:#5FC3E2"/>
		</linearGradient>
		<circle class="st10" cx="68.2" cy="48.3" r="4.8"/>
	</g>
</g>
<g>
	<g>
		<linearGradient id="SVGID_12_" gradientUnits="userSpaceOnUse" x1="11.1718" y1="68.5" x2="11.1718" y2="-4.5">
			<stop  offset="0" style="stop-color:#2466CC"/>
			<stop  offset="1" style="stop-color:#5FC3E2"/>
		</linearGradient>
		<circle class="st11" cx="11.2" cy="14.1" r="3.5"/>
	</g>
	<g>
		<linearGradient id="SVGID_13_" gradientUnits="userSpaceOnUse" x1="27.4479" y1="68.5" x2="27.4479" y2="-4.5">
			<stop  offset="0" style="stop-color:#2466CC"/>
			<stop  offset="1" style="stop-color:#5FC3E2"/>
		</linearGradient>
		<circle class="st12" cx="27.4" cy="14.1" r="3.5"/>
	</g>
	<g>
		<linearGradient id="SVGID_14_" gradientUnits="userSpaceOnUse" x1="43.7239" y1="68.5" x2="43.7239" y2="-4.5">
			<stop  offset="0" style="stop-color:#2466CC"/>
			<stop  offset="1" style="stop-color:#5FC3E2"/>
		</linearGradient>
		<circle class="st13" cx="43.7" cy="14.1" r="3.5"/>
	</g>
	<g>
		<linearGradient id="SVGID_15_" gradientUnits="userSpaceOnUse" x1="60" y1="68.5" x2="60" y2="-4.5">
			<stop  offset="0" style="stop-color:#2466CC"/>
			<stop  offset="1" style="stop-color:#5FC3E2"/>
		</linearGradient>
		<circle class="st14" cx="60" cy="14.1" r="3.5"/>
	</g>
	<g>
		<linearGradient id="SVGID_16_" gradientUnits="userSpaceOnUse" x1="108.8282" y1="68.5" x2="108.8282" y2="-4.5">
			<stop  offset="0" style="stop-color:#2466CC"/>
			<stop  offset="1" style="stop-color:#5FC3E2"/>
		</linearGradient>
		<circle class="st15" cx="108.8" cy="14.1" r="3.5"/>
	</g>
	<g>
		<linearGradient id="SVGID_17_" gradientUnits="userSpaceOnUse" x1="92.5521" y1="68.5" x2="92.5521" y2="-4.5">
			<stop  offset="0" style="stop-color:#2466CC"/>
			<stop  offset="1" style="stop-color:#5FC3E2"/>
		</linearGradient>
		<circle class="st16" cx="92.6" cy="14.1" r="3.5"/>
	</g>
	<g>
		<linearGradient id="SVGID_18_" gradientUnits="userSpaceOnUse" x1="76.2761" y1="68.5" x2="76.2761" y2="-4.5">
			<stop  offset="0" style="stop-color:#2466CC"/>
			<stop  offset="1" style="stop-color:#5FC3E2"/>
		</linearGradient>
		<circle class="st17" cx="76.3" cy="14.1" r="3.5"/>
	</g>
</g>
<g>
	<g>
		<linearGradient id="SVGID_19_" gradientUnits="userSpaceOnUse" x1="19.2922" y1="68.5" x2="19.2922" y2="-4.5">
			<stop  offset="0" style="stop-color:#2466CC"/>
			<stop  offset="1" style="stop-color:#5FC3E2"/>
		</linearGradient>
		<circle class="st18" cx="19.3" cy="25.5" r="3.9"/>
	</g>
	<g>
		<linearGradient id="SVGID_20_" gradientUnits="userSpaceOnUse" x1="35.5753" y1="68.5" x2="35.5753" y2="-4.5">
			<stop  offset="0" style="stop-color:#2466CC"/>
			<stop  offset="1" style="stop-color:#5FC3E2"/>
		</linearGradient>
		<circle class="st19" cx="35.6" cy="25.5" r="3.9"/>
	</g>
	<g>
		<linearGradient id="SVGID_21_" gradientUnits="userSpaceOnUse" x1="51.8584" y1="68.5" x2="51.8584" y2="-4.5">
			<stop  offset="0" style="stop-color:#2466CC"/>
			<stop  offset="1" style="stop-color:#5FC3E2"/>
		</linearGradient>
		<circle class="st20" cx="51.9" cy="25.5" r="3.9"/>
	</g>
	<g>
		<linearGradient id="SVGID_22_" gradientUnits="userSpaceOnUse" x1="100.7078" y1="68.5" x2="100.7078" y2="-4.5">
			<stop  offset="0" style="stop-color:#2466CC"/>
			<stop  offset="1" style="stop-color:#5FC3E2"/>
		</linearGradient>
		<circle class="st21" cx="100.7" cy="25.5" r="3.9"/>
	</g>
	<g>
		<linearGradient id="SVGID_23_" gradientUnits="userSpaceOnUse" x1="84.4247" y1="68.5" x2="84.4247" y2="-4.5">
			<stop  offset="0" style="stop-color:#2466CC"/>
			<stop  offset="1" style="stop-color:#5FC3E2"/>
		</linearGradient>
		<circle class="st22" cx="84.4" cy="25.5" r="3.9"/>
	</g>
	<g>
		<linearGradient id="SVGID_24_" gradientUnits="userSpaceOnUse" x1="68.1416" y1="68.5" x2="68.1416" y2="-4.5">
			<stop  offset="0" style="stop-color:#2466CC"/>
			<stop  offset="1" style="stop-color:#5FC3E2"/>
		</linearGradient>
		<circle class="st23" cx="68.1" cy="25.5" r="3.9"/>
	</g>
</g>
<g>
	<g>
		<linearGradient id="SVGID_25_" gradientUnits="userSpaceOnUse" x1="3.0514" y1="68.5" x2="3.0514" y2="-4.5">
			<stop  offset="0" style="stop-color:#2466CC"/>
			<stop  offset="1" style="stop-color:#5FC3E2"/>
		</linearGradient>
		<circle class="st24" cx="3.1" cy="3.1" r="3.1"/>
	</g>
	<g>
		<linearGradient id="SVGID_26_" gradientUnits="userSpaceOnUse" x1="19.3224" y1="68.5" x2="19.3224" y2="-4.5">
			<stop  offset="0" style="stop-color:#2466CC"/>
			<stop  offset="1" style="stop-color:#5FC3E2"/>
		</linearGradient>
		<circle class="st25" cx="19.3" cy="3.1" r="3.1"/>
	</g>
	<g>
		<linearGradient id="SVGID_27_" gradientUnits="userSpaceOnUse" x1="35.5935" y1="68.5" x2="35.5935" y2="-4.5">
			<stop  offset="0" style="stop-color:#2466CC"/>
			<stop  offset="1" style="stop-color:#5FC3E2"/>
		</linearGradient>
		<circle class="st26" cx="35.6" cy="3.1" r="3.1"/>
	</g>
	<g>
		<linearGradient id="SVGID_28_" gradientUnits="userSpaceOnUse" x1="51.8645" y1="68.5" x2="51.8645" y2="-4.5">
			<stop  offset="0" style="stop-color:#2466CC"/>
			<stop  offset="1" style="stop-color:#5FC3E2"/>
		</linearGradient>
		<circle class="st27" cx="51.9" cy="3.1" r="3.1"/>
	</g>
	<g>
		<linearGradient id="SVGID_29_" gradientUnits="userSpaceOnUse" x1="116.9486" y1="68.5" x2="116.9486" y2="-4.5">
			<stop  offset="0" style="stop-color:#2466CC"/>
			<stop  offset="1" style="stop-color:#5FC3E2"/>
		</linearGradient>
		<circle class="st28" cx="116.9" cy="3.1" r="3.1"/>
	</g>
	<g>
		<linearGradient id="SVGID_30_" gradientUnits="userSpaceOnUse" x1="100.6776" y1="68.5" x2="100.6776" y2="-4.5">
			<stop  offset="0" style="stop-color:#2466CC"/>
			<stop  offset="1" style="stop-color:#5FC3E2"/>
		</linearGradient>
		<circle class="st29" cx="100.7" cy="3.1" r="3.1"/>
	</g>
	<g>
		<linearGradient id="SVGID_31_" gradientUnits="userSpaceOnUse" x1="84.4065" y1="68.5" x2="84.4065" y2="-4.5">
			<stop  offset="0" style="stop-color:#2466CC"/>
			<stop  offset="1" style="stop-color:#5FC3E2"/>
		</linearGradient>
		<circle class="st30" cx="84.4" cy="3.1" r="3.1"/>
	</g>
	<g>
		<linearGradient id="SVGID_32_" gradientUnits="userSpaceOnUse" x1="68.1355" y1="68.5" x2="68.1355" y2="-4.5">
			<stop  offset="0" style="stop-color:#2466CC"/>
			<stop  offset="1" style="stop-color:#5FC3E2"/>
		</linearGradient>
		<circle class="st31" cx="68.1" cy="3.1" r="3.1"/>
	</g>
</g>
<g>
	<path class="st32" d="M154.2,27.9l-3.5-11.5l-3.5,11.5h-2.9l-4.5-14.7h2.5l3.5,12l3.6-12h2.7l3.6,12l3.5-12h2.4l-4.5,14.7H154.2z"
		/>
	<path class="st32" d="M170.3,27.9v-1.2c-0.7,0.9-1.7,1.5-3.2,1.5c-2.8,0-5-2.2-5-5.3c0-3.1,2.2-5.3,5-5.3c1.4,0,2.5,0.6,3.2,1.5
		v-1.2h2.2v10.1H170.3z M164.4,22.9c0,1.8,1.1,3.2,3,3.2c1.8,0,3-1.4,3-3.2c0-1.8-1.2-3.2-3-3.2C165.5,19.7,164.4,21.1,164.4,22.9z"
		/>
	<path class="st32" d="M178.6,19.8v4.4c0,1.3,0.7,1.9,1.6,1.9c0.7,0,1.4-0.3,2-0.7l0.9,1.8c-0.8,0.5-1.8,1-3.1,1
		c-2.3,0-3.6-1.2-3.6-3.9v-4.4h-2v-2h2v-3h2.2v3h3.9v2H178.6z"/>
	<path class="st32" d="M193.6,22.9c0,0.3,0,0.6,0,0.8h-7.4c0.3,1.8,1.6,2.6,3,2.6c1,0,2.1-0.4,2.9-1.1l1.1,1.6
		c-1.2,1-2.6,1.4-4.1,1.4c-3,0-5.1-2.1-5.1-5.3c0-3.1,2-5.3,5-5.3C191.6,17.6,193.6,19.7,193.6,22.9z M186.1,22h5.2
		c-0.2-1.6-1.2-2.5-2.6-2.5C187.2,19.5,186.3,20.6,186.1,22z"/>
	<path class="st32" d="M202.8,17.9l-0.5,2.2c-0.5-0.2-1.1-0.4-1.7-0.4c-1.4,0-2.4,1-2.4,2.7v5.5H196V17.9h2.2V19
		c0.7-1,1.7-1.4,2.9-1.4C201.8,17.6,202.3,17.7,202.8,17.9z"/>
	<path class="st32" d="M210.5,27.9V13.2h10.6v2.2h-8.2v4h7.9v2.2h-7.9v4.1h8.3v2.2H210.5z"/>
	<path class="st32" d="M233.5,21.6v6.3h-2.2v-5.6c0-1.7-0.9-2.6-2.3-2.6c-1.4,0-2.6,0.9-2.6,2.7v5.6h-2.2V17.9h2.2v1.2
		c0.8-1.2,2.1-1.5,3.1-1.5C231.8,17.6,233.5,19.2,233.5,21.6z"/>
	<path class="st32" d="M238.8,27.9l-4-10.1h2.4l3,7.8l3-7.8h2.3l-4,10.1H238.8z"/>
	<path class="st32" d="M249.8,14.4c0,0.9-0.7,1.5-1.6,1.5c-0.9,0-1.5-0.7-1.5-1.5c0-0.9,0.7-1.6,1.5-1.6
		C249.1,12.8,249.8,13.5,249.8,14.4z M247.1,27.9V17.9h2.2v10.1H247.1z"/>
	<path class="st32" d="M259.2,17.9l-0.5,2.2c-0.5-0.2-1.1-0.4-1.7-0.4c-1.4,0-2.4,1-2.4,2.7v5.5h-2.2V17.9h2.2V19
		c0.7-1,1.7-1.4,2.9-1.4C258.1,17.6,258.7,17.7,259.2,17.9z"/>
	<path class="st32" d="M270.9,22.9c0,3-2.3,5.3-5.4,5.3s-5.4-2.3-5.4-5.3c0-3,2.3-5.3,5.4-5.3S270.9,19.9,270.9,22.9z M262.3,22.9
		c0,1.9,1.4,3.2,3.1,3.2c1.8,0,3.2-1.3,3.2-3.2c0-1.9-1.4-3.2-3.2-3.2C263.7,19.7,262.3,21,262.3,22.9z"/>
	<path class="st32" d="M282.7,21.6v6.3h-2.2v-5.6c0-1.7-0.9-2.6-2.3-2.6c-1.4,0-2.6,0.9-2.6,2.7v5.6h-2.2V17.9h2.2v1.2
		c0.8-1.2,2.1-1.5,3.1-1.5C281,17.6,282.7,19.2,282.7,21.6z"/>
	<path class="st32" d="M302.2,21.6v6.3H300v-5.6c0-1.7-0.9-2.6-2.3-2.6c-1.4,0-2.6,0.9-2.6,2.7v5.6h-2.2v-5.6c0-1.7-0.9-2.6-2.3-2.6
		c-1.4,0-2.6,0.9-2.6,2.7v5.6h-2.2V17.9h2.2v1.2c0.8-1.2,2.1-1.5,3.1-1.5c1.5,0,2.8,0.7,3.5,1.8c0.9-1.4,2.4-1.8,3.7-1.8
		C300.5,17.6,302.2,19.2,302.2,21.6z"/>
	<path class="st32" d="M314.3,22.9c0,0.3,0,0.6,0,0.8h-7.4c0.3,1.8,1.6,2.6,3,2.6c1,0,2.1-0.4,2.9-1.1l1.1,1.6
		c-1.2,1-2.6,1.4-4.1,1.4c-3,0-5.1-2.1-5.1-5.3c0-3.1,2-5.3,5-5.3C312.3,17.6,314.3,19.7,314.3,22.9z M306.8,22h5.2
		c-0.2-1.6-1.2-2.5-2.6-2.5C307.9,19.5,307,20.6,306.8,22z"/>
	<path class="st32" d="M326.1,21.6v6.3h-2.2v-5.6c0-1.7-0.9-2.6-2.3-2.6c-1.4,0-2.6,0.9-2.6,2.7v5.6h-2.2V17.9h2.2v1.2
		c0.8-1.2,2.1-1.5,3.1-1.5C324.4,17.6,326.1,19.2,326.1,21.6z"/>
	<path class="st32" d="M332,19.8v4.4c0,1.3,0.7,1.9,1.6,1.9c0.7,0,1.4-0.3,2-0.7l0.9,1.8c-0.8,0.5-1.8,1-3.1,1
		c-2.3,0-3.6-1.2-3.6-3.9v-4.4h-2v-2h2v-3h2.2v3h3.9v2H332z"/>
	<path class="st32" d="M151.5,51.9l-1.4-3.7h-6.7l-1.4,3.7h-2.5l5.8-14.7h3l5.8,14.7H151.5z M149.2,45.9l-2.5-6.3l-2.5,6.3H149.2z"
		/>
	<path class="st32" d="M160,43.5c-1.2,0-1.9,0.5-1.9,1.2s0.7,0.9,1.7,1l1,0.2c2.2,0.3,3.5,1.2,3.5,3c0,1.9-1.7,3.3-4.6,3.3
		c-1,0-2.9-0.2-4.3-1.3l1-1.6c0.7,0.6,1.7,1,3.3,1c1.5,0,2.3-0.5,2.3-1.2c0-0.6-0.5-0.9-1.7-1.1l-1-0.1c-2.2-0.3-3.4-1.3-3.4-2.9
		c0-2,1.6-3.2,4.2-3.2c1.6,0,3,0.4,4.1,1.1l-0.9,1.7C162.5,44,161.2,43.5,160,43.5z"/>
	<path class="st32" d="M170.3,43.5c-1.2,0-1.9,0.5-1.9,1.2s0.7,0.9,1.7,1l1,0.2c2.2,0.3,3.5,1.2,3.5,3c0,1.9-1.7,3.3-4.6,3.3
		c-1,0-2.9-0.2-4.3-1.3l1-1.6c0.7,0.6,1.7,1,3.3,1c1.5,0,2.3-0.5,2.3-1.2c0-0.6-0.5-0.9-1.7-1.1l-1-0.1c-2.2-0.3-3.4-1.3-3.4-2.9
		c0-2,1.6-3.2,4.2-3.2c1.6,0,3,0.4,4.1,1.1l-0.9,1.7C172.8,44,171.5,43.5,170.3,43.5z"/>
	<path class="st32" d="M187,46.9c0,3-2.3,5.3-5.4,5.3s-5.4-2.3-5.4-5.3c0-3,2.3-5.3,5.4-5.3S187,43.9,187,46.9z M178.4,46.9
		c0,1.9,1.4,3.2,3.1,3.2s3.2-1.3,3.2-3.2c0-1.9-1.4-3.2-3.2-3.2S178.4,45,178.4,46.9z"/>
	<path class="st32" d="M197.8,43.2l-1.4,1.5c-0.7-0.7-1.4-1-2.4-1c-1.7,0-3,1.3-3,3.2c0,1.9,1.3,3.2,3,3.2c1,0,1.8-0.5,2.5-1
		l1.4,1.5c-0.9,1.1-2.2,1.6-3.8,1.6c-3.2,0-5.3-2.3-5.3-5.3c0-3,2.1-5.3,5.3-5.3C195.6,41.6,196.9,42.1,197.8,43.2z"/>
	<path class="st32" d="M202.5,38.4c0,0.9-0.7,1.5-1.6,1.5c-0.9,0-1.5-0.7-1.5-1.5c0-0.9,0.7-1.6,1.5-1.6
		C201.8,36.8,202.5,37.5,202.5,38.4z M199.8,51.9V41.9h2.2v10.1H199.8z"/>
	<path class="st32" d="M212.5,51.9v-1.2c-0.7,0.9-1.7,1.5-3.2,1.5c-2.8,0-5-2.2-5-5.3c0-3.1,2.2-5.3,5-5.3c1.4,0,2.5,0.6,3.2,1.5
		v-1.2h2.2v10.1H212.5z M206.6,46.9c0,1.8,1.1,3.2,3,3.2c1.8,0,3-1.4,3-3.2c0-1.8-1.2-3.2-3-3.2C207.7,43.7,206.6,45.1,206.6,46.9z"
		/>
	<path class="st32" d="M220.8,43.8v4.4c0,1.3,0.7,1.9,1.6,1.9c0.7,0,1.4-0.3,2-0.7l0.9,1.8c-0.8,0.5-1.8,1-3.1,1
		c-2.3,0-3.6-1.2-3.6-3.9v-4.4h-2v-2h2v-3h2.2v3h3.9v2H220.8z"/>
	<path class="st32" d="M229.7,38.4c0,0.9-0.7,1.5-1.6,1.5c-0.9,0-1.5-0.7-1.5-1.5c0-0.9,0.7-1.6,1.5-1.6
		C229,36.8,229.7,37.5,229.7,38.4z M227,51.9V41.9h2.2v10.1H227z"/>
	<path class="st32" d="M242.4,46.9c0,3-2.3,5.3-5.4,5.3s-5.4-2.3-5.4-5.3c0-3,2.3-5.3,5.4-5.3S242.4,43.9,242.4,46.9z M233.8,46.9
		c0,1.9,1.4,3.2,3.1,3.2s3.2-1.3,3.2-3.2c0-1.9-1.4-3.2-3.2-3.2S233.8,45,233.8,46.9z"/>
	<path class="st32" d="M254.1,45.6v6.3h-2.2v-5.6c0-1.7-0.9-2.6-2.3-2.6c-1.4,0-2.6,0.9-2.6,2.7v5.6h-2.2V41.9h2.2v1.2
		c0.8-1.2,2.1-1.5,3.1-1.5C252.5,41.6,254.1,43.2,254.1,45.6z"/>
	<path class="st32" d="M272.8,46.9c0,3-2.3,5.3-5.4,5.3s-5.4-2.3-5.4-5.3c0-3,2.3-5.3,5.4-5.3S272.8,43.9,272.8,46.9z M264.3,46.9
		c0,1.9,1.4,3.2,3.1,3.2s3.2-1.3,3.2-3.2c0-1.9-1.4-3.2-3.2-3.2S264.3,45,264.3,46.9z"/>
	<path class="st32" d="M278.2,43.8v8.1H276v-8.1h-2v-2h2v-1.7c0-2,1-3.6,3.4-3.6c1.2,0,2,0.3,2.8,0.8l-0.8,1.8
		c-0.5-0.3-1.2-0.5-1.9-0.5c-0.9,0-1.3,0.5-1.3,1.6v1.7h3.4v2H278.2z"/>
	<path class="st32" d="M295.1,39.5v12.5h-2.4V39.5H288v-2.2h11.9v2.2H295.1z"/>
	<path class="st32" d="M309.1,46.9c0,0.3,0,0.6,0,0.8h-7.4c0.3,1.8,1.6,2.6,3,2.6c1,0,2.1-0.4,2.9-1.1l1.1,1.6
		c-1.2,1-2.6,1.4-4.1,1.4c-3,0-5.1-2.1-5.1-5.3c0-3.1,2-5.3,5-5.3C307.1,41.6,309.1,43.7,309.1,46.9z M301.6,46h5.2
		c-0.2-1.6-1.2-2.5-2.6-2.5C302.7,43.5,301.9,44.6,301.6,46z"/>
	<path class="st32" d="M320.3,51.9h-2.7l-2.6-3.5l-2.5,3.5H310l3.8-5.1l-3.7-4.9h2.7l2.4,3.4l2.5-3.4h2.6l-3.7,4.9L320.3,51.9z"/>
	<path class="st32" d="M329.2,51.9v-1.2c-0.7,0.9-1.7,1.5-3.2,1.5c-2.8,0-5-2.2-5-5.3c0-3.1,2.2-5.3,5-5.3c1.4,0,2.5,0.6,3.2,1.5
		v-1.2h2.2v10.1H329.2z M323.3,46.9c0,1.8,1.1,3.2,3,3.2c1.8,0,3-1.4,3-3.2c0-1.8-1.2-3.2-3-3.2C324.4,43.7,323.3,45.1,323.3,46.9z"
		/>
	<path class="st32" d="M338.2,43.5c-1.2,0-1.9,0.5-1.9,1.2s0.7,0.9,1.7,1l1,0.2c2.2,0.3,3.5,1.2,3.5,3c0,1.9-1.7,3.3-4.6,3.3
		c-1,0-2.9-0.2-4.3-1.3l1-1.6c0.7,0.6,1.7,1,3.3,1c1.5,0,2.3-0.5,2.3-1.2c0-0.6-0.5-0.9-1.7-1.1l-1-0.1c-2.2-0.3-3.4-1.3-3.4-2.9
		c0-2,1.6-3.2,4.2-3.2c1.6,0,3,0.4,4.1,1.1l-0.9,1.7C340.7,44,339.5,43.5,338.2,43.5z"/>
</g>
</svg>
