<?xml version="1.0" encoding="utf-8"?>
<!-- Generator: Adobe Illustrator 21.1.0, SVG Export Plug-In . SVG Version: 6.00 Build 0)  -->
<svg version="1.1" id="Layer_1" xmlns="http://www.w3.org/2000/svg" xmlns:xlink="http://www.w3.org/1999/xlink" x="0px" y="0px"
	 viewBox="0 0 160 160" style="enable-background:new 0 0 160 160;" xml:space="preserve">
<style type="text/css">
	.st0{fill:#2466CC;}
</style>
<g>
	<circle class="st0" cx="63.7" cy="107.2" r="5.3"/>
	<circle class="st0" cx="96.3" cy="107.2" r="5.3"/>
	<circle class="st0" cx="47.4" cy="84.4" r="4.4"/>
	<circle class="st0" cx="63.7" cy="84.4" r="4.4"/>
	<circle class="st0" cx="80" cy="84.4" r="4.4"/>
	<circle class="st0" cx="112.6" cy="84.4" r="4.4"/>
	<circle class="st0" cx="96.3" cy="84.4" r="4.4"/>
	<circle class="st0" cx="55.5" cy="95.8" r="4.8"/>
	<circle class="st0" cx="71.8" cy="95.8" r="4.8"/>
	<circle class="st0" cx="104.5" cy="95.8" r="4.8"/>
	<circle class="st0" cx="88.2" cy="95.8" r="4.8"/>
	<circle class="st0" cx="31.2" cy="61.6" r="3.5"/>
	<circle class="st0" cx="47.4" cy="61.6" r="3.5"/>
	<circle class="st0" cx="63.7" cy="61.6" r="3.5"/>
	<circle class="st0" cx="80" cy="61.6" r="3.5"/>
	<circle class="st0" cx="128.8" cy="61.6" r="3.5"/>
	<circle class="st0" cx="112.6" cy="61.6" r="3.5"/>
	<circle class="st0" cx="96.3" cy="61.6" r="3.5"/>
	<circle class="st0" cx="39.3" cy="73" r="3.9"/>
	<circle class="st0" cx="55.6" cy="73" r="3.9"/>
	<circle class="st0" cx="71.9" cy="73" r="3.9"/>
	<circle class="st0" cx="120.7" cy="73" r="3.9"/>
	<circle class="st0" cx="104.4" cy="73" r="3.9"/>
	<circle class="st0" cx="88.1" cy="73" r="3.9"/>
	<circle class="st0" cx="23.1" cy="50.6" r="3.1"/>
	<circle class="st0" cx="39.3" cy="50.6" r="3.1"/>
	<circle class="st0" cx="55.6" cy="50.6" r="3.1"/>
	<circle class="st0" cx="71.9" cy="50.6" r="3.1"/>
	<circle class="st0" cx="136.9" cy="50.6" r="3.1"/>
	<circle class="st0" cx="120.7" cy="50.6" r="3.1"/>
	<circle class="st0" cx="104.4" cy="50.6" r="3.1"/>
	<circle class="st0" cx="88.1" cy="50.6" r="3.1"/>
</g>
</svg>
