<?xml version="1.0" encoding="utf-8"?>
<!-- Generator: Adobe Illustrator 21.1.0, SVG Export Plug-In . SVG Version: 6.00 Build 0)  -->
<svg version="1.1" id="Layer_1" xmlns="http://www.w3.org/2000/svg" xmlns:xlink="http://www.w3.org/1999/xlink" x="0px" y="0px"
	 viewBox="0 0 120 120" style="enable-background:new 0 0 120 120;" xml:space="preserve">
<style type="text/css">
	.st0{fill:#FFFFFF;}
	.st1{fill:#10387A;}
	.st2{fill:#5FC3E2;}
</style>
<g>
	<g>
		<path class="st0" d="M79.5,90.9l-18.9,11.3L41.8,90.9C32.3,85.2,26.6,75,26.6,64V29.2l34.1-11.7l34.1,11.7V64
			C94.7,75,88.9,85.2,79.5,90.9z"/>
		<path class="st1" d="M60.6,103.7c-0.3,0-0.5-0.1-0.8-0.2L41,92.2C31.2,86.3,25.1,75.5,25.1,64V29.2c0-0.6,0.4-1.2,1-1.4l34.1-11.7
			c0.3-0.1,0.7-0.1,1,0l34.1,11.7c0.6,0.2,1,0.8,1,1.4V64c0,11.5-6.1,22.2-15.9,28.1l0,0l-18.9,11.3
			C61.2,103.6,60.9,103.7,60.6,103.7z M28.1,30.3V64c0,10.4,5.5,20.2,14.5,25.6l18.1,10.8l18.1-10.8c8.9-5.3,14.5-15.1,14.5-25.6
			V30.3L60.6,19.2L28.1,30.3z M79.5,90.9L79.5,90.9L79.5,90.9z"/>
	</g>
	<g>
		<path class="st0" d="M36.6,34.1l24-7.9l26.6,8.9v28.7c0,8.6-4.5,16.5-11.9,21l-14.7,8.8l-14.7-8.8"/>
		<path class="st1" d="M60.6,95.1c-0.3,0-0.5-0.1-0.8-0.2L45.1,86c-0.7-0.4-0.9-1.3-0.5-2.1c0.4-0.7,1.3-0.9,2.1-0.5l14,8.4l14-8.4
			c6.9-4.1,11.1-11.7,11.1-19.7V36.1l-25.1-8.4l-23.5,7.8c-0.8,0.3-1.6-0.2-1.9-1c-0.3-0.8,0.2-1.6,1-1.9l24-7.9
			c0.3-0.1,0.6-0.1,0.9,0l26.6,8.9c0.6,0.2,1,0.8,1,1.4v28.7c0,9.1-4.8,17.6-12.6,22.2l-14.7,8.8C61.2,95,60.9,95.1,60.6,95.1z"/>
	</g>
	<g>
		<g>
			<path class="st2" d="M60.6,36.8c-1.1,0-2-0.9-2-2s0.9-2,2-2s2,0.9,2,2v0.1C62.6,35.9,61.7,36.8,60.6,36.8z"/>
		</g>
	</g>
	<g>
		<g>
			<path class="st2" d="M60.6,86.4c-1.1,0-2-0.9-2-2s0.9-2,2-2s2,0.9,2,2v0C62.6,85.5,61.7,86.4,60.6,86.4z"/>
		</g>
	</g>
	<g>
		<g>
			<path class="st2" d="M52.2,39.2c-1.1,0-2-0.9-2-2s0.9-2,2-2s2,0.9,2,2v0C54.2,38.3,53.3,39.2,52.2,39.2z"/>
		</g>
	</g>
	<g>
		<g>
			<path class="st2" d="M52.2,82.5c-1.1,0-2-0.9-2-2s0.9-2,2-2s2,0.9,2,2v0C54.2,81.6,53.3,82.5,52.2,82.5z"/>
		</g>
	</g>
	<g>
		<g>
			<path class="st2" d="M44.5,41.6c-1.1,0-2-0.9-2-2s0.9-2,2-2s2,0.9,2,2v0C46.5,40.7,45.6,41.6,44.5,41.6z"/>
		</g>
	</g>
	<g>
		<g>
			<path class="st2" d="M44.5,78.5c-1.1,0-2-0.9-2-2s0.9-2,2-2s2,0.9,2,2v0C46.5,77.6,45.6,78.5,44.5,78.5z"/>
		</g>
	</g>
	<g>
		<g>
			<path class="st2" d="M36.8,43.9c-1.1,0-2-0.9-2-2s0.9-2,2-2s2,0.9,2,2v0C38.8,43,37.9,43.9,36.8,43.9z"/>
		</g>
	</g>
	<g>
		<g>
			<path class="st2" d="M52.2,46.8c-1.1,0-2-0.9-2-2s0.9-2,2-2s2,0.9,2,2v0C54.2,45.9,53.3,46.8,52.2,46.8z"/>
		</g>
	</g>
	<g>
		<g>
			<path class="st2" d="M44.5,48.9c-1.1,0-2-0.9-2-2s0.9-2,2-2s2,0.9,2,2v0C46.5,48.1,45.6,48.9,44.5,48.9z"/>
		</g>
	</g>
	<g>
		<g>
			<path class="st2" d="M36.8,51.6c-1.1,0-2-0.9-2-2s0.9-2,2-2s2,0.9,2,2v0C38.8,50.7,37.9,51.6,36.8,51.6z"/>
		</g>
	</g>
	<g>
		<g>
			<path class="st2" d="M45.4,56.2c-1.6,0.7-3.2-0.7-2.8-2.4c0.2-0.7,0.8-1.3,1.6-1.5c1.3-0.2,2.3,0.7,2.3,1.9v0
				C46.5,55.1,46.1,55.9,45.4,56.2z"/>
		</g>
	</g>
	<g>
		<g>
			<path class="st2" d="M36.8,59.3c-1.1,0-2-0.9-2-2s0.9-2,2-2s2,0.9,2,2v0C38.8,58.4,37.9,59.3,36.8,59.3z"/>
		</g>
	</g>
	<g>
		<path class="st2" d="M36.8,59.3c-1.1,0-2-0.9-2-2s0.9-2,2-2s2,0.8,2,2v0.1C38.8,58.4,37.9,59.3,36.8,59.3z"/>
	</g>
	<g>
		<g>
			<path class="st2" d="M44.5,63.7c-1.1,0-2-0.9-2-2s0.9-2,2-2s2,0.9,2,2v0C46.5,62.8,45.6,63.7,44.5,63.7z"/>
		</g>
	</g>
	<g>
		<g>
			<path class="st2" d="M36.8,66.9c-1.1,0-2-0.9-2-2s0.9-2,2-2s2,0.9,2,2v0C38.8,66,37.9,66.9,36.8,66.9z"/>
		</g>
	</g>
	<g>
		<path class="st2" d="M36.8,66.9c-1.1,0-2-0.9-2-2s0.9-2,2-2s2,0.8,2,2v0.1C38.8,66,37.9,66.9,36.8,66.9z"/>
	</g>
	<g>
		<g>
			<path class="st2" d="M44.5,71.1c-1.1,0-2-0.9-2-2s0.9-2,2-2s2,0.9,2,2v0C46.5,70.2,45.6,71.1,44.5,71.1z"/>
		</g>
	</g>
	<g>
		<g>
			<path class="st2" d="M36.8,74.6c-1.1,0-2-0.9-2-2s0.9-2,2-2s2,0.9,2,2v0C38.8,73.7,37.9,74.6,36.8,74.6z"/>
		</g>
	</g>
	<g>
		<path class="st2" d="M36.8,74.6c-1.1,0-2-0.9-2-2s0.9-2,2-2s2,0.8,2,2v0.1C38.8,73.7,37.9,74.6,36.8,74.6z"/>
	</g>
	<g>
		<path class="st0" d="M70.1,61.1c3.5,7-1.6,15.3-9.5,15.3h0c-7.9,0-13-8.3-9.5-15.3l9.5-18.9L70.1,61.1z"/>
		<path class="st1" d="M60.6,77.9c-4.2,0-8.1-2.1-10.3-5.7c-2.2-3.6-2.4-8-0.5-11.7l9.5-18.9c0.3-0.5,0.8-0.8,1.3-0.8
			s1.1,0.3,1.3,0.8l9.5,18.9l0,0c1.9,3.8,1.7,8.2-0.5,11.7C68.7,75.8,64.9,77.9,60.6,77.9z M60.6,45.6l-8.1,16.2
			c-1.4,2.8-1.3,6.1,0.4,8.8s4.6,4.3,7.7,4.3c3.2,0,6.1-1.6,7.7-4.3s1.8-6,0.4-8.8L60.6,45.6z"/>
	</g>
</g>
</svg>
