<?xml version="1.0" encoding="utf-8"?>
<!-- Generator: Adobe Illustrator 21.1.0, SVG Export Plug-In . SVG Version: 6.00 Build 0)  -->
<svg version="1.1" id="Layer_1" xmlns="http://www.w3.org/2000/svg" xmlns:xlink="http://www.w3.org/1999/xlink" x="0px" y="0px"
	 viewBox="0 0 120 120" style="enable-background:new 0 0 120 120;" xml:space="preserve">
<style type="text/css">
	.st0{fill:none;stroke:#10387A;stroke-width:3;stroke-linecap:round;stroke-linejoin:round;stroke-miterlimit:10;}
	.st1{fill:#5FC3E2;stroke:#10387A;stroke-width:3;stroke-linecap:round;stroke-linejoin:round;stroke-miterlimit:10;}
	.st2{fill:#FFFFFF;stroke:#10387A;stroke-width:3;stroke-linecap:round;stroke-linejoin:round;stroke-miterlimit:10;}
	.st3{fill:none;stroke:#5FC3E2;stroke-width:4;stroke-linecap:round;stroke-linejoin:round;}
	.st4{fill:none;stroke:#5FC3E2;stroke-width:4;stroke-linecap:round;stroke-linejoin:round;stroke-dasharray:9.338421e-02,7.4707;}
</style>
<polyline class="st0" points="103.9,97.1 111.8,97.1 111.8,30.6 60,30.6 8.2,30.6 8.2,97.1 16.7,97.1 "/>
<polygon class="st1" points="83.2,94.6 72,94.6 72,104.1 77.6,101.5 83.2,104.1 "/>
<polygon class="st2" points="60,97.1 15.9,90.2 15.9,23.7 60,30.6 "/>
<polygon class="st2" points="104.1,90.2 60,97.1 60,30.6 104.1,23.7 "/>
<polygon class="st2" points="60,97.1 23.7,82.5 23.7,15.9 60,30.6 "/>
<g>
	<g>
		<g>
			<line class="st3" x1="31.3" y1="28.9" x2="31.4" y2="28.9"/>
			<line class="st4" x1="38.3" y1="31.7" x2="48.9" y2="36"/>
			<line class="st3" x1="52.3" y1="37.4" x2="52.4" y2="37.4"/>
		</g>
	</g>
	<g>
		<g>
			<line class="st3" x1="31.3" y1="38.3" x2="31.4" y2="38.3"/>
			<line class="st4" x1="38.3" y1="41.1" x2="48.9" y2="45.4"/>
			<line class="st3" x1="52.3" y1="46.8" x2="52.4" y2="46.8"/>
		</g>
	</g>
	<g>
		<g>
			<line class="st3" x1="31.3" y1="47.6" x2="31.4" y2="47.6"/>
			<line class="st4" x1="38.3" y1="50.4" x2="48.9" y2="54.7"/>
			<line class="st3" x1="52.3" y1="56.1" x2="52.4" y2="56.1"/>
		</g>
	</g>
	<g>
		<g>
			<line class="st3" x1="31.3" y1="57" x2="31.4" y2="57"/>
			<line class="st4" x1="38.3" y1="59.8" x2="48.9" y2="64.1"/>
			<line class="st3" x1="52.3" y1="65.5" x2="52.4" y2="65.5"/>
		</g>
	</g>
	<g>
		<g>
			<line class="st3" x1="31.3" y1="66.3" x2="31.4" y2="66.3"/>
			<line class="st4" x1="38.3" y1="69.1" x2="48.9" y2="73.4"/>
			<line class="st3" x1="52.3" y1="74.8" x2="52.4" y2="74.8"/>
		</g>
	</g>
	<g>
		<g>
			<line class="st3" x1="52.4" y1="84.2" x2="52.3" y2="84.2"/>
			<line class="st4" x1="45.4" y1="81.4" x2="34.8" y2="77.1"/>
			<line class="st3" x1="31.4" y1="75.7" x2="31.3" y2="75.7"/>
		</g>
	</g>
</g>
<polygon class="st2" points="96.3,82.5 60,97.1 60,30.6 96.3,15.9 "/>
<g>
	<g>
		<g>
			<line class="st3" x1="88.7" y1="28.9" x2="88.6" y2="28.9"/>
			<line class="st4" x1="81.7" y1="31.7" x2="71.1" y2="36"/>
			<line class="st3" x1="67.7" y1="37.4" x2="67.6" y2="37.4"/>
		</g>
	</g>
	<g>
		<g>
			<line class="st3" x1="88.7" y1="38.3" x2="88.6" y2="38.3"/>
			<line class="st4" x1="81.7" y1="41.1" x2="71.1" y2="45.4"/>
			<line class="st3" x1="67.7" y1="46.8" x2="67.6" y2="46.8"/>
		</g>
	</g>
	<g>
		<g>
			<line class="st3" x1="88.7" y1="47.6" x2="88.6" y2="47.6"/>
			<line class="st4" x1="81.7" y1="50.4" x2="71.1" y2="54.7"/>
			<line class="st3" x1="67.7" y1="56.1" x2="67.6" y2="56.1"/>
		</g>
	</g>
	<g>
		<g>
			<line class="st3" x1="88.7" y1="57" x2="88.6" y2="57"/>
			<line class="st4" x1="81.7" y1="59.8" x2="71.1" y2="64.1"/>
			<line class="st3" x1="67.7" y1="65.5" x2="67.6" y2="65.5"/>
		</g>
	</g>
	<g>
		<g>
			<line class="st3" x1="88.7" y1="66.3" x2="88.6" y2="66.3"/>
			<line class="st4" x1="81.7" y1="69.1" x2="71.1" y2="73.4"/>
			<line class="st3" x1="67.7" y1="74.8" x2="67.6" y2="74.8"/>
		</g>
	</g>
	<g>
		<g>
			<line class="st3" x1="67.6" y1="84.2" x2="67.7" y2="84.2"/>
			<line class="st4" x1="74.6" y1="81.4" x2="85.2" y2="77.1"/>
			<line class="st3" x1="88.6" y1="75.7" x2="88.7" y2="75.7"/>
		</g>
	</g>
</g>
</svg>
