<?xml version="1.0" encoding="utf-8"?>
<!-- Generator: Adobe Illustrator 21.1.0, SVG Export Plug-In . SVG Version: 6.00 Build 0)  -->
<svg version="1.1" id="Layer_1" xmlns="http://www.w3.org/2000/svg" xmlns:xlink="http://www.w3.org/1999/xlink" x="0px" y="0px"
	 viewBox="0 0 120 120" style="enable-background:new 0 0 120 120;" xml:space="preserve">
<style type="text/css">
	.st0{fill:none;stroke:#10387A;stroke-width:3;stroke-linecap:round;stroke-linejoin:round;stroke-miterlimit:10;}
	.st1{fill:#FFFFFF;stroke:#10387A;stroke-width:3;stroke-linecap:round;stroke-linejoin:round;stroke-miterlimit:10;}
	.st2{fill:#5FC3E2;}
</style>
<rect x="55.1" y="16" class="st0" width="9" height="15"/>
<line class="st0" x1="53.1" y1="16" x2="66.1" y2="16"/>
<line class="st0" x1="27.1" y1="59" x2="92.1" y2="59"/>
<rect x="19.5" y="74" class="st0" width="80" height="8"/>
<line class="st0" x1="59.6" y1="60" x2="59.6" y2="74"/>
<line class="st0" x1="50.4" y1="60" x2="50.4" y2="74"/>
<line class="st0" x1="41.3" y1="60" x2="41.3" y2="74"/>
<line class="st0" x1="87.1" y1="60" x2="87.1" y2="74"/>
<line class="st0" x1="77.9" y1="60" x2="77.9" y2="74"/>
<line class="st0" x1="68.8" y1="60" x2="68.8" y2="74"/>
<line class="st0" x1="32.1" y1="60" x2="32.1" y2="74"/>
<line class="st0" x1="50.4" y1="89" x2="50.4" y2="93"/>
<line class="st0" x1="41.3" y1="89" x2="41.3" y2="96"/>
<line class="st0" x1="87.1" y1="89" x2="87.1" y2="101"/>
<line class="st0" x1="77.9" y1="89" x2="77.9" y2="96"/>
<line class="st0" x1="96.1" y1="89" x2="96.1" y2="105"/>
<line class="st0" x1="23" y1="89" x2="23" y2="105"/>
<line class="st0" x1="68.8" y1="89" x2="68.8" y2="93"/>
<line class="st0" x1="32.1" y1="89" x2="32.1" y2="101"/>
<path class="st1" d="M87.1,52.5C87.1,37.3,74.8,25,59.6,25S32.1,37.3,32.1,52.5"/>
<g>
	<g>
		<path class="st2" d="M42.6,52.5c-1.1,0-2-0.9-2-2s0.9-2,2-2h0c1.1,0,2,0.9,2,2S43.7,52.5,42.6,52.5z"/>
	</g>
	<g>
		<path class="st2" d="M68.1,52.5H68c-1.1,0-2-0.9-2-2s0.9-2,2-2h0.1c1.1,0,2,0.9,2,2S69.2,52.5,68.1,52.5z M59.6,52.5h-0.1
			c-1.1,0-2-0.9-2-2s0.9-2,2-2h0.1c1.1,0,2,0.9,2,2S60.7,52.5,59.6,52.5z M51.1,52.5H51c-1.1,0-2-0.9-2-2s0.9-2,2-2h0.1
			c1.1,0,2,0.9,2,2S52.2,52.5,51.1,52.5z"/>
	</g>
	<g>
		<path class="st2" d="M76.6,52.5c-1.1,0-2-0.9-2-2s0.9-2,2-2h0c1.1,0,2,0.9,2,2S77.7,52.5,76.6,52.5z"/>
	</g>
</g>
<g>
	<g>
		<path class="st2" d="M42.6,44.5c-1.1,0-2-0.9-2-2s0.9-2,2-2h0c1.1,0,2,0.9,2,2S43.7,44.5,42.6,44.5z"/>
	</g>
	<g>
		<path class="st2" d="M68.1,44.5H68c-1.1,0-2-0.9-2-2s0.9-2,2-2h0.1c1.1,0,2,0.9,2,2S69.2,44.5,68.1,44.5z M59.6,44.5h-0.1
			c-1.1,0-2-0.9-2-2s0.9-2,2-2h0.1c1.1,0,2,0.9,2,2S60.7,44.5,59.6,44.5z M51.1,44.5H51c-1.1,0-2-0.9-2-2s0.9-2,2-2h0.1
			c1.1,0,2,0.9,2,2S52.2,44.5,51.1,44.5z"/>
	</g>
	<g>
		<path class="st2" d="M76.6,44.5c-1.1,0-2-0.9-2-2s0.9-2,2-2h0c1.1,0,2,0.9,2,2S77.7,44.5,76.6,44.5z"/>
	</g>
</g>
<g>
	<g>
		<path class="st2" d="M68.1,36.5H68c-1.1,0-2-0.9-2-2s0.9-2,2-2h0.1c1.1,0,2,0.9,2,2S69.2,36.5,68.1,36.5z M59.6,36.5h-0.1
			c-1.1,0-2-0.9-2-2s0.9-2,2-2h0.1c1.1,0,2,0.9,2,2S60.7,36.5,59.6,36.5z M51.1,36.5H51c-1.1,0-2-0.9-2-2s0.9-2,2-2h0.1
			c1.1,0,2,0.9,2,2S52.2,36.5,51.1,36.5z"/>
	</g>
</g>
<line class="st0" x1="59.6" y1="16" x2="59.6" y2="3"/>
<polyline class="st1" points="101.6,108.5 59.5,87.4 17.4,108.5 "/>
<line class="st1" x1="41.1" y1="104.6" x2="17.4" y2="116.5"/>
<line class="st1" x1="101.6" y1="116.5" x2="78.4" y2="104.9"/>
<circle class="st2" cx="59.5" cy="104" r="3"/>
<circle class="st0" cx="59.5" cy="104" r="7.5"/>
</svg>
