<?xml version="1.0" encoding="utf-8"?>
<!-- Generator: Adobe Illustrator 21.1.0, SVG Export Plug-In . SVG Version: 6.00 Build 0)  -->
<svg version="1.1" id="Layer_1" xmlns="http://www.w3.org/2000/svg" xmlns:xlink="http://www.w3.org/1999/xlink" x="0px" y="0px"
	 viewBox="0 0 120 120" style="enable-background:new 0 0 120 120;" xml:space="preserve">
<style type="text/css">
	.st0{fill:#5FC3E2;}
	.st1{fill:#FFFFFF;}
	.st2{fill:#10387A;}
</style>
<g>
	<g>
		<path class="st0" d="M18.9,38.9c-1.1,0-2-0.9-2-2c0-0.7,0.4-1.4,1-1.8c1-0.5,2.2-0.2,2.7,0.7c0.5,0.8,0.3,1.9-0.4,2.5
			C19.9,38.7,19.4,38.9,18.9,38.9z"/>
	</g>
</g>
<g>
	<g>
		<path class="st0" d="M18.9,86.9c-0.3,0-0.7-0.1-1-0.3c-0.6-0.4-1.1-1-1.1-1.8c0-1.1,0.9-2,2-2c1,0,1.8,0.7,2,1.6
			c0.1,0.5,0.1,1-0.2,1.4C20.3,86.6,19.6,86.9,18.9,86.9z"/>
	</g>
</g>
<g>
	<g>
		<path class="st0" d="M60.4,110.9c-0.3,0-0.7-0.1-1-0.3c-1-0.6-1.3-1.8-0.7-2.7c0.5-0.8,1.5-1.2,2.4-0.9c0.5,0.1,0.9,0.4,1.1,0.9
			c0.6,1,0.3,2.2-0.7,2.7C61.2,110.8,60.8,110.9,60.4,110.9z"/>
	</g>
</g>
<g>
	<g>
		<g>
			<path class="st0" d="M72.2,104.9c-0.7,0-1.4-0.3-1.7-1c-0.6-1-0.3-2.2,0.7-2.7l0.1,0c1-0.6,2.2-0.2,2.7,0.7
				c0.6,1,0.2,2.2-0.7,2.7C72.9,104.8,72.5,104.9,72.2,104.9z"/>
		</g>
		<g>
			<path class="st0" d="M79.1,100.9c-0.7,0-1.4-0.3-1.7-1c-0.6-1-0.3-2.2,0.7-2.7l0.1,0c1-0.6,2.2-0.2,2.7,0.7
				c0.6,1,0.2,2.2-0.7,2.7C79.8,100.8,79.4,100.9,79.1,100.9z"/>
		</g>
		<g>
			<path class="st0" d="M86,96.9c-0.7,0-1.4-0.3-1.7-1c-0.6-1-0.3-2.2,0.7-2.7l0.1,0c1-0.6,2.2-0.2,2.7,0.7c0.6,1,0.2,2.2-0.7,2.7
				C86.7,96.8,86.4,96.9,86,96.9z"/>
		</g>
	</g>
	<g>
		<g>
			<path class="st0" d="M47.5,104.6c-1-0.6-1.3-1.8-0.7-2.7c0.6-1,1.8-1.3,2.7-0.7l0.1,0c1,0.6,1.2,1.8,0.7,2.7c-0.4,0.6-1,1-1.7,1
				C48.2,104.9,47.8,104.8,47.5,104.6z"/>
		</g>
		<g>
			<path class="st0" d="M40.6,100.6c-1-0.6-1.3-1.8-0.7-2.7c0.6-1,1.8-1.3,2.7-0.7l0.1,0c1,0.6,1.2,1.8,0.7,2.7c-0.4,0.6-1,1-1.7,1
				C41.2,100.9,40.9,100.8,40.6,100.6z"/>
		</g>
		<g>
			<path class="st0" d="M33.6,96.6c-1-0.6-1.3-1.8-0.7-2.7c0.6-1,1.8-1.3,2.7-0.7l0.1,0c1,0.6,1.2,1.8,0.7,2.7c-0.4,0.6-1,1-1.7,1
				C34.3,96.9,34,96.8,33.6,96.6z"/>
		</g>
	</g>
</g>
<g>
	<g>
		<path class="st0" d="M76.2,53.8c-0.7,0-1.4-0.3-1.7-1c-0.6-1-0.3-2.2,0.7-2.7l0.1,0c1-0.6,2.2-0.2,2.7,0.7c0.6,1,0.2,2.2-0.7,2.7
			C76.9,53.7,76.5,53.8,76.2,53.8z"/>
	</g>
	<g>
		<path class="st0" d="M83.1,49.8c-0.7,0-1.4-0.3-1.7-1c-0.6-1-0.3-2.2,0.7-2.7l0.1,0c1-0.6,2.2-0.2,2.7,0.7c0.6,1,0.2,2.2-0.7,2.7
			C83.8,49.7,83.4,49.8,83.1,49.8z"/>
	</g>
	<g>
		<path class="st0" d="M90,45.8c-0.7,0-1.4-0.3-1.7-1c-0.6-1-0.3-2.2,0.7-2.7l0.1,0c1-0.6,2.2-0.2,2.7,0.7c0.6,1,0.2,2.2-0.7,2.7
			C90.7,45.7,90.4,45.8,90,45.8z"/>
	</g>
</g>
<g>
	<g>
		<path class="st0" d="M42.6,53.5c-1-0.6-1.3-1.8-0.7-2.7c0.6-1,1.8-1.3,2.7-0.7l0.1,0c1,0.6,1.2,1.8,0.7,2.7c-0.4,0.6-1,1-1.7,1
			C43.3,53.8,42.9,53.7,42.6,53.5z"/>
	</g>
	<g>
		<path class="st0" d="M35.7,49.5c-1-0.6-1.3-1.8-0.7-2.7c0.6-1,1.8-1.3,2.7-0.7l0.1,0c1,0.6,1.2,1.8,0.7,2.7c-0.4,0.6-1,1-1.7,1
			C36.3,49.8,36,49.7,35.7,49.5z"/>
	</g>
	<g>
		<path class="st0" d="M28.7,45.5c-1-0.6-1.3-1.8-0.7-2.7c0.6-1,1.8-1.3,2.7-0.7l0.1,0c1,0.6,1.2,1.8,0.7,2.7c-0.4,0.6-1,1-1.7,1
			C29.4,45.8,29,45.7,28.7,45.5z"/>
	</g>
</g>
<g>
	<g>
		<path class="st0" d="M78,21.2c1,0.6,1.3,1.8,0.7,2.7c-0.6,1-1.8,1.3-2.7,0.7l-0.1,0c-1-0.6-1.2-1.8-0.7-2.7c0.4-0.6,1-1,1.7-1
			C77.3,20.9,77.7,21,78,21.2z"/>
	</g>
	<g>
		<path class="st0" d="M84.9,25.2c1,0.6,1.3,1.8,0.7,2.7c-0.6,1-1.8,1.3-2.7,0.7l-0.1,0c-1-0.6-1.2-1.8-0.7-2.7c0.4-0.6,1-1,1.7-1
			C84.3,24.9,84.6,25,84.9,25.2z"/>
	</g>
	<g>
		<path class="st0" d="M91.9,29.2c1,0.6,1.3,1.8,0.7,2.7c-0.6,1-1.8,1.3-2.7,0.7l-0.1,0c-1-0.6-1.2-1.8-0.7-2.7c0.4-0.6,1-1,1.7-1
			C91.2,28.9,91.6,29,91.9,29.2z"/>
	</g>
</g>
<g>
	<g>
		<path class="st0" d="M43.6,20.9c0.7,0,1.4,0.3,1.7,1c0.6,1,0.3,2.2-0.7,2.7l-0.1,0c-1,0.6-2.2,0.2-2.7-0.7c-0.6-1-0.2-2.2,0.7-2.7
			C42.9,21,43.3,20.9,43.6,20.9z"/>
	</g>
	<g>
		<path class="st0" d="M36.7,24.9c0.7,0,1.4,0.3,1.7,1c0.6,1,0.3,2.2-0.7,2.7l-0.1,0c-1,0.6-2.2,0.2-2.7-0.7c-0.6-1-0.2-2.2,0.7-2.7
			C36,25,36.3,24.9,36.7,24.9z"/>
	</g>
	<g>
		<path class="st0" d="M29.8,28.9c0.7,0,1.4,0.3,1.7,1c0.6,1,0.3,2.2-0.7,2.7l-0.1,0c-1,0.6-2.2,0.2-2.7-0.7c-0.6-1-0.2-2.2,0.7-2.7
			C29,29,29.4,28.9,29.8,28.9z"/>
	</g>
</g>
<g>
	<g>
		<path class="st0" d="M102,86.9c-0.7,0-1.4-0.4-1.8-1c-0.5-0.9-0.3-1.9,0.4-2.5c0.4-0.3,0.8-0.5,1.3-0.5c1.1,0,2,0.9,2,2
			c0,0.7-0.4,1.4-1,1.8C102.7,86.8,102.4,86.9,102,86.9z"/>
	</g>
</g>
<g>
	<path class="st0" d="M102,68.9c-1.1,0-2-0.8-2-2v-0.1c0-1.1,0.9-2,2-2s2,0.9,2,2S103.1,68.9,102,68.9z"/>
</g>
<g>
	<path class="st0" d="M102,60.9c-1.1,0-2-0.8-2-2v-0.1c0-1.1,0.9-2,2-2s2,0.9,2,2S103.1,60.9,102,60.9z"/>
</g>
<g>
	<path class="st0" d="M102,52.9c-1.1,0-2-0.8-2-2v-0.1c0-1.1,0.9-2,2-2s2,0.9,2,2S103.1,52.9,102,52.9z"/>
</g>
<g>
	<path class="st0" d="M60.5,97c-1.1,0-2-0.8-2-2v-0.1c0-1.1,0.9-2,2-2s2,0.9,2,2S61.6,97,60.5,97z"/>
</g>
<g>
	<path class="st0" d="M60.5,89c-1.1,0-2-0.8-2-2v-0.1c0-1.1,0.9-2,2-2s2,0.9,2,2S61.6,89,60.5,89z"/>
</g>
<g>
	<path class="st0" d="M60.5,80.9c-1.1,0-2-0.8-2-2v-0.1c0-1.1,0.9-2,2-2s2,0.9,2,2S61.6,80.9,60.5,80.9z"/>
</g>
<g>
	<path class="st0" d="M18.9,68.9c-1.1,0-2-0.8-2-2v-0.1c0-1.1,0.9-2,2-2s2,0.9,2,2S20,68.9,18.9,68.9z"/>
</g>
<g>
	<path class="st0" d="M18.9,60.9c-1.1,0-2-0.8-2-2v-0.1c0-1.1,0.9-2,2-2s2,0.9,2,2S20,60.9,18.9,60.9z"/>
</g>
<g>
	<path class="st0" d="M18.9,52.9c-1.1,0-2-0.8-2-2v-0.1c0-1.1,0.9-2,2-2s2,0.9,2,2S20,52.9,18.9,52.9z"/>
</g>
<g>
	<g>
		<path class="st0" d="M102,38.9c-1,0-1.8-0.7-2-1.6c-0.1-0.5-0.1-1,0.2-1.4c0.5-1,1.7-1.3,2.7-0.8c0.6,0.4,1.1,1,1.1,1.8
			C104,38,103.1,38.9,102,38.9z"/>
	</g>
</g>
<g>
	<g>
		<path class="st0" d="M60.5,14.9c-0.2,0-0.4,0-0.6-0.1c-0.5-0.1-0.9-0.5-1.2-0.9c-0.5-1-0.2-2.2,0.7-2.7c0.6-0.3,1.4-0.4,2,0
			c1,0.5,1.3,1.8,0.8,2.7C61.8,14.5,61.2,14.9,60.5,14.9z"/>
	</g>
</g>
<g>
	<circle class="st1" cx="60.4" cy="15.6" r="12.9"/>
	<path class="st2" d="M60.4,29.9c-7.9,0-14.4-6.4-14.4-14.4S52.5,1.2,60.4,1.2s14.4,6.4,14.4,14.4S68.4,29.9,60.4,29.9z M60.4,4.2
		c-6.3,0-11.4,5.1-11.4,11.4s5.1,11.4,11.4,11.4c6.3,0,11.4-5.1,11.4-11.4S66.7,4.2,60.4,4.2z"/>
</g>
<g>
	<g>
		<path class="st2" d="M60.4,20.4c-3,0-5.4-2.4-5.4-5.4c0-3,2.4-5.4,5.4-5.4c3,0,5.4,2.4,5.4,5.4C65.9,18,63.4,20.4,60.4,20.4z
			 M60.4,12.6c-1.3,0-2.4,1.1-2.4,2.4c0,1.3,1.1,2.4,2.4,2.4c1.3,0,2.4-1.1,2.4-2.4C62.9,13.7,61.8,12.6,60.4,12.6z"/>
	</g>
	<g>
		<path class="st2" d="M67.2,27.3c-0.8,0-1.5-0.7-1.5-1.5c0-2.9-2.4-5.3-5.3-5.3c-2.9,0-5.3,2.4-5.3,5.3c0,0.8-0.7,1.5-1.5,1.5
			s-1.5-0.7-1.5-1.5c0-4.6,3.7-8.3,8.3-8.3c4.6,0,8.3,3.7,8.3,8.3C68.7,26.6,68.1,27.3,67.2,27.3z"/>
	</g>
</g>
<g>
	<circle class="st1" cx="60.4" cy="60.6" r="12.9"/>
	<path class="st2" d="M60.4,75c-7.9,0-14.4-6.4-14.4-14.4s6.4-14.4,14.4-14.4s14.4,6.4,14.4,14.4S68.4,75,60.4,75z M60.4,49.3
		c-6.3,0-11.4,5.1-11.4,11.4S54.2,72,60.4,72c6.3,0,11.4-5.1,11.4-11.4S66.7,49.3,60.4,49.3z"/>
</g>
<g>
	<g>
		<path class="st2" d="M60.4,65.5c-3,0-5.4-2.4-5.4-5.4s2.4-5.4,5.4-5.4c3,0,5.4,2.4,5.4,5.4S63.4,65.5,60.4,65.5z M60.4,57.6
			c-1.3,0-2.4,1.1-2.4,2.4s1.1,2.4,2.4,2.4c1.3,0,2.4-1.1,2.4-2.4S61.8,57.6,60.4,57.6z"/>
	</g>
	<g>
		<path class="st2" d="M67.2,72.4c-0.8,0-1.5-0.7-1.5-1.5c0-2.9-2.4-5.3-5.3-5.3c-2.9,0-5.3,2.4-5.3,5.3c0,0.8-0.7,1.5-1.5,1.5
			s-1.5-0.7-1.5-1.5c0-4.6,3.7-8.3,8.3-8.3c4.6,0,8.3,3.7,8.3,8.3C68.7,71.7,68.1,72.4,67.2,72.4z"/>
	</g>
</g>
<g>
	<circle class="st1" cx="18.9" cy="84.9" r="12.9"/>
	<path class="st2" d="M18.9,99.3c-7.9,0-14.4-6.4-14.4-14.4s6.4-14.4,14.4-14.4S33.2,77,33.2,84.9S26.8,99.3,18.9,99.3z M18.9,73.5
		c-6.3,0-11.4,5.1-11.4,11.4s5.1,11.4,11.4,11.4s11.4-5.1,11.4-11.4S25.1,73.5,18.9,73.5z"/>
</g>
<g>
	<g>
		<path class="st2" d="M18.9,89.7c-3,0-5.4-2.4-5.4-5.4c0-3,2.4-5.4,5.4-5.4c3,0,5.4,2.4,5.4,5.4C24.3,87.3,21.8,89.7,18.9,89.7z
			 M18.9,81.9c-1.3,0-2.4,1.1-2.4,2.4c0,1.3,1.1,2.4,2.4,2.4c1.3,0,2.4-1.1,2.4-2.4C21.3,83,20.2,81.9,18.9,81.9z"/>
	</g>
	<g>
		<path class="st2" d="M25.6,96.7c-0.8,0-1.5-0.7-1.5-1.5c0-2.9-2.4-5.3-5.3-5.3c-2.9,0-5.3,2.4-5.3,5.3c0,0.8-0.7,1.5-1.5,1.5
			s-1.5-0.7-1.5-1.5c0-4.6,3.7-8.3,8.3-8.3c4.6,0,8.3,3.7,8.3,8.3C27.1,96,26.5,96.7,25.6,96.7z"/>
	</g>
</g>
<g>
	<circle class="st1" cx="102" cy="84.9" r="12.9"/>
	<path class="st2" d="M102,99.3c-7.9,0-14.4-6.4-14.4-14.4s6.4-14.4,14.4-14.4s14.4,6.4,14.4,14.4S109.9,99.3,102,99.3z M102,73.5
		c-6.3,0-11.4,5.1-11.4,11.4s5.1,11.4,11.4,11.4s11.4-5.1,11.4-11.4S108.3,73.5,102,73.5z"/>
</g>
<g>
	<g>
		<path class="st2" d="M102,89.7c-3,0-5.4-2.4-5.4-5.4c0-3,2.4-5.4,5.4-5.4s5.4,2.4,5.4,5.4C107.4,87.3,105,89.7,102,89.7z
			 M102,81.9c-1.3,0-2.4,1.1-2.4,2.4c0,1.3,1.1,2.4,2.4,2.4s2.4-1.1,2.4-2.4C104.4,83,103.4,81.9,102,81.9z"/>
	</g>
	<g>
		<path class="st2" d="M108.8,96.7c-0.8,0-1.5-0.7-1.5-1.5c0-2.9-2.4-5.3-5.3-5.3s-5.3,2.4-5.3,5.3c0,0.8-0.7,1.5-1.5,1.5
			s-1.5-0.7-1.5-1.5c0-4.6,3.7-8.3,8.3-8.3s8.3,3.7,8.3,8.3C110.3,96,109.6,96.7,108.8,96.7z"/>
	</g>
</g>
<g>
	<circle class="st0" cx="102" cy="37.4" r="3"/>
</g>
<g>
	<path class="st2" d="M102,46.4c-5,0-9-4-9-9s4-9,9-9s9,4,9,9S107,46.4,102,46.4z M102,31.4c-3.3,0-6,2.7-6,6s2.7,6,6,6s6-2.7,6-6
		S105.3,31.4,102,31.4z"/>
</g>
<g>
	<circle class="st0" cx="60.4" cy="108.9" r="3"/>
</g>
<g>
	<path class="st2" d="M60.4,117.9c-5,0-9-4-9-9s4-9,9-9s9,4,9,9S65.4,117.9,60.4,117.9z M60.4,102.9c-3.3,0-6,2.7-6,6s2.7,6,6,6
		s6-2.7,6-6S63.8,102.9,60.4,102.9z"/>
</g>
<g>
	<circle class="st0" cx="18.9" cy="37.4" r="3"/>
</g>
<g>
	<path class="st2" d="M18.9,46.4c-5,0-9-4-9-9s4-9,9-9s9,4,9,9S23.8,46.4,18.9,46.4z M18.9,31.4c-3.3,0-6,2.7-6,6s2.7,6,6,6
		s6-2.7,6-6S22.2,31.4,18.9,31.4z"/>
</g>
</svg>
