<?xml version="1.0" encoding="utf-8"?>
<svg version="1.1" id="Layer_1" xmlns="http://www.w3.org/2000/svg" xmlns:xlink="http://www.w3.org/1999/xlink" x="0px" y="0px"
	 viewBox="0 0 921.5 771" style="enable-background:new 0 0 921.5 771;" xml:space="preserve">
<style type="text/css">
	.st0{fill:none;stroke:#D6EFF7;stroke-width:4;stroke-linecap:round;stroke-linejoin:round;}
	.st1{fill:none;stroke:#D6EFF7;stroke-width:4;stroke-linecap:round;stroke-linejoin:round;stroke-dasharray:0,11.9708;}
</style>
<g>
	<g>
		<g>
			<g>
				<line class="st0" x1="36.6" y1="718.3" x2="36.6" y2="718.3"/>
				<path class="st1" d="M48.3,718.7c55.9,0.4,110.4-8.4,160.7-30.9c52-23.2,101.9-50.7,157.3-32.9c37.2,12,67.8,39.2,97,67.6
					c20.5,20,42.4,37.8,70.6,43c58.7,10.8,121.5-14.3,179.6-24.5c52.7-9.2,107.2-8.9,161.2-5.2"/>
				<line class="st0" x1="879.7" y1="736.1" x2="879.7" y2="736.1"/>
			</g>
			<g>
				<line class="st0" x1="27.3" y1="705.8" x2="27.3" y2="705.8"/>
				<path class="st1" d="M39.1,706.2c56.6,0.5,111.6-8.2,163-30c53.9-22.8,106.1-50.4,163-33c37.5,11.5,68.5,38.1,98.2,66.2
					c21.5,20.3,44.4,38.3,73.4,43.7c59.6,11,122.7-14.5,181.6-24.5c54.5-9.3,110.8-7.4,166.4-1.5"/>
				<line class="st0" x1="890" y1="727.7" x2="890" y2="727.7"/>
			</g>
			<g>
				<line class="st0" x1="19.7" y1="693.2" x2="19.7" y2="693.2"/>
				<path class="st1" d="M31.6,693.6c57.1,0.6,112.5-7.9,164.9-29c55.4-22.3,109.5-50.2,167.9-33.1c38.1,11.2,70.4,37.6,100.3,65.9
					c21.4,20.3,45.8,37.8,74.7,43.1c60.3,11,123.5-14.9,183-24.8c56.1-9.4,113.8-6,170.8,1.9"/>
				<line class="st0" x1="898.6" y1="718.5" x2="898.6" y2="718.5"/>
			</g>
			<g>
				<line class="st0" x1="13.7" y1="680.5" x2="13.7" y2="680.5"/>
				<path class="st1" d="M25.7,680.9c57.5,0.7,113.2-7.6,166.2-28c56.7-21.9,112.7-49.8,172.1-33c38.1,10.8,70.6,36.5,100.7,64.4
					c22.2,20.5,47.3,38.3,76.9,43.6c60.8,11,124-15.4,183.9-25.3c57.4-9.6,116.3-4.9,174.5,4.9"/>
				<line class="st0" x1="905.5" y1="708.5" x2="905.5" y2="708.5"/>
			</g>
			<g>
				<line class="st0" x1="9.1" y1="667.7" x2="9.1" y2="667.7"/>
				<path class="st1" d="M21.1,668.1c57.7,0.8,113.6-7.2,167.1-27c57.8-21.4,115.4-49.4,175.6-33c38,10.4,70.6,35.5,100.9,63
					c22.9,20.7,48.6,38.6,78.8,44.1c61.2,11,124.2-16.1,184.2-26.1c58.5-9.7,118.4-3.9,177.4,7.5"/>
				<line class="st0" x1="910.7" y1="697.7" x2="910.7" y2="697.7"/>
			</g>
			<g>
				<line class="st0" x1="5.9" y1="654.8" x2="5.9" y2="654.8"/>
				<path class="st1" d="M17.8,655.2c57.8,1,113.8-6.7,167.6-25.9c58.7-20.9,117.6-48.9,178.5-32.8c37.9,10,70.4,34.5,100.8,61.5
					c23.4,20.8,49.7,38.9,80.4,44.3c61.4,10.8,124-17,184.1-27.1c59.3-10,120-3.1,179.6,9.9"/>
				<line class="st0" x1="914.6" y1="686.4" x2="914.6" y2="686.4"/>
			</g>
			<g>
				<line class="st0" x1="3.9" y1="641.8" x2="3.9" y2="641.8"/>
				<path class="st1" d="M15.8,642.2c57.7,1.1,113.7-6.2,167.7-24.8c59.4-20.5,119.4-48.4,180.8-32.7c37.6,9.6,70.1,33.5,100.4,60.1
					c23.9,20.9,50.7,39.1,81.8,44.5c61.4,10.5,123.5-18,183.5-28.3c59.9-10.4,121.2-2.4,181.1,11.9"/>
				<line class="st0" x1="917.1" y1="674.4" x2="917.1" y2="674.4"/>
			</g>
			<g>
				<line class="st0" x1="3" y1="628.7" x2="3" y2="628.7"/>
				<path class="st1" d="M14.9,629.1c57.6,1.3,113.5-5.7,167.6-23.7c59.9-19.9,120.8-47.9,182.5-32.5c37.4,9.4,69.6,32.6,99.8,58.7
					c24.3,21,51.5,39.3,83,44.5c61.4,10.1,122.8-19,182.6-29.7c60.3-10.8,122-1.9,182.1,13.7"/>
				<line class="st0" x1="918.3" y1="661.8" x2="918.3" y2="661.8"/>
			</g>
			<g>
				<line class="st0" x1="3.1" y1="615.5" x2="3.1" y2="615.5"/>
				<path class="st1" d="M14.9,616c57.4,1.4,113-5.1,167.1-22.6c60.2-19.4,121.8-47.3,183.7-32.2c37,9,69,31.7,99,57.3
					c24.6,21,52.2,39.4,83.9,44.5c61.2,9.7,122-20.2,181.3-31.2c60.5-11.2,122.4-1.5,182.6,15.3"/>
				<line class="st0" x1="918.5" y1="648.8" x2="918.5" y2="648.8"/>
			</g>
			<g>
				<line class="st0" x1="4.2" y1="602.2" x2="4.2" y2="602.2"/>
				<path class="st1" d="M15.9,602.7c57.1,1.6,112.5-4.5,166.4-21.4c60.4-18.9,122.5-46.7,184.4-31.9c36.6,8.7,68.2,30.8,97.9,55.9
					c24.8,21,52.7,39.5,84.6,44.3c61,9.3,120.9-21.4,179.8-32.8c60.5-11.7,122.5-1.2,182.5,16.6"/>
				<line class="st0" x1="917.7" y1="635.2" x2="917.7" y2="635.2"/>
			</g>
			<g>
				<line class="st0" x1="6.1" y1="588.9" x2="6.1" y2="588.9"/>
				<path class="st1" d="M17.7,589.5c56.7,1.8,111.8-3.9,165.5-20.3c60.5-18.4,122.9-46,184.8-31.6c36.1,8.4,67.3,29.9,96.8,54.5
					c25,20.9,53.1,39.4,85.2,44.1c60.7,8.8,119.7-22.8,178.1-34.6c60.4-12.2,122.3-1.1,182,17.7"/>
				<line class="st0" x1="916" y1="621.3" x2="916" y2="621.3"/>
			</g>
			<g>
				<line class="st0" x1="8.6" y1="575.5" x2="8.6" y2="575.5"/>
				<path class="st1" d="M20.1,576.1c56.3,1.9,111-3.3,164.5-19.1c60.4-17.9,123-45.3,184.7-31.2c35.6,8.1,66.4,29.1,95.4,53.2
					c25.2,20.9,53.5,39.4,85.6,43.8c60.4,8.3,118.3-24.1,176.1-36.4c60.1-12.8,121.8-1.1,181,18.6"/>
				<line class="st0" x1="913.5" y1="607.1" x2="913.5" y2="607.1"/>
			</g>
			<g>
				<line class="st0" x1="11.8" y1="562.1" x2="11.8" y2="562.1"/>
				<path class="st1" d="M23.2,562.7c55.8,2.1,110.1-2.6,163.3-17.9c60.2-17.3,123-44.6,184.3-30.9c66.3,14.9,112.9,85.1,179.9,95.3
					c58.5,8.9,116.9-25.5,174.1-38.3c59.7-13.4,121-1.1,179.7,19.3"/>
				<line class="st0" x1="910.5" y1="592.5" x2="910.5" y2="592.5"/>
			</g>
			<g>
				<line class="st0" x1="15.5" y1="548.7" x2="15.5" y2="548.7"/>
				<path class="st1" d="M26.8,549.3c55.3,2.3,109.2-1.9,162-16.7c60-16.8,122.6-43.9,183.5-30.5c65.7,14.5,112.1,84,178.5,93.6
					c58.1,8.4,115.4-27,171.9-40.3c59.2-14,120.1-1.3,178.1,19.9"/>
				<line class="st0" x1="906.9" y1="577.7" x2="906.9" y2="577.7"/>
			</g>
			<g>
				<line class="st0" x1="19.6" y1="535.2" x2="19.6" y2="535.2"/>
				<path class="st1" d="M30.7,535.8c54.8,2.5,108.3-1.2,160.7-15.5c59.6-16.2,122.1-43.1,182.5-30c65.1,14.1,111.2,82.9,177,91.8
					c57.6,7.8,113.9-28.4,169.7-42.3c58.7-14.6,118.9-1.5,176.2,20.4"/>
				<line class="st0" x1="902.9" y1="562.7" x2="902.9" y2="562.7"/>
			</g>
			<g>
				<line class="st0" x1="23.9" y1="521.7" x2="23.9" y2="521.7"/>
				<path class="st1" d="M34.9,522.3c54.3,2.7,107.4-0.5,159.4-14.3c59.2-15.7,121.5-42.2,181.3-29.6c64.3,13.5,110.2,81.7,175.4,90
					c57.2,7.3,112.5-29.8,167.5-44.3c58-15.2,117.6-1.8,174.1,20.7"/>
				<line class="st0" x1="898.6" y1="547.5" x2="898.6" y2="547.5"/>
			</g>
			<g>
				<line class="st0" x1="28.4" y1="508.2" x2="28.4" y2="508.2"/>
				<path class="st1" d="M39.3,508.8c53.9,2.8,106.4,0.2,158.1-13.1c58.7-15.1,120.7-41.4,179.9-29.2
					c63.7,13.1,109.2,80.8,173.7,88.3c56.6,6.6,111.1-31.2,165.3-46.2c57.2-15.9,116.1-2.2,171.7,21"/>
				<line class="st0" x1="894.2" y1="532.3" x2="894.2" y2="532.3"/>
			</g>
			<g>
				<line class="st0" x1="33" y1="494.7" x2="33" y2="494.7"/>
				<path class="st1" d="M43.8,495.3c53.4,3,105.6,1,156.9-11.9c58.2-14.6,119.7-40.6,178.4-28.7c63,12.7,108.1,79.6,172,86.5
					c56.2,6,109.7-32.6,163.3-48.2c56.5-16.5,114.6-2.5,169.3,21.2"/>
				<line class="st0" x1="889.7" y1="517" x2="889.7" y2="517"/>
			</g>
			<g>
				<line class="st0" x1="37.6" y1="481.1" x2="37.6" y2="481.1"/>
				<path class="st1" d="M48.3,481.8c53,3.2,104.8,1.7,155.9-10.7c57.7-14,118.7-39.7,176.8-28.2c62.3,12.3,107.1,78.5,170.3,84.7
					c55.9,5.5,108.5-34,161.4-50.1c55.7-17,112.9-2.8,166.8,21.3"/>
				<line class="st0" x1="885.3" y1="501.7" x2="885.3" y2="501.7"/>
			</g>
			<g>
				<line class="st0" x1="42" y1="467.6" x2="42" y2="467.6"/>
				<path class="st1" d="M52.6,468.3c52.6,3.3,104.2,2.4,154.9-9.5c57.1-13.4,117.8-39,175.1-27.8c61.6,12,106.1,77.2,168.7,82.9
					c55.4,5,107.4-35.2,159.7-51.9c55-17.5,111.2-3.2,164.2,21.5"/>
				<line class="st0" x1="881.1" y1="486.5" x2="881.1" y2="486.5"/>
			</g>
			<g>
				<line class="st0" x1="46.2" y1="454.1" x2="46.2" y2="454.1"/>
				<path class="st1" d="M56.7,454.9c52.3,3.5,103.7,3.2,154.2-8.4c56.6-12.9,116.8-38.1,173.5-27.3c61,11.6,105.1,76.1,167.2,81.2
					c55.2,4.5,106.4-36.4,158.2-53.6c54.2-18,109.5-3.7,161.6,21.6"/>
				<line class="st0" x1="877.2" y1="471.4" x2="877.2" y2="471.4"/>
			</g>
			<g>
				<line class="st0" x1="50.1" y1="440.7" x2="50.1" y2="440.7"/>
				<path class="st1" d="M60.5,441.4c52,3.6,103.3,3.9,153.7-7.2c56.1-12.3,115.7-37.2,171.8-26.8c60.5,11.2,104.3,74.9,165.8,79.5
					c55,4,105.6-37.4,157-55.1c53.6-18.5,107.9-4,159,21.7"/>
				<line class="st0" x1="873.7" y1="456.5" x2="873.7" y2="456.5"/>
			</g>
			<g>
				<line class="st0" x1="53.5" y1="427.2" x2="53.5" y2="427.2"/>
				<path class="st1" d="M63.8,428c51.9,3.8,103.2,4.6,153.5-6.1c55.6-11.8,114.7-36.3,170.3-26.3c59.9,10.7,103.6,73.8,164.7,77.8
					c54.9,3.6,105.1-38.4,156.2-56.6c53-18.9,106.2-4.4,156.6,21.9"/>
				<line class="st0" x1="870.8" y1="441.8" x2="870.8" y2="441.8"/>
			</g>
			<g>
				<line class="st0" x1="56.3" y1="413.8" x2="56.3" y2="413.8"/>
				<path class="st1" d="M66.7,414.6c51.9,3.9,103.2,5.3,153.6-5c55.2-11.3,113.8-35.4,168.8-25.9c59.5,10.3,103.1,72.7,163.8,76.2
					c54.9,3.2,104.8-39.2,155.7-57.9c52.5-19.2,104.7-4.7,154.3,22.1"/>
				<line class="st0" x1="868.5" y1="427.4" x2="868.5" y2="427.4"/>
			</g>
			<g>
				<line class="st0" x1="58.4" y1="400.5" x2="58.4" y2="400.5"/>
				<path class="st1" d="M68.8,401.3c51.9,4,103.5,6,154.1-3.9c54.7-10.8,113-34.5,167.6-25.4c59.2,9.9,102.9,71.5,163.2,74.6
					c54.9,2.8,104.9-40,155.7-59c52.1-19.4,103-5,152.1,22.4"/>
				<line class="st0" x1="867" y1="413.3" x2="867" y2="413.3"/>
			</g>
			<g>
				<line class="st0" x1="59.8" y1="387.2" x2="59.8" y2="387.2"/>
				<path class="st1" d="M70.2,388c52.1,4.1,104.1,6.7,154.9-2.9c54.4-10.3,112.3-33.7,166.5-25c59,9.4,102.8,70.4,162.9,73.1
					c55.1,2.5,105.2-40.6,156.1-59.8c51.8-19.6,101.7-5.2,150.2,22.7"/>
				<line class="st0" x1="866.4" y1="399.6" x2="866.4" y2="399.6"/>
			</g>
			<g>
				<line class="st0" x1="60.3" y1="374" x2="60.3" y2="374"/>
				<path class="st1" d="M70.8,374.8c52.5,4.2,104.9,7.3,156.2-1.9c54.2-9.7,110.4-31.9,165.7-24.6c60.5,8,102.8,69.2,163,71.7
					c54.8,2.3,106-39.8,157.1-59.1c52.7-20,99.6-7.3,148.6,21.9"/>
				<line class="st0" x1="866.9" y1="386.3" x2="866.9" y2="386.3"/>
			</g>
			<g>
				<line class="st0" x1="59.9" y1="360.9" x2="59.9" y2="360.9"/>
				<path class="st1" d="M70.6,361.9c52.7,4.9,106.3,7.7,157.8-1.1c53.7-9.2,110-31.4,164.6-24.8c60.7,7.3,103.5,68.6,164,71
					c55.1,2.2,106.7-38.3,158.1-57.6c52.1-19.5,99.5-9.2,147.8,20.5"/>
				<line class="st0" x1="868.4" y1="373.5" x2="868.4" y2="373.5"/>
			</g>
			<g>
				<line class="st0" x1="58.6" y1="347.6" x2="58.6" y2="347.6"/>
				<path class="st1" d="M69.4,348.9c53.5,6.1,107.3,8.5,159.7-0.1c53.5-8.9,109.3-31.6,163.6-25.5c61.1,6.8,104.6,68.1,165.4,71
					c55.4,2.6,107.5-37.2,159.4-56.3c51.9-19.1,99.4-9.7,147.9,19.2"/>
				<line class="st0" x1="871" y1="360.8" x2="871" y2="360.8"/>
			</g>
			<g>
				<line class="st0" x1="56.3" y1="333" x2="56.3" y2="333"/>
				<path class="st1" d="M67.3,334.5c54.1,7.3,108.7,10.4,161.8,1.5c53.4-9,108.9-32.3,163.2-26.8c26.8,2.7,50.2,15.7,72.4,31.3
					c29.1,20.5,60.9,37.8,94.9,39.7c55.8,3.1,108.4-35.9,160.8-54.8c51.9-18.8,99.4-10.1,148.2,17.9"/>
				<line class="st0" x1="874.1" y1="346.8" x2="874.1" y2="346.8"/>
			</g>
			<g>
				<line class="st0" x1="53.5" y1="319.5" x2="53.5" y2="319.5"/>
				<path class="st1" d="M64.7,321.4c54.7,8.4,110.1,12.1,163.9,3c53.4-9,108.8-33,163.2-27.9c26.9,2.5,50.6,15.3,72.9,30.9
					c29.6,20.6,61.8,38,96.2,40.2c56.2,3.5,109.2-34.7,162.1-53.4c51.8-18.4,99.4-10.4,148.5,16.7"/>
				<line class="st0" x1="877.1" y1="334.2" x2="877.1" y2="334.2"/>
			</g>
			<g>
				<line class="st0" x1="50.1" y1="306" x2="50.1" y2="306"/>
				<path class="st1" d="M61.5,308.2c55.4,9.5,111.5,13.8,166.1,4.5c53.6-9.1,108.9-33.6,163.6-28.9c27.1,2.3,51,15,73.5,30.5
					c30.1,20.7,62.7,38.3,97.6,40.7c56.5,3.9,110.1-33.5,163.4-52.1c51.8-18.1,99.6-10.7,149,15.6"/>
				<line class="st0" x1="880.2" y1="321.7" x2="880.2" y2="321.7"/>
			</g>
			<g>
				<line class="st0" x1="46.3" y1="292.5" x2="46.3" y2="292.5"/>
				<path class="st1" d="M57.9,294.9c56,10.6,113,15.5,168.3,6.1c53.8-9.2,109.2-34.2,164.2-30c27.3,2.1,51.5,14.6,74.2,30.1
					c30.6,20.7,63.5,38.4,98.9,41.2c57.1,4.5,110.8-32.3,164.7-50.7c51.9-17.7,99.8-10.9,149.6,14.6"/>
				<line class="st0" x1="883.5" y1="309.3" x2="883.5" y2="309.3"/>
			</g>
			<g>
				<line class="st0" x1="42.1" y1="278.9" x2="42.1" y2="278.9"/>
				<path class="st1" d="M54,281.6c56.7,11.7,114.4,17.2,170.6,7.6c54.1-9.2,111-35.8,165.1-31c62.7,5.6,112.1,66,175.3,71.4
					c57.4,4.9,111.6-31,165.9-49.3c51.9-17.4,100-11.1,150.2,13.6"/>
				<line class="st0" x1="886.7" y1="296.9" x2="886.7" y2="296.9"/>
			</g>
			<g>
				<line class="st0" x1="37.7" y1="265.3" x2="37.7" y2="265.3"/>
				<path class="st1" d="M49.8,268.2c57.3,12.8,115.8,18.9,172.8,9.2C277.2,268,333,242,388.8,245.4c28.4,1.7,53.2,14.7,77.2,30.1
					c31.7,20.3,64.3,38.1,100.3,41.4c57.9,5.2,112.4-29.8,167.1-47.9c51.9-17.1,100.4-11.2,150.8,12.6"/>
				<line class="st0" x1="890" y1="284.5" x2="890" y2="284.5"/>
			</g>
			<g>
				<line class="st0" x1="33.2" y1="251.7" x2="33.2" y2="251.7"/>
				<path class="st1" d="M45.4,254.9c57.9,13.9,117.2,20.6,175.1,10.7c55-9.4,111.1-35.9,167.4-32.9c28.6,1.5,53.8,14.4,78.1,29.7
					c32.2,20.3,65.1,38.4,101.6,41.9c58.2,5.7,113.1-28.6,168.3-46.5c52-16.8,100.7-11.3,151.5,11.6"/>
				<line class="st0" x1="893.1" y1="272.2" x2="893.1" y2="272.2"/>
			</g>
			<g>
				<line class="st0" x1="28.6" y1="238.1" x2="28.6" y2="238.1"/>
				<path class="st1" d="M41.1,241.5c58.5,14.9,118.5,22.2,177.2,12.2c55.5-9.5,112-36.5,168.8-33.8c28.9,1.3,54.4,14,79,29.4
					c32.7,20.4,66,38.6,102.9,42.4c58.5,6.1,113.7-27.5,169.3-45.1c52-16.5,101.1-11.4,152.2,10.7"/>
				<line class="st0" x1="896.2" y1="259.9" x2="896.2" y2="259.9"/>
			</g>
			<g>
				<line class="st0" x1="24.1" y1="224.5" x2="24.1" y2="224.5"/>
				<path class="st1" d="M36.7,228.2c59.1,16,119.7,23.8,179.1,13.7c56-9.5,112.8-37.1,170.2-34.8c29.2,1.2,55,13.7,80,29
					c33.2,20.4,66.9,38.8,104.2,42.9c58.7,6.5,114.3-26.3,170.2-43.8c52.1-16.3,101.4-11.5,152.9,9.7"/>
				<line class="st0" x1="899.1" y1="247.5" x2="899.1" y2="247.5"/>
			</g>
			<g>
				<line class="st0" x1="19.8" y1="210.9" x2="19.8" y2="210.9"/>
				<path class="st1" d="M32.6,214.8c59.6,17,120.8,25.3,181,15.2c56.5-9.5,113.7-37.6,171.7-35.7c29.4,1,55.6,13.3,80.8,28.6
					c33.6,20.4,67.7,39,105.4,43.4c59,6.9,114.8-25.1,171-42.4c52.1-16,101.8-11.5,153.6,8.8"/>
				<line class="st0" x1="901.8" y1="235.2" x2="901.8" y2="235.2"/>
			</g>
			<g>
				<line class="st0" x1="15.8" y1="197.3" x2="15.8" y2="197.3"/>
				<path class="st1" d="M28.7,201.5c60,18,121.7,26.9,182.6,16.7c57-9.6,114.7-38.2,173.1-36.7c29.6,0.8,56.1,13,81.7,28.3
					c34.1,20.4,68.5,39.2,106.6,43.9c59.2,7.3,115.1-24,171.7-41.2c52.2-15.8,102.1-11.6,154.2,7.9"/>
				<line class="st0" x1="904.3" y1="222.8" x2="904.3" y2="222.8"/>
			</g>
			<g>
				<line class="st0" x1="12.1" y1="183.8" x2="12.1" y2="183.8"/>
				<path class="st1" d="M25.2,188.3c60.3,19,122.5,28.4,183.9,18.1c57.5-9.7,115.6-38.7,174.5-37.6c29.8,0.5,56.7,12.6,82.4,27.9
					c34.5,20.4,69.2,39.5,107.7,44.4c59.3,7.6,115.4-22.9,172.2-39.9c52.2-15.6,102.4-11.6,154.7,6.9"/>
				<line class="st0" x1="906.5" y1="210.3" x2="906.5" y2="210.3"/>
			</g>
			<g>
				<line class="st0" x1="9" y1="170.3" x2="9" y2="170.3"/>
				<path class="st1" d="M22.2,175.1c60.5,20,123.1,29.9,185,19.5c58-9.8,116.4-39.2,175.9-38.6c29.1,0.3,56.6,11.4,81.7,26.6
					c35,21.1,70.9,40.6,110.1,45.8c59.5,7.9,115.5-21.9,172.5-38.7c52.1-15.4,102.7-11.7,155.1,6"/>
				<line class="st0" x1="908.3" y1="197.8" x2="908.3" y2="197.8"/>
			</g>
			<g>
				<line class="st0" x1="6.4" y1="156.9" x2="6.4" y2="156.9"/>
				<path class="st1" d="M19.8,161.9c60.7,21,123.4,31.4,185.7,20.8c58.4-9.9,117.1-39.8,177-39.5c29.2,0.1,56.9,11,82.2,26.1
					c35.4,21.1,71.6,40.8,111.1,46.3c59.6,8.3,115.5-20.8,172.5-37.5c52.1-15.2,102.9-11.7,155.5,5"/>
				<line class="st0" x1="909.7" y1="185.2" x2="909.7" y2="185.2"/>
			</g>
			<g>
				<line class="st0" x1="4.5" y1="142.3" x2="4.5" y2="142.3"/>
				<path class="st1" d="M17.9,147.6c60.7,22,123.4,32.9,186.1,22.3c58.8-10,117.8-40.4,178.1-40.6c29.3-0.1,57.2,10.6,82.6,25.6
					c35.8,21.1,72.2,41,112.1,46.7c59.5,8.6,115.3-19.8,172.4-36.3c52-15.1,103-11.8,155.7,3.9"/>
				<line class="st0" x1="910.7" y1="171.2" x2="910.7" y2="171.2"/>
			</g>
			<g>
				<line class="st0" x1="3.5" y1="129.1" x2="3.5" y2="129.1"/>
				<path class="st1" d="M17,134.6c60.5,23,123.1,34.3,186,23.6c59.1-10.1,118.3-40.9,178.9-41.6c29.3-0.3,57.3,10.2,82.9,25.2
					c36.1,21.1,72.7,41.1,112.8,47.1c59.5,9,114.9-18.8,172-35.3c51.8-15,103-11.9,155.8,2.9"/>
				<line class="st0" x1="911.1" y1="158.3" x2="911.1" y2="158.3"/>
			</g>
			<g>
				<line class="st0" x1="3.5" y1="116" x2="3.5" y2="116"/>
				<path class="st1" d="M17,121.7c60.3,23.9,122.6,35.6,185.4,24.8c59.3-10.2,118.6-41.5,179.3-42.7c29.3-0.6,57.4,9.8,82.9,24.7
					c36.3,21.1,73.2,41.3,113.5,47.5c59.3,9.2,114.4-17.9,171.3-34.3c51.6-14.9,102.9-12.1,155.7,1.9"/>
				<line class="st0" x1="911" y1="145.3" x2="911" y2="145.3"/>
			</g>
			<g>
				<line class="st0" x1="4.6" y1="103" x2="4.6" y2="103"/>
				<path class="st1" d="M18,109c59.8,24.7,121.6,36.8,184.4,25.9c59.4-10.3,118.7-42.1,179.5-43.8c29.2-0.8,57.2,9.4,82.8,24.2
					c36.6,21.1,73.6,41.4,114,47.9c59.1,9.5,113.6-17.1,170.3-33.4c51.3-14.8,102.7-12.2,155.4,0.8"/>
				<line class="st0" x1="910.2" y1="132.1" x2="910.2" y2="132.1"/>
			</g>
			<g>
				<line class="st0" x1="6.7" y1="90.2" x2="6.7" y2="90.2"/>
				<path class="st1" d="M20.1,96.4c59.2,25.6,120.3,38,182.8,27c59.4-10.5,118.5-42.7,179.3-44.9c29.1-1,57,9,82.4,23.7
					c36.7,21.1,73.8,41.5,114.4,48.2c59.1,9.8,112-16.4,169.1-32.6c51.4-14.6,102.4-12.4,154.9-0.4"/>
				<line class="st0" x1="908.9" y1="118.8" x2="908.9" y2="118.8"/>
			</g>
			<g>
				<line class="st0" x1="10.2" y1="77.5" x2="10.2" y2="77.5"/>
				<path class="st1" d="M23.4,83.9c58.5,26.4,118.6,39.1,180.7,28c59.2-10.6,118.1-43.3,178.8-46.1c28.8-1.3,56.5,8.6,81.8,23.1
					c36.8,21.1,74.1,41.6,114.6,48.5c58,9.8,111.8-15.5,167.5-31.9C797.3,90.7,848.7,92.9,901,104"/>
				<line class="st0" x1="906.8" y1="105.3" x2="906.8" y2="105.3"/>
			</g>
			<g>
				<line class="st0" x1="14.9" y1="64.9" x2="14.9" y2="64.9"/>
				<path class="st1" d="M28,71.6c57.5,27.2,116.4,40.2,178,29c58.9-10.7,117.4-44,177.8-47.3c28.6-1.6,55.9,8.2,80.9,22.5
					c36.8,21.1,74.2,41.7,114.7,48.7c57.5,10,110.4-14.9,165.5-31.3c50-14.9,101.2-12.9,153.3-2.9"/>
				<line class="st0" x1="904" y1="91.6" x2="904" y2="91.6"/>
			</g>
			<g>
				<line class="st0" x1="21.2" y1="52.6" x2="21.2" y2="52.6"/>
				<path class="st1" d="M34.1,59.5c56.3,27.9,113.8,41.3,174.6,29.9C267.1,78.4,325,44.7,384.9,40.8c28.2-1.8,55.1,7.8,79.8,21.9
					c36.8,21.1,74.2,41.7,114.7,48.9c56.9,10.1,108.8-14.2,163.2-30.8c49.4-15,100.4-13.3,152.1-4.2"/>
				<line class="st0" x1="900.4" y1="77.7" x2="900.4" y2="77.7"/>
			</g>
			<g>
				<line class="st0" x1="29" y1="40.4" x2="29" y2="40.4"/>
				<path class="st1" d="M41.6,47.5c54.8,28.7,110.7,42.2,170.5,30.7C270,67,327.1,32.8,386.4,28.3c27.9-2.1,53.8,7.5,78.3,21.3
					c37,20.7,74,41.7,114.4,49c56.2,10.3,106.9-13.7,160.6-30.4c48.7-15.2,99.4-13.7,150.6-5.6"/>
				<line class="st0" x1="896" y1="63.5" x2="896" y2="63.5"/>
			</g>
			<g>
				<line class="st0" x1="38.5" y1="28.4" x2="38.5" y2="28.4"/>
				<path class="st1" d="M50.8,35.7C104,65,158,78.7,216.5,67.1C273.6,55.7,329.7,21,388.2,15.8c28.2-2.5,53.6,7.7,78.3,21.6
					c36.2,20.4,72.7,40.7,112.2,48.1C634.5,96,682.8,72.1,736.2,55.4c48.3-15.2,98.3-14.1,148.8-7.1"/>
				<line class="st0" x1="890.7" y1="49.1" x2="890.7" y2="49.1"/>
			</g>
			<g>
				<line class="st0" x1="49.7" y1="16.6" x2="49.7" y2="16.6"/>
				<path class="st1" d="M61.7,24.1c51.2,29.9,103,43.9,160.1,32C277.3,44.6,332.2,8.3,390.3,3.4c28.1-2.4,52.2,7.3,76.2,20.9
					c36,20.3,72.4,40.7,111.6,48.1c54.5,10.4,102.3-12.7,154-29.9C779,26.7,829,27.8,878.9,33.7"/>
				<line class="st0" x1="884.5" y1="34.4" x2="884.5" y2="34.4"/>
			</g>
		</g>
	</g>
</g>
</svg>
