<?xml version="1.0" encoding="utf-8"?>
<!DOCTYPE svg PUBLIC "-//W3C//DTD SVG 1.1//EN" "http://www.w3.org/Graphics/SVG/1.1/DTD/svg11.dtd">
<svg xmlns="http://www.w3.org/2000/svg" xmlns:xlink="http://www.w3.org/1999/xlink" style="display: none" version="1.1">



	<symbol id="map" viewBox="0 0 24 24">
		<path fill="currentColor" d="M12,0C7.6,0,3,3.4,3,9c0,5.3,8,13.4,8.3,13.7c0.2,0.2,0.4,0.3,0.7,0.3s0.5-0.1,0.7-0.3C13,22.4,21,14.3,21,9
	C21,3.4,16.4,0,12,0z M12,12c-1.7,0-3-1.3-3-3s1.3-3,3-3s3,1.3,3,3S13.7,12,12,12z"/>
	</symbol>



	<symbol id="calendar" viewBox="0 0 24 24">
		<path fill="currentColor" d="M0,23c0,0.552,0.448,1,1,1h22c0.552,0,1-0.448,1-1V8H0V23z"/>
		<path fill="currentColor" d="M23,2h-4V0h-2v2h-4V0h-2v2H7V0H5v2H1C0.448,2,0,2.448,0,3v3h24V3C24,2.448,23.552,2,23,2z"/>
	</symbol>



	<symbol id="arrow-down" viewBox="0 0 24 24">
		<path fill="currentColor" d="M12,15.586l-10-10L0.586,7l10.707,10.707C11.488,17.902,11.744,18,12,18s0.512-0.098,0.707-0.293L23.414,7L22,5.586
		L12,15.586z"/>
	</symbol>



	<symbol id="arrow-right" viewBox="0 0 24 24">
		<path fill="currentColor" d="M7,23.414l10.707-10.707c0.391-0.391,0.391-1.023,0-1.414L7,0.586L5.586,2l10,10l-10,10L7,23.414z"/>
	</symbol>


	<symbol id="arrow-left" viewBox="0 0 24 24">
		<path fill="currentColor"  d="M17,0.586L6.293,11.293c-0.391,0.391-0.391,1.023,0,1.414L17,23.414L18.414,22l-10-10l10-10L17,0.586z"/>
	</symbol>


	<symbol id="arrow-down--solid" viewBox="0 0 6.9 3.4">
		<polygon fill="currentColor" class="st0" points="3.4,3.4 0,0 6.9,0 "/>
	</symbol>





	<symbol id="facebook" viewBox="0 0 24 24">
		<path fill="currentColor" d="M9.03153,23L9,13H5V9h4V6.5C9,2.7886,11.29832,1,14.60914,1c1.58592,0,2.94893,0.11807,3.34615,0.17085
	v3.87863l-2.29623,0.00104c-1.80061,0-2.14925,0.85562-2.14925,2.11119V9H18.75l-2,4h-3.24019v10H9.03153z"/>
	</symbol>

	<symbol id="instagram" viewBox="0 0 24 24">
		<path fill="currentColor" d="M21.986,2.014c-1.375-1.375-3.088-1.853-5.038-1.942C15.668,0.014,15.259,0,12,0S8.332,0.014,7.052,0.072
		c-1.95,0.089-3.663,0.567-5.038,1.942C0.639,3.389,0.161,5.102,0.072,7.052C0.014,8.332,0,8.741,0,12
		c0,3.259,0.014,3.668,0.072,4.948c0.089,1.95,0.567,3.663,1.942,5.038c1.375,1.375,3.088,1.853,5.038,1.942
		C8.332,23.986,8.741,24,12,24s3.668-0.014,4.948-0.072c1.95-0.089,3.663-0.567,5.038-1.942c1.375-1.375,1.853-3.088,1.942-5.038
		C23.986,15.668,24,15.259,24,12c0-3.259-0.014-3.668-0.072-4.948C23.839,5.103,23.361,3.389,21.986,2.014z M21.768,16.849
		c-0.062,1.366-0.336,2.633-1.311,3.608s-2.242,1.249-3.608,1.311c-1.265,0.058-1.645,0.07-4.849,0.07s-3.584-0.012-4.849-0.07
		c-1.366-0.062-2.633-0.336-3.608-1.311s-1.249-2.242-1.311-3.608c-0.058-1.265-0.07-1.645-0.07-4.849
		c0-3.204,0.012-3.584,0.07-4.849c0.062-1.366,0.336-2.633,1.311-3.608c0.975-0.975,2.242-1.249,3.608-1.311
		C8.416,2.174,8.796,2.162,12,2.162s3.584,0.012,4.849,0.07c1.366,0.062,2.633,0.336,3.608,1.311
		c0.975,0.975,1.249,2.242,1.311,3.608c0.058,1.265,0.07,1.645,0.07,4.849C21.838,15.204,21.826,15.584,21.768,16.849z"/>
		<path fill="currentColor" d="M12,5.838c-3.403,0-6.162,2.759-6.162,6.162S8.597,18.162,12,18.162s6.162-2.759,6.162-6.162S15.403,5.838,12,5.838z M12,16
		c-2.209,0-4-1.791-4-4c0-2.209,1.791-4,4-4s4,1.791,4,4C16,14.209,14.209,16,12,16z"/>
		<circle fill="currentColor" cx="18.406" cy="5.594" r="1.44"/>		
	</symbol>

	<symbol id="linkedin" viewBox="0 0 24 24">
		<rect x="0.6" y="8" fill="currentColor" width="4.9" height="15.8"/>
		<circle fill="currentColor" cx="3" cy="3" r="2.8"/>
		<path fill="currentColor" d="M23.8,23.8h-4.9v-7.7c0-1.8,0-4.2-2.5-4.2c-2.6,0-2.9,2-2.9,4.1v7.8H8.5V8h4.7v2.2h0.1C14,8.9,15.6,7.6,18,7.6
		c5,0,5.9,3.3,5.9,7.5V23.8z"/>
	</symbol>

	<symbol id="youtube" viewBox="0 0 24 24">
		<path fill="currentColor" d="M23.8,10.2c0,0-0.2-1.7-1-2.4c-0.9-1-1.9-1-2.4-1C17,6.6,12,6.6,12,6.6s-5,0-8.4,0.2c-0.5,0.1-1.5,0.1-2.4,1
	c-0.7,0.7-1,2.4-1,2.4S0,12.1,0,14.1v1.8c0,1.9,0.2,3.9,0.2,3.9s0.2,1.7,1,2.4c0.9,1,2.1,0.9,2.6,1c1.9,0.2,8.2,0.2,8.2,0.2
	s5,0,8.4-0.3c0.5-0.1,1.5-0.1,2.4-1c0.7-0.7,1-2.4,1-2.4s0.2-1.9,0.2-3.9V14C24,12.1,23.8,10.2,23.8,10.2z M9.5,18.1v-6.7l6.5,3.4
	L9.5,18.1z"/>
	</symbol>


	<symbol id="twitter" viewBox="0 0 24 24">
		<path fill="currentColor" d="M24,4.55671c-0.88301,0.39161-1.83194,0.65634-2.82804,0.77533
		c1.01666-0.60936,1.7974-1.57433,2.16501-2.72414c-0.95134,0.56428-2.00512,0.97406-3.12672,1.1949
		c-0.89818-0.957-2.17787-1.55496-3.59403-1.55496c-2.71943,0-4.92403,2.20462-4.92403,4.92378
		c0,0.38595,0.04355,0.7617,0.12748,1.12211C7.72747,8.0884,4.09932,6.12812,1.67078,3.14911
		C1.24693,3.87636,1.00415,4.72216,1.00415,5.62454c0,1.70824,0.86929,3.21537,2.19047,4.09838
		C2.38748,9.69738,1.62825,9.47585,0.96437,9.10704c-0.00034,0.02058-0.00042,0.04115-0.00042,0.0619
		c0,2.38572,1.69726,4.37584,3.9498,4.82815c-0.41321,0.11247-0.8482,0.17266-1.29725,0.17266
		c-0.31729,0-0.62574-0.03087-0.9264-0.0883c0.6266,1.95617,2.445,3.37979,4.59964,3.41957
		c-1.68518,1.32058-3.80827,2.10774-6.11516,2.10774c-0.39745,0-0.7894-0.02332-1.17458-0.06875
		c2.17907,1.39704,4.76724,2.21216,7.54787,2.21216c9.05687,0,14.00945-7.50286,14.00945-14.00958
		c0-0.21347-0.00479-0.42582-0.01423-0.63697C22.50505,6.41137,23.33989,5.54413,24,4.55671z"/>		
	</symbol>


	<symbol id="email" viewBox="0 0 24 24">
		<path fill="currentColor" d="M23,2H1C0.448,2,0,2.447,0,3v18c0,0.553,0.448,1,1,1h22c0.552,0,1-0.447,1-1V3C24,2.447,23.552,2,23,2z M5.707,17.707
		C5.512,17.902,5.256,18,5,18s-0.512-0.098-0.707-0.293c-0.391-0.391-0.391-1.023,0-1.414l2.5-2.5l1.414,1.414L5.707,17.707z
		M19.707,17.707C19.512,17.902,19.256,18,19,18s-0.512-0.098-0.707-0.293l-2.5-2.5l1.414-1.414l2.5,2.5
		C20.098,16.684,20.098,17.316,19.707,17.707z M19.707,7.707l-7,7C12.512,14.902,12.256,15,12,15s-0.512-0.098-0.707-0.293l-7-7
		c-0.391-0.391-0.391-1.023,0-1.414s1.023-0.391,1.414,0L12,12.586l6.293-6.293c0.391-0.391,1.023-0.391,1.414,0
		S20.098,7.316,19.707,7.707z"/>
	</symbol>

	<symbol id="search" viewBox="0 0 24 24">
		<path fill="currentColor" d="M3,10c0,2,0.6,3.9,1.7,5.5l-4.4,4.4c-0.4,0.4-0.4,1,0,1.4l1.4,1.4c0.4,0.4,1,0.4,1.4,0l4.4-4.4C9.1,19.4,11,20,13,20
		c5.5,0,10-4.5,10-10S18.5,0,13,0S3,4.5,3,10z M5,10c0-4.4,3.6-8,8-8s8,3.6,8,8s-3.6,8-8,8S5,14.4,5,10z"/>
	</symbol>

	<symbol id="checkmark" viewBox="0 0 24 24">
		<path fill="currentColor" d="M9.293,16.707C9.488,16.902,9.744,17,10,17s0.512-0.098,0.707-0.293l8-8c0.391-0.391,0.391-1.023,0-1.414
		s-1.023-0.391-1.414,0L10,14.586l-3.293-3.293c-0.391-0.391-1.023-0.391-1.414,0s-0.391,1.023,0,1.414L9.293,16.707z"/>
	</symbol>

	<symbol id="add" viewBox="0 0 24 24">
			<path fill="currentColor" d="M2,13h9v9c0,0.553,0.447,1,1,1s1-0.447,1-1v-9h9c0.553,0,1-0.447,1-1s-0.447-1-1-1h-9V2c0-0.553-0.447-1-1-1s-1,0.447-1,1v9
	H2c-0.553,0-1,0.447-1,1S1.447,13,2,13z"/>
	</symbol>

	<symbol id="subtract" viewBox="0 0 24 24">
		<path fill="currentColor" d="M22,11H2c-0.552,0-1,0.447-1,1s0.448,1,1,1h20c0.552,0,1-0.447,1-1S22.552,11,22,11z"/>
	</symbol>

	<symbol id="remove" viewBox="0 0 24 24">
		<path fill="currentColor" d="M19.707,4.293c-0.391-0.391-1.023-0.391-1.414,0L12,10.586L5.707,4.293c-0.391-0.391-1.023-0.391-1.414,0
	s-0.391,1.023,0,1.414L10.586,12l-6.293,6.293c-0.391,0.391-0.391,1.023,0,1.414C4.488,19.902,4.744,20,5,20
	s0.512-0.098,0.707-0.293L12,13.414l6.293,6.293C18.488,19.902,18.744,20,19,20s0.512-0.098,0.707-0.293
	c0.391-0.391,0.391-1.023,0-1.414L13.414,12l6.293-6.293C20.098,5.316,20.098,4.684,19.707,4.293z"/>
	</symbol>

	<symbol id="link" viewBox="0 0 24 24">
		<path fill="currentColor" d="M7.414,11.021L6.021,9.586l-3.213,3.121c-2.339,2.34-2.339,6.146,0,8.485c1.17,1.17,2.706,1.754,4.243,1.754
		s3.073-0.584,4.243-1.754l2.828-2.828c1.133-1.134,1.757-2.641,1.757-4.243s-0.624-3.109-1.757-4.242l-0.707-0.707L12,10.586
		l0.707,0.707c0.755,0.756,1.171,1.76,1.171,2.828s-0.416,2.073-1.171,2.829l-2.828,2.828c-1.56,1.559-4.098,1.559-5.657,0
		c-1.559-1.56-1.559-4.098-0.01-5.646L7.414,11.021z"/>
		<path fill="currentColor" d="M16.586,12.979l1.394,1.435l3.213-3.121c2.339-2.34,2.339-6.146,0-8.485c-2.34-2.34-6.146-2.34-8.485,0L9.879,5.636
		C8.746,6.77,8.122,8.276,8.122,9.879s0.624,3.109,1.757,4.242l0.707,0.707L12,13.414l-0.707-0.707
		c-0.755-0.756-1.171-1.76-1.171-2.828s0.416-2.073,1.171-2.829l2.828-2.828c1.56-1.559,4.098-1.559,5.657,0
		c1.559,1.56,1.559,4.098,0.01,5.646L16.586,12.979z"/>
	</symbol>

	<symbol id="attachment" viewBox="0 0 24 24">
		<polygon fill="currentColor" points="11,1 11,13.586 6,8.586 4.586,10 12,17.414 19.414,10 18,8.586 13,13.586 13,1 "/>
		<polygon fill="currentColor" points="23,15 21,15 21,21 3,21 3,15 1,15 1,23 23,23 "/>
	</symbol>


	<symbol id="zoom" viewBox="0 0 24 24">
		<path fill="currentColor" d="M10,0C4.486,0,0,4.486,0,10s4.486,10,10,10c2.035,0,3.928-0.614,5.509-1.663l4.369,4.37c0.391,0.391,1.024,0.391,1.414,0
	l1.414-1.414c0.391-0.391,0.391-1.024,0-1.414l-4.37-4.37C19.386,13.928,20,12.035,20,10C20,4.486,15.514,0,10,0z M10,18
	c-4.411,0-8-3.589-8-8s3.589-8,8-8s8,3.589,8,8S14.411,18,10,18z"/>

	</symbol>
	


</svg>