<?xml version="1.0" standalone="no"?>
<!DOCTYPE svg PUBLIC "-//W3C//DTD SVG 20010904//EN"
 "http://www.w3.org/TR/2001/REC-SVG-20010904/DTD/svg10.dtd">
<svg version="1.0" xmlns="http://www.w3.org/2000/svg"
 width="700.000000pt" height="700.000000pt" viewBox="0 0 700.000000 700.000000"
 preserveAspectRatio="xMidYMid meet">
<metadata>
Created by potrace 1.11, written by Peter Selinger 2001-2013
</metadata>
<g transform="translate(0.000000,700.000000) scale(0.100000,-0.100000)"
fill="#000000" stroke="none">
<path d="M955 4911 c-46 -20 -86 -91 -78 -140 11 -75 61 -116 139 -115 54 0
91 21 114 65 45 83 -12 188 -107 195 -26 2 -57 0 -68 -5z"/>
<path d="M1665 4910 c-55 -22 -89 -93 -75 -155 20 -91 131 -133 208 -79 53 37
71 128 36 182 -33 51 -113 76 -169 52z"/>
<path d="M2363 4901 c-123 -78 -50 -273 92 -247 47 9 93 50 104 94 10 38 10
48 -3 92 -20 66 -130 101 -193 61z"/>
<path d="M3074 4901 c-41 -25 -68 -83 -61 -132 18 -132 194 -161 253 -40 19
39 14 99 -11 137 -33 52 -125 69 -181 35z"/>
<path d="M3784 4901 c-87 -53 -80 -191 13 -236 43 -21 78 -19 123 6 69 39 88
126 44 195 -35 52 -123 70 -180 35z"/>
<path d="M4503 4906 c-86 -48 -91 -178 -9 -231 111 -73 250 43 195 164 -10 23
-32 49 -51 61 -37 22 -100 25 -135 6z"/>
<path d="M5224 4910 c-29 -11 -74 -67 -76 -93 -5 -79 27 -137 88 -157 100 -33
189 44 176 153 -6 54 -69 107 -126 106 -23 0 -50 -4 -62 -9z"/>
<path d="M5900 4882 c-22 -22 -40 -45 -41 -53 0 -8 -2 -22 -4 -32 -2 -10 1
-33 7 -50 35 -105 168 -128 234 -41 69 89 3 214 -113 214 -35 0 -49 -6 -83
-38z"/>
<path d="M1304 4443 c-59 -30 -81 -60 -90 -120 -7 -51 17 -105 62 -140 74 -56
194 -24 229 61 28 67 -5 164 -67 197 -33 18 -103 19 -134 2z"/>
<path d="M2014 4445 c-17 -7 -42 -27 -57 -44 -83 -99 -5 -257 124 -246 78 6
132 55 143 130 17 110 -107 204 -210 160z"/>
<path d="M2745 4452 c-34 -8 -75 -42 -94 -80 -51 -105 34 -228 149 -217 144
15 187 189 69 278 -25 18 -85 28 -124 19z"/>
<path d="M3455 4449 c-43 -12 -91 -62 -102 -107 -24 -95 56 -194 153 -188 164
9 200 229 48 292 -37 16 -55 16 -99 3z"/>
<path d="M4164 4449 c-42 -12 -91 -69 -100 -115 -9 -51 11 -107 51 -143 46
-40 93 -48 151 -26 146 56 123 267 -31 288 -22 3 -54 1 -71 -4z"/>
<path d="M4854 4437 c-53 -30 -87 -96 -78 -152 22 -141 191 -178 278 -61 28
38 28 125 0 163 -52 69 -130 88 -200 50z"/>
<path d="M5595 4453 c-118 -32 -150 -192 -53 -266 122 -93 292 34 233 175 -27
65 -114 109 -180 91z"/>
<path d="M1654 3962 c-76 -38 -111 -101 -100 -180 10 -75 77 -140 151 -146 31
-3 105 21 127 41 28 25 58 91 58 131 0 34 -21 84 -49 116 -41 46 -134 66 -187
38z"/>
<path d="M2377 3965 c-50 -17 -76 -41 -97 -89 -52 -113 32 -240 156 -238 96 2
164 73 164 169 -1 117 -113 196 -223 158z"/>
<path d="M3094 3969 c-63 -17 -122 -100 -117 -166 0 -7 1 -21 2 -31 2 -34 54
-100 91 -117 119 -54 244 26 243 156 0 110 -108 187 -219 158z"/>
<path d="M3808 3970 c-74 -21 -128 -97 -122 -171 8 -92 80 -161 169 -161 71 0
130 42 158 112 14 34 14 42 3 105 -15 80 -122 139 -208 115z"/>
<path d="M4515 3966 c-41 -15 -66 -35 -92 -71 -29 -42 -28 -141 3 -181 46 -62
108 -87 178 -72 55 12 91 41 116 93 64 131 -69 281 -205 231z"/>
<path d="M5220 3963 c-45 -18 -68 -40 -91 -85 -66 -129 59 -274 201 -232 113
33 157 176 83 265 -49 58 -128 80 -193 52z"/>
<path d="M1995 3482 c-107 -51 -142 -171 -82 -275 44 -74 147 -110 227 -79
155 61 168 268 21 350 -41 24 -121 25 -166 4z"/>
<path d="M2729 3490 c-66 -20 -125 -91 -133 -161 -9 -81 49 -176 123 -201 188
-63 340 153 213 304 -47 56 -131 80 -203 58z"/>
<path d="M3416 3478 c-70 -36 -106 -95 -106 -173 0 -108 85 -189 196 -187 61
2 112 29 149 81 26 37 30 51 30 110 0 78 -22 120 -84 161 -49 32 -132 36 -185
8z"/>
<path d="M4147 3486 c-150 -55 -168 -262 -31 -342 48 -28 118 -35 165 -16 76
30 129 116 123 196 -5 51 -46 119 -88 146 -45 27 -120 34 -169 16z"/>
<path d="M4868 3490 c-80 -24 -139 -112 -131 -196 13 -168 216 -238 330 -116
32 35 45 66 48 122 8 131 -118 229 -247 190z"/>
<path d="M2355 3005 c-111 -42 -165 -174 -116 -280 93 -200 382 -146 396 74
10 146 -142 257 -280 206z"/>
<path d="M3090 3010 c-106 -30 -169 -123 -155 -227 28 -209 307 -250 396 -58
32 69 19 164 -29 218 -51 57 -144 87 -212 67z"/>
<path d="M3773 2998 c-131 -62 -163 -228 -65 -331 134 -142 368 -40 357 155
-3 58 -23 98 -69 143 -51 50 -155 66 -223 33z"/>
<path d="M4478 2992 c-154 -78 -151 -295 5 -371 135 -65 296 36 297 187 1 157
-161 255 -302 184z"/>
<path d="M2695 2520 c-138 -65 -179 -215 -95 -343 66 -99 202 -126 306 -61
155 96 144 324 -19 400 -64 29 -136 31 -192 4z"/>
<path d="M4112 2515 c-206 -105 -150 -412 79 -432 214 -20 334 230 186 389
-37 40 -85 60 -152 65 -51 4 -68 0 -113 -22z"/>
</g>
</svg>
